<ttFont>
          <CharString index="0" raw="1">
            240a511d f74dfb0a e6fb481f fb1b04d1
            a860451f 5207456e 6145456f b5d11ec4
            07d1a7b6 d11e0b  
          </CharString>
          <CharString index="1" raw="1">
            fbca075e 6a65595f 74aab71e f7d2fb5b
            fbea07fb 11c642f7 11d6d3ae c4b41e0b
          </CharString>
          <CharString index="2" raw="1">
            fb7bfb1a 6dfb32fb 02d765f7 02e7c6aa
            aeb71f63 9dbc71db 1bceb09f 8b1f0b
          </CharString>
          <CharString index="3" raw="1">
            f7e1581d fb48fb09 30fb4d0b 
          </CharString>
          <CharString index="4" raw="1">
            230afb4d f70930f7 480b 
          </CharString>
          <CharString index="5" raw="1">
            12b6f765 fb5af776 f748f763 fb63f776
            130013f6 f7ff510a fb37fb26 4ffb341f
            13f5fba0 f82ada28 1a605288 631e13f9
            476098d5 1ffb6506 fb58f727 5af755f7
            41f716d0 f73f1e13 f586f793 fc253af2
            1aa3a9a0 c81e13f6 cba46967 1f87f763
            9707f727 88fb1bcc fb3a1b0b 
          </CharString>
          <CharString index="6" raw="1">
            f8f7610a fb58062e fbf30584 0626f7f3
            05fb6a06 f766fca4 0571867d 5c451b3b
            fb0b0682 a4b582bb 1bf72ecc eaf717bb
            1f0b   
          </CharString>
          <CharString index="7" raw="1">
            4a1d13fc 230afb52 f70b35f7 521f13fa
            2c0a13fc 231d0b  
          </CharString>
          <CharString index="8" raw="1">
            fb9506fb 8ffd4405 f77606a8 ec05f785
            06a82a05 0b  
          </CharString>
          <CharString index="9" raw="1">
            b8acb1bd b7a26c5f 1efbd2f7 5bf7ea07
            f71150d4 fb110b  
          </CharString>
          <CharString index="10" raw="1">
            5a68a8a0 871f2b06 48d03ef7 07f706d2
            d8ce1e0b   
          </CharString>
          <CharString index="11" raw="1">
            bb1df89a 3a0a280a f77e0613 ec320a0b
          </CharString>
          <CharString index="12" raw="1">
            f752eba9 1d716944 3f6db5d4 1e0b
          </CharString>
          <CharString index="13" raw="1">
            f710fb10 f71bf6e9 b2f745fb 13f7130b
          </CharString>
          <CharString index="14" raw="1">
            4e0a6a0a 2ffb1905 0b 
          </CharString>
          <CharString index="15" raw="1">
            ab1dfb5f fbe706fb b5f7e705 fb55fd44
            f75ff7e2 06f7b5fb e205f755 060b
          </CharString>
          <CharString index="16" raw="1">
            544f6745 2256c6ef 1ecb07ef c0c6f4d1
            c766501e f76706f7 41fb31e3 fb551e0b
          </CharString>
          <CharString index="17" raw="1">
            15f7043c eefb2d1e fc39fd44 f771f78f
            dd06f70e fb8f05f7 8c06fb2d f7b405e4
            acb7d7db 1afb7582 15666f70 691efb25
            f713f725 06ada771 661f0e 
          </CharString>
          <CharString index="18" raw="1">
            fc11f884 15d3fb89 05fb2906 d4f78905
            0b   
          </CharString>
          <CharString index="19" raw="1">
            3e41d805 fb144f0a 0b 
          </CharString>
          <CharString index="20" raw="1">
            f838510a fb82fb1d fb0dfb7f fb7ff706
            fb0df779 f4daa6c0 c91f0b 
          </CharString>
          <CharString index="21" raw="1">
            15fb1ffb 1263fb1f 1ffb64f7 e9d33c1a
            6654896f 1e0b  
          </CharString>
          <CharString index="22" raw="1">
            451d391d 0b  
          </CharString>
          <CharString index="23" raw="1">
            8c1df714 060b  
          </CharString>
          <CharString index="24" raw="1">
            6d1d390a 0b  
          </CharString>
          <CharString index="25" raw="1">
            f75b1300 0b  
          </CharString>
          <CharString index="26" raw="1">
            f944150b   
          </CharString>
          <CharString index="27" raw="1">
            15fb1306 fb20311d 0b 
          </CharString>
          <CharString index="28" raw="1">
            968bf739 f71fedf7 0db11d8c f7c415d4
            fbc4f7be 06f77ff7 12f70186 1dfb12f7
            01fb7f1f fbbefbb2 4206f81b 2915ed2a
            f70dd407 ecb5542d 1f4f072d 61542a1e
            42f71f06 0e  
          </CharString>
          <CharString index="29" raw="1">
            152ff719 05fb5569 0a0b 
          </CharString>
          <CharString index="30" raw="1">
            15fb4efb 43d20644 fb4a05ea 06e6f754
            050b   
          </CharString>
          <CharString index="31" raw="1">
            7ff71bf7 aef71b0b  
          </CharString>
          <CharString index="32" raw="1">
            12a9f75b fb4cf759 0b 
          </CharString>
          <CharString index="33" raw="1">
            fb19500a 0e  
          </CharString>
          <CharString index="34" raw="1">
            6e5295be 8a1f8ffb 4d07fb18 f72057f7
            18f725f7 14b5f725 1e0b 
          </CharString>
          <CharString index="35" raw="1">
            60756f74 5a1a3dd5 61f709f7 08d7b5d9
            bc6fa25f a11e9007 0b 
          </CharString>
          <CharString index="36" raw="1">
            158e0a56 533c1d8e 1db40a5d 0a
          </CharString>
          <CharString index="37" raw="1">
            6c0aa8be 85b91bb9 d39cd7c9 5fa15a90
            1f0b   
          </CharString>
          <CharString index="38" raw="1">
            5e8bf739 f4f732ea f7390b 
          </CharString>
          <CharString index="39" raw="1">
            a05b0a0b   
          </CharString>
          <CharString index="40" raw="1">
            015d1d0b   
          </CharString>
          <CharString index="41" raw="1">
            15fb1606 413e40b4 1df720fb 25050b
          </CharString>
          <CharString index="42" raw="1">
            f76bfbe9 3cd71aad c28b9c1e 0b
          </CharString>
          <CharString index="43" raw="1">
            510a2b06 fc2efd5c 05ea060b 
          </CharString>
          <CharString index="44" raw="1">
            610afb5b 0b  
          </CharString>
          <CharString index="45" raw="1">
            03f8a261 0afc82fb 1bf76606 fb72fbdc
            054af897 f71bfb7d 07f774f7 df050b
          </CharString>
          <CharString index="46" raw="1">
            15898f05 0b  
          </CharString>
          <CharString index="47" raw="1">
            06f71f31 1d0b  
          </CharString>
          <CharString index="48" raw="1">
            05531d0b   
          </CharString>
          <CharString index="49" raw="1">
            f950150b   
          </CharString>
          <CharString index="50" raw="1">
            12c7390a 13b87a0a 13d8421d f77f0613
            b8910a13 d8f73b07 13b88b75 97661e0b
          </CharString>
          <CharString index="51" raw="1">
            600af771 0b  
          </CharString>
          <CharString index="52" raw="1">
            b61dcbac ab9095aa 1ed76107 5e7ca4a5
            0b   
          </CharString>
          <CharString index="53" raw="1">
            fb66f703 eef720c7 f3f718f3 85770b
          </CharString>
          <CharString index="54" raw="1">
            cd3f1d0b   
          </CharString>
          <CharString index="55" raw="1">
            f98b401d 0b  
          </CharString>
          <CharString index="56" raw="1">
            f716fb06 f706f70f f705fb05 f716611d
            0b   
          </CharString>
          <CharString index="57" raw="1">
            01a2f763 f722891d f8e5401d fc54064b
            73745c5c 73a2cb1e 93fb6382 07fb44f6
            40f746f7 46f6d6f7 441e0b 
          </CharString>
          <CharString index="58" raw="1">
            f739fb18 76f788f7 20f72bf7 390b
          </CharString>
          <CharString index="59" raw="1">
            76880a0b   
          </CharString>
          <CharString index="60" raw="1">
            a6b68261 8c1ff74d 060b 
          </CharString>
          <CharString index="61" raw="1">
            dfc3d2d3 1f0e  
          </CharString>
          <CharString index="62" raw="1">
            2e0a7d1d 0e  
          </CharString>
          <CharString index="63" raw="1">
            8f1df7b7 f7760b  
          </CharString>
          <CharString index="64" raw="1">
            401dfd44 0b  
          </CharString>
          <CharString index="65" raw="1">
            f8a4150b   
          </CharString>
          <CharString index="66" raw="1">
            15fb16fb 08bd0662 2f05ce06 c1ee050b
          </CharString>
          <CharString index="67" raw="1">
            fb307ff7 0b821d0b  
          </CharString>
          <CharString index="68" raw="1">
            15fb71fd 44f771f7 2e06f70c edf723fb
            9005f799 06fb90f8 29f78bf7 af05fba6
            06fb89fb ba050e  
          </CharString>
          <CharString index="69" raw="1">
            154f5b5a 4f4fbc5b c6c8bbbc c6c85abb
            4f1f4604 a29d7b74 737a7a73 75799ba2
            a39c9ca2 1f0e  
          </CharString>
          <CharString index="70" raw="1">
            15fbd127 f7d1060e  
          </CharString>
          <CharString index="71" raw="1">
            f94b3a0a fd34fb44 f776fc94 f771f894
            f775060b   
          </CharString>
          <CharString index="72" raw="1">
            f83c581d 40436753 621f0b 
          </CharString>
          <CharString index="73" raw="1">
            068987f7 34fb1505 0b 
          </CharString>
          <CharString index="74" raw="1">
            fb55060b   
          </CharString>
          <CharString index="75" raw="1">
            f79e4c0a 0b  
          </CharString>
          <CharString index="76" raw="1">
            05b106a8 947f7774 7b837357 4a938b1f
            5507810b   
          </CharString>
          <CharString index="77" raw="1">
            12770a0b   
          </CharString>
          <CharString index="78" raw="1">
            f861f739 fbb50673 f405f78e f732fbb3
            0675ea05 f801f739 fd3b06fb b7fd4405
            f776060b   
          </CharString>
          <CharString index="79" raw="1">
            3048cf33 1b29453b 8b1ffb16 078bd1db
            ed1e0b   
          </CharString>
          <CharString index="80" raw="1">
            a0851d0b   
          </CharString>
          <CharString index="81" raw="1">
            f744fbf5 f894fb71 fd44070e 
          </CharString>
          <CharString index="82" raw="1">
            fb3bfb60 f73bfb61 05f72306 fb1ef761
            050b   
          </CharString>
          <CharString index="83" raw="1">
            8c1d7d1d 0b  
          </CharString>
          <CharString index="84" raw="1">
            5b1d1300 0b  
          </CharString>
          <CharString index="85" raw="1">
            fca4fb18 f8a4060b  
          </CharString>
          <CharString index="86" raw="1">
            fc0e470a 0b  
          </CharString>
          <CharString index="87" raw="1">
            aff75b0b   
          </CharString>
          <CharString index="88" raw="1">
            15fb154a 5337878b 878c861f f7099706
            aba2a3b3 b39c7674 65416925 381e0b
          </CharString>
          <CharString index="89" raw="1">
            15951d0b   
          </CharString>
          <CharString index="90" raw="1">
            f811f8b1 154c526d 4c721f0b 
          </CharString>
          <CharString index="91" raw="1">
            d93db62a 1e3a04ae a67e6b0b 
          </CharString>
          <CharString index="92" raw="1">
            f7d5581d 0b  
          </CharString>
          <CharString index="93" raw="1">
            290a4c4f 7261611e 0b 
          </CharString>
          <CharString index="94" raw="1">
            f7a17b1d 47fb1bcf fc1df75b f81de5f7
            1b31070b   
          </CharString>
          <CharString index="95" raw="1">
            f70826f7 01adf726 4df714fb 0af7170b
          </CharString>
          <CharString index="96" raw="1">
            e34cf763 53078269 6651756d 0836fb16
            07c9c5e8 f70f94cd 080e 
          </CharString>
          <CharString index="97" raw="1">
            07fb20b6 054407f7 55fb5905 a0060b
          </CharString>
          <CharString index="98" raw="1">
            af0af81d f7270b  
          </CharString>
          <CharString index="99" raw="1">
            fb43f708 db760b  
          </CharString>
          <CharString index="100" raw="1">
            983b05f7 37060b  
          </CharString>
          <CharString index="101" raw="1">
            480a030b   
          </CharString>
          <CharString index="102" raw="1">
            601ddff7 19b50a03 f79e16f8 a4fb5bfc
            a4070b   
          </CharString>
          <CharString index="103" raw="1">
            fc46f77f f74b01d2 f75303f7 9af83615
            fb53fb4b f753060e  
          </CharString>
          <CharString index="104" raw="1">
            f944770b   
          </CharString>
          <CharString index="105" raw="1">
            b6f71f05 4406fb59 fb540576 07f759fb
            5405d206 60f71f05 0b 
          </CharString>
          <CharString index="106" raw="1">
            3a0afb83 06c2fc4e 057d1d0b 
          </CharString>
          <CharString index="107" raw="1">
            03f82e3a 0afb2706 9ffb5efb 6aa005fb
            2707f76a a0770b  
          </CharString>
          <CharString index="108" raw="1">
            911df75b 0b  
          </CharString>
          <CharString index="109" raw="1">
            a0481d0b   
          </CharString>
          <CharString index="110" raw="1">
            74837a7a 710b  
          </CharString>
          <CharString index="111" raw="1">
            fa09950a 0b  
          </CharString>
          <CharString index="112" raw="1">
            15fc884d f888060b  
          </CharString>
          <CharString index="113" raw="1">
            dbaabae1 1ecb060b  
          </CharString>
          <CharString index="114" raw="1">
            8bf739f7 faf7390b  
          </CharString>
          <CharString index="115" raw="1">
            fb3715bb a171621f 83076274 715c1e30
            f722060e   
          </CharString>
          <CharString index="116" raw="1">
            adec05f7 7e062ff8 23158f06 c1fb8905
            fb25060e   
          </CharString>
          <CharString index="117" raw="1">
            15fb1606 41330a0b  
          </CharString>
          <CharString index="118" raw="1">
            96a0a10a 0b  
          </CharString>
          <CharString index="119" raw="1">
            f77df751 f71301b5 fa29030b 
          </CharString>
          <CharString index="120" raw="1">
            6a6d7f6b 6a6f97ac 0b 
          </CharString>
          <CharString index="121" raw="1">
            76ecf72e 0b  
          </CharString>
          <CharString index="122" raw="1">
            9c4005f7 3606fbb1 f81d15c9 a5584d1f
            6a070b   
          </CharString>
          <CharString index="123" raw="1">
            bc1df7b4 f7671300 0b 
          </CharString>
          <CharString index="124" raw="1">
            e6ce47e3 1bedd1db 8b1f0b 
          </CharString>
          <CharString index="125" raw="1">
            f71f1513 f0991d13 e8f72c06 0e
          </CharString>
          <CharString index="126" raw="1">
            3a0a2c06 30fb5405 fb39f74e f7434407
            0b   
          </CharString>
          <CharString index="127" raw="1">
            f716e5ec f7161f98 07f71631 ebfb161e
            0b   
          </CharString>
          <CharString index="128" raw="1">
            76f969a9 0a6a1d0b  
          </CharString>
          <CharString index="129" raw="1">
            76f78ff7 2df713f7 310b 
          </CharString>
          <CharString index="130" raw="1">
            d5f75ff7 abf75f0b  
          </CharString>
          <CharString index="131" raw="1">
            15fbd027 f7d0060b  
          </CharString>
          <CharString index="132" raw="1">
            96470a0b   
          </CharString>
          <CharString index="133" raw="1">
            f77d8bf7 3947f72e 9ef732ea f7390b
          </CharString>
          <CharString index="134" raw="1">
            0660fb1f 05d206f7 59f75405 a0070b
          </CharString>
          <CharString index="135" raw="1">
            666d716b 5e1a6ef8 0af1fb59 070b
          </CharString>
          <CharString index="136" raw="1">
            fb7ffb1c fb0dfb7f 0b 
          </CharString>
          <CharString index="137" raw="1">
            77b50a03 f79e0b  
          </CharString>
          <CharString index="138" raw="1">
            f72cd0f7 2c0b  
          </CharString>
          <CharString index="139" raw="1">
            f74301b7 f74eb6f7 4e03f77a 0b
          </CharString>
          <CharString index="140" raw="1">
            b298a6af b41ac84c befb041e 0b
          </CharString>
          <CharString index="141" raw="1">
            fb67c9ca c49d0b  
          </CharString>
          <CharString index="142" raw="1">
            ab9fa29e ba1a0b  
          </CharString>
          <CharString index="143" raw="1">
            7ff727fb 06760b  
          </CharString>
          <CharString index="144" raw="1">
            6d2d552c 61520832 f770070b 
          </CharString>
          <CharString index="145" raw="1">
            8bf744f8 9477850a 0b 
          </CharString>
          <CharString index="146" raw="1">
            f77d470a 0b  
          </CharString>
          <CharString index="147" raw="1">
            fc6ffb04 f86f060b  
          </CharString>
          <CharString index="148" raw="1">
            c0c363cb 1b0b  
          </CharString>
          <CharString index="149" raw="1">
            01cef75b 0b  
          </CharString>
          <CharString index="150" raw="1">
            0713dce3 fb710713 ec330b 
          </CharString>
          <CharString index="151" raw="1">
            fc7df974 770189f7 ad030b 
          </CharString>
          <CharString index="152" raw="1">
            f70ffb0f f71b12d7 f75b0b 
          </CharString>
          <CharString index="153" raw="1">
            8bf74df8 8b7701ce f75a0b 
          </CharString>
          <CharString index="154" raw="1">
            15fb37fb 2706bafb 23050b 
          </CharString>
          <CharString index="155" raw="1">
            aba498af 1e0e  
          </CharString>
          <CharString index="156" raw="1">
            fca4f75b 0b  
          </CharString>
        <CharString name=".notdef">
          -17 0 50 600 50 hstem
          0 50 400 50 vstem
          700 vmoveto
          -700 500 700 vlineto
          -80 -50 rmoveto
          -170 -255 -170 255 rlineto
          370 -555 rmoveto
          -170 255 170 255 rlineto
          -30 -555 rmoveto
          -340 hlineto
          170 255 rlineto
          -200 -210 rmoveto
          510 vlineto
          170 -255 rlineto
          endchar
        </CharString>
        <CharString name="A">
          11 21 -21 97 154 245 192 0 -20 hstemhm
          10 759 hintmask 11011000
          518 688 rmoveto
          -257 hlineto
          -251 -688 rlineto
          226 hlineto
          29 97 rlineto
          241 hlineto
          29 -97 rlineto
          234 hlineto
          hintmask 11101000
          -381 496 rmoveto
          72 -245 rlineto
          -149 hlineto
          73 245 rlineto
          endchar
        </CharString>
        <CharString name="AE">
          233 0 165 -68 154 19 158 95 165 hstemhm
          -15 977 hintmask 10111000
          501 hmoveto
          461 165 -289 hlineto
          -24 105 rlineto
          250 158 -287 hlineto
          -22 95 rlineto
          365 165 -679 hlineto
          -291 -688 rlineto
          226 hlineto
          hintmask 01111000
          34 97 rlineto
          234 hlineto
          -92 399 rmoveto
          4 hlineto
          54 -245 rlineto
          -145 hlineto
          endchar
        </CharString>
        <CharString name="AEacute">
          233 0 165 -68 154 19 158 95 165 64 133 hstemhm
          -15 977 hintmask 10111100
          758 881 rmoveto
          -2 4 rlineto
          -193 hlineto
          -92 -133 rlineto
          127 hlineto
          -97 -752 rmoveto
          461 165 -289 hlineto
          -24 105 rlineto
          250 158 -287 hlineto
          -22 95 rlineto
          365 165 -679 hlineto
          -291 -688 rlineto
          226 hlineto
          hintmask 01111100
          34 97 rlineto
          234 hlineto
          -92 399 rmoveto
          4 hlineto
          54 -245 rlineto
          -145 hlineto
          endchar
        </CharString>
        <CharString name="Aacute">
          11 21 -21 97 154 245 192 0 -20 84 133 hstemhm
          10 759 hintmask 11011100
          769 hmoveto
          -251 688 rlineto
          -257 hlineto
          -251 -688 rlineto
          226 hlineto
          29 97 rlineto
          241 hlineto
          29 -97 rlineto
          hintmask 11101100
          -151 496 rmoveto
          4 hlineto
          72 -245 rlineto
          -149 hlineto
          269 630 rmoveto
          -2 4 rlineto
          -193 hlineto
          -92 -133 rlineto
          127 hlineto
          endchar
        </CharString>
        <CharString name="Abreve">
          11 21 -21 97 154 245 192 0 -20 73 94 hstemhm
          10 759 hintmask 11011100
          518 688 rmoveto
          -257 hlineto
          -251 -688 rlineto
          226 hlineto
          29 97 rlineto
          241 hlineto
          29 -97 rlineto
          234 hlineto
          hintmask 11101100
          -381 496 rmoveto
          72 -245 rlineto
          -149 hlineto
          73 245 rlineto
          95 389 rmoveto
          -21 -4 -37 -29 -49 hhcurveto
          -49 -35 29 21 -4 hvcurveto
          -96 hlineto
          -67 68 -77 116 113 72 77 67 vhcurveto
          endchar
        </CharString>
        <CharString name="Acircumflex">
          11 21 -21 97 154 245 192 0 -20 72 145 hstemhm
          10 759 hintmask 11011100
          518 688 rmoveto
          -257 hlineto
          -251 -688 rlineto
          226 hlineto
          29 97 rlineto
          241 hlineto
          29 -97 rlineto
          234 hlineto
          hintmask 11101100
          -381 496 rmoveto
          72 -245 rlineto
          -149 hlineto
          73 245 rlineto
          69 389 rmoveto
          -128 hlineto
          -139 -145 rlineto
          128 hlineto
          74 77 74 -77 rlineto
          130 hlineto
          endchar
        </CharString>
        <CharString name="Adieresis">
          11 21 -21 97 154 245 192 0 -20 78 139 hstemhm
          203 152 68 152 hintmask 11011110
          518 688 rmoveto
          -257 hlineto
          -251 -688 rlineto
          226 hlineto
          29 97 rlineto
          241 hlineto
          29 -97 rlineto
          234 hlineto
          hintmask 11101110
          -381 496 rmoveto
          72 -245 rlineto
          -149 hlineto
          73 245 rlineto
          191 389 rmoveto
          -152 -139 152 hlineto
          -220 139 rmoveto
          -152 -139 152 hlineto
          endchar
        </CharString>
        <CharString name="Agrave">
          11 21 -21 97 154 245 192 0 -20 84 133 hstemhm
          10 759 hintmask 11011100
          769 hmoveto
          -251 688 rlineto
          -257 hlineto
          -251 -688 rlineto
          226 hlineto
          29 97 rlineto
          241 hlineto
          29 -97 rlineto
          hintmask 11101100
          -151 496 rmoveto
          4 hlineto
          72 -245 rlineto
          -149 hlineto
          174 501 rmoveto
          -92 133 rlineto
          -193 hlineto
          -2 -4 160 -129 rlineto
          endchar
        </CharString>
        <CharString name="Amacron">
          11 21 -21 97 154 245 192 0 -20 97 100 hstemhm
          10 759 -538 316 hintmask 11011100
          518 688 rmoveto
          -257 hlineto
          -251 -688 rlineto
          226 hlineto
          29 97 rlineto
          241 hlineto
          29 -97 rlineto
          234 hlineto
          hintmask 11101010
          -381 496 rmoveto
          72 -245 rlineto
          -149 hlineto
          73 245 rlineto
          163 369 rmoveto
          -316 -100 316 hlineto
          endchar
        </CharString>
        <CharString name="Aogonek">
          11 -211 91 141 -21 97 154 245 192 0 -20 hstemhm
          502 223 hintmask 11101100
          518 688 rmoveto
          -257 hlineto
          -251 -688 rlineto
          226 hlineto
          29 97 rlineto
          241 hlineto
          29 -97 rlineto
          7 hlineto
          -20 -25 -20 -30 -42 vvcurveto
          -82 62 -32 65 33 32 5 10 31 vhcurveto
          76 -42 vlineto
          -45 -15 25 26 26 8 27 8 16 hvcurveto
          130 hlineto
          hintmask 11110100
          -381 496 rmoveto
          72 -245 rlineto
          -149 hlineto
          73 245 rlineto
          endchar
        </CharString>
        <CharString name="Aring">
          11 21 -21 97 154 245 192 0 -20 69 68 80 69 hstemhm
          280 69 80 69 hintmask 11011111
          518 688 rmoveto
          -257 hlineto
          -251 -688 rlineto
          226 hlineto
          29 97 rlineto
          241 hlineto
          29 -97 rlineto
          234 hlineto
          hintmask 11101111
          -381 496 rmoveto
          72 -245 rlineto
          -149 hlineto
          73 245 rlineto
          5 458 rmoveto
          -60 -49 -49 -60 -60 50 -48 59 60 49 49 59 61 -50 48 -59 hvcurveto
          -69 vmoveto
          23 17 -16 -23 -24 -16 -17 -24 -23 -17 16 23 24 16 17 24 hvcurveto
          endchar
        </CharString>
        <CharString name="Aringacute">
          11 21 -21 97 154 437 -20 100 59 25 105 hstemhm
          281 69 80 69 hintmask 11101110
          518 688 rmoveto
          -27 hlineto
          hintmask 11111110
          5 12 3 13 15 vvcurveto
          66 -50 33 -59 -60 -49 -34 -65 -15 2 -13 5 -12 vhcurveto
          -27 hlineto
          -251 -688 rlineto
          226 hlineto
          29 97 rlineto
          241 hlineto
          29 -97 rlineto
          234 hlineto
          -381 496 rmoveto
          72 -245 rlineto
          -149 hlineto
          73 245 rlineto
          6 272 rmoveto
          23 17 -16 -23 -24 -16 -17 -24 -23 -17 16 23 24 16 17 24 hvcurveto
          hintmask 11101110
          190 189 rmoveto
          -182 hlineto
          -77 -105 rlineto
          127 hlineto
          134 101 rlineto
          endchar
        </CharString>
        <CharString name="Atilde">
          11 21 -21 97 154 245 192 0 -20 74 143 hstemhm
          10 759 hintmask 11011100
          518 688 rmoveto
          -257 hlineto
          -251 -688 rlineto
          226 hlineto
          29 97 rlineto
          241 hlineto
          29 -97 rlineto
          234 hlineto
          hintmask 11101100
          -381 496 rmoveto
          72 -245 rlineto
          -149 hlineto
          73 245 rlineto
          146 389 rmoveto
          -23 -7 -18 -17 -25 hhcurveto
          -54 -55 40 -64 hhcurveto
          -84 -56 -71 -72 hvcurveto
          81 hlineto
          23 7 18 17 25 hhcurveto
          54 55 -40 64 hhcurveto
          84 56 71 72 hvcurveto
          endchar
        </CharString>
        <CharString name="B">
          11 0 160 118 142 117 151 hstemhm
          74 221 203 224 -208 224 hintmask 11110100
          74 688 rmoveto
          -688 464 vlineto
          111 89 73 110 110 -60 46 -71 16 hvcurveto
          4 vlineto
          hintmask 11111000
          62 18 53 42 100 vvcurveto
          99 -86 70 -104 vhcurveto
          hintmask 11110100
          -69 -410 rmoveto
          29 22 -24 -30 hvcurveto
          -10 vlineto
          -31 -22 -23 -29 vhcurveto
          -168 118 hlineto
          hintmask 11111000
          152 259 rmoveto
          28 23 -24 -29 hvcurveto
          -10 vlineto
          -30 -22 -24 -29 vhcurveto
          -152 117 hlineto
          endchar
        </CharString>
        <CharString name="C">
          11 -12 165 382 165 hstem
          45 226 258 204 vstem
          402 700 rmoveto
          -235 -122 -121 -235 -235 122 -121 235 210 121 102 189 hvcurveto
          -204 hlineto
          -79 -43 -47 -87 -90 -38 65 94 vhcurveto
          64 vlineto
          94 36 65 94 79 42 -51 -79 vhcurveto
          211 hlineto
          192 -131 103 -200 vhcurveto
          endchar
        </CharString>
        <CharString name="CR">
          -434 endchar
        </CharString>
        <CharString name="Cacute">
          11 -12 165 382 165 52 133 hstem
          45 226 258 204 vstem
          402 700 rmoveto
          -235 -122 -121 -235 -235 122 -121 235 210 121 102 189 hvcurveto
          -204 hlineto
          -79 -43 -47 -87 -90 -38 65 94 vhcurveto
          64 vlineto
          94 36 65 94 79 42 -51 -79 vhcurveto
          211 hlineto
          192 -131 103 -200 vhcurveto
          188 181 rmoveto
          -2 4 rlineto
          -192 hlineto
          -93 -133 rlineto
          128 hlineto
          endchar
        </CharString>
        <CharString name="Ccaron">
          11 -12 165 382 165 40 145 hstem
          45 226 258 204 vstem
          402 700 rmoveto
          -235 -122 -121 -235 -235 122 -121 235 210 121 102 189 hvcurveto
          -204 hlineto
          -79 -43 -47 -87 -90 -38 65 94 vhcurveto
          64 vlineto
          94 36 65 94 79 42 -51 -79 vhcurveto
          211 hlineto
          192 -131 103 -200 vhcurveto
          190 185 rmoveto
          -130 hlineto
          -74 -77 -74 77 rlineto
          -128 hlineto
          139 -145 rlineto
          128 hlineto
          endchar
        </CharString>
        <CharString name="Ccedilla">
          11 -211 62 63 57 18 164 -144 -21 22 -21 546 165 hstemhm
          45 226 153 87 18 204 hintmask 1000111110000000
          402 700 rmoveto
          -235 -122 -121 -235 -220 107 -121 207 -14 hvcurveto
          hintmask 1100111100000000
          -11 -75 rlineto
          38 hlineto
          29 9 -12 -20 -23 -16 -8 -24 -52 -65 8 0 hvcurveto
          -54 vlineto
          -10 29 51 -6 46 hhcurveto
          46 72 17 76 62 -44 22 -49 5 hvcurveto
          hintmask 1001011100000000
          3 17 rlineto
          hintmask 1001011110000000
          198 6 114 102 183 vvcurveto
          -204 hlineto
          hintmask 1010011110000000
          -79 -43 -47 -87 -90 -38 65 94 vhcurveto
          64 vlineto
          94 36 65 94 79 42 -51 -79 vhcurveto
          211 hlineto
          hintmask 1000111110000000
          192 -131 103 -200 vhcurveto
          endchar
        </CharString>
        <CharString name="Ccircumflex">
          11 -12 165 382 165 40 145 hstem
          45 226 258 204 vstem
          402 700 rmoveto
          -235 -122 -121 -235 -235 122 -121 235 210 121 102 189 hvcurveto
          -204 hlineto
          -79 -43 -47 -87 -90 -38 65 94 vhcurveto
          64 vlineto
          94 36 65 94 79 42 -51 -79 vhcurveto
          211 hlineto
          192 -131 103 -200 vhcurveto
          51 185 rmoveto
          -128 hlineto
          -139 -145 rlineto
          128 hlineto
          74 77 74 -77 rlineto
          130 hlineto
          endchar
        </CharString>
        <CharString name="Cdotaccent">
          11 -12 165 382 165 46 139 hstem
          45 226 42 152 64 204 vstem
          402 700 rmoveto
          -235 -122 -121 -235 -235 122 -121 235 210 121 102 189 hvcurveto
          -204 hlineto
          -79 -43 -47 -87 -90 -38 65 94 vhcurveto
          64 vlineto
          94 36 65 94 79 42 -51 -79 vhcurveto
          211 hlineto
          192 -131 103 -200 vhcurveto
          63 185 rmoveto
          -152 -139 152 hlineto
          endchar
        </CharString>
        <CharString name="D">
          11 0 165 358 165 hstem
          74 221 212 226 vstem
          74 688 rmoveto
          -688 298 vlineto
          235 126 109 235 235 -126 109 -235 hvcurveto
          -4 -165 rmoveto
          97 42 -55 -94 hvcurveto
          -60 vlineto
          -94 -42 -55 -97 vhcurveto
          -73 358 hlineto
          endchar
        </CharString>
        <CharString name="Dcaron">
          11 0 165 358 165 52 145 hstem
          74 221 212 226 vstem
          74 688 rmoveto
          -688 298 vlineto
          235 126 109 235 235 -126 109 -235 hvcurveto
          -4 -165 rmoveto
          97 42 -55 -94 hvcurveto
          -60 vlineto
          -94 -42 -55 -97 vhcurveto
          -73 358 hlineto
          261 362 rmoveto
          -130 hlineto
          -74 -77 -75 77 rlineto
          -128 hlineto
          140 -145 rlineto
          128 hlineto
          endchar
        </CharString>
        <CharString name="Dcroat">
          11 0 165 139 98 121 165 hstem
          74 221 212 226 vstem
          1 304 rmoveto
          73 -304 298 hlineto
          235 126 109 235 235 -126 109 -235 hvcurveto
          -298 -286 -73 hlineto
          391 -98 rmoveto
          98 -97 121 73 vlineto
          97 42 -55 -94 hvcurveto
          -60 vlineto
          -94 -42 -55 -97 vhcurveto
          -73 139 hlineto
          endchar
        </CharString>
        <CharString name="Delta">
          11 0 153 371 164 0 -20 hstemhm
          26 730 hintmask 10110000
          26 hmoveto
          730 70 hlineto
          -235 618 rlineto
          -261 hlineto
          -234 -618 rlineto
          hintmask 11010000
          359 454 rmoveto
          4 hlineto
          111 -371 rlineto
          -232 hlineto
          endchar
        </CharString>
        <CharString name="E">
          -45 0 165 105 158 95 165 hstem
          74 221 vstem
          676 hmoveto
          165 -381 105 320 158 -320 95 374 165 -595 -688 vlineto
          endchar
        </CharString>
        <CharString name="Eacute">
          -45 0 165 105 158 95 165 64 133 hstem
          74 221 vstem
          577 881 rmoveto
          -2 4 rlineto
          -193 hlineto
          -92 -133 rlineto
          127 hlineto
          259 -752 rmoveto
          165 -381 105 320 158 -320 95 374 165 -595 -688 vlineto
          endchar
        </CharString>
        <CharString name="Ebreve">
          -45 0 165 105 158 95 165 53 94 hstem
          74 221 vstem
          475 885 rmoveto
          -21 -4 -36 -29 -50 hhcurveto
          -49 -35 29 21 -4 hvcurveto
          -96 hlineto
          -67 69 -77 115 114 71 77 67 vhcurveto
          106 -885 rmoveto
          165 -381 105 320 158 -320 95 374 165 -595 -688 vlineto
          endchar
        </CharString>
        <CharString name="Ecaron">
          -45 0 165 105 158 95 165 52 145 hstem
          74 221 vstem
          589 885 rmoveto
          -130 hlineto
          -74 -77 -74 77 rlineto
          -128 hlineto
          139 -145 rlineto
          128 hlineto
          226 -740 rmoveto
          165 -381 105 320 158 -320 95 374 165 -595 -688 vlineto
          endchar
        </CharString>
        <CharString name="Ecircumflex">
          -45 0 165 105 158 95 165 52 145 hstem
          74 221 vstem
          450 885 rmoveto
          -128 hlineto
          -139 -145 rlineto
          128 hlineto
          74 77 74 -77 rlineto
          130 hlineto
          87 -740 rmoveto
          165 -381 105 320 158 -320 95 374 165 -595 -688 vlineto
          endchar
        </CharString>
        <CharString name="Edieresis">
          -45 0 165 105 158 95 165 58 139 hstemhm
          74 221 -95 152 68 152 hintmask 11111010
          572 885 rmoveto
          -152 -139 152 hlineto
          hintmask 11110110
          -220 139 rmoveto
          -152 -139 152 hlineto
          324 -746 rmoveto
          165 vlineto
          hintmask 11111010
          -381 105 320 158 -320 95 374 165 -595 -688 hlineto
          endchar
        </CharString>
        <CharString name="Edotaccent">
          -45 0 165 105 158 95 165 58 139 hstemhm
          74 221 15 152 hintmask 11111100
          462 885 rmoveto
          -152 -139 152 hlineto
          214 -746 rmoveto
          165 vlineto
          hintmask 11111000
          -381 105 320 158 -320 95 374 165 -595 -688 hlineto
          endchar
        </CharString>
        <CharString name="Egrave">
          -45 0 165 105 158 95 165 64 133 hstem
          74 221 vstem
          482 752 rmoveto
          -92 133 rlineto
          -193 hlineto
          -2 -4 160 -129 rlineto
          321 -752 rmoveto
          165 -381 105 320 158 -320 95 374 165 -595 -688 vlineto
          endchar
        </CharString>
        <CharString name="Emacron">
          -45 0 165 105 158 95 165 77 100 hstemhm
          74 221 -67 316 hintmask 11110100
          544 865 rmoveto
          -316 -100 316 hlineto
          132 -765 rmoveto
          165 vlineto
          hintmask 11111000
          -381 105 320 158 -320 95 374 165 -595 -688 hlineto
          endchar
        </CharString>
        <CharString name="Eng">
          47 -210 137 94 -21 688 -20 hstem
          74 203 279 203 vstem
          759 688 rmoveto
          -203 -339 hlineto
          -289 339 rlineto
          -193 -688 203 334 hlineto
          280 -324 rlineto
          -19 vlineto
          -41 -16 -23 -40 vhcurveto
          -49 -119 hlineto
          -11 31 61 -7 32 hhcurveto
          128 55 53 128 hvcurveto
          endchar
        </CharString>
        <CharString name="Eogonek">
          -45 -211 91 120 165 105 158 95 165 hstem
          74 221 196 185 vstem
          669 688 rmoveto
          -595 -688 457 hlineto
          -20 -25 -20 -30 -42 vvcurveto
          -82 62 -32 64 33 32 5 10 31 vhcurveto
          76 -42 vlineto
          -45 -15 25 26 26 9 27 7 16 hvcurveto
          49 165 -381 105 320 158 -320 95 374 hlineto
          endchar
        </CharString>
        <CharString name="Eth">
          11 0 165 139 98 121 165 hstem
          74 221 212 226 vstem
          1 304 rmoveto
          73 -304 298 hlineto
          235 126 109 235 235 -126 109 -235 hvcurveto
          -298 -286 -73 hlineto
          391 -98 rmoveto
          98 -97 121 73 vlineto
          97 42 -55 -94 hvcurveto
          -60 vlineto
          -94 -42 -55 -97 vhcurveto
          -73 139 hlineto
          endchar
        </CharString>
        <CharString name="Euro">
          -100 -12 139 100 93 48 93 100 139 hstem
          113 196 vstem
          474 700 rmoveto
          -135 -162 -55 -184 -51 hvcurveto
          -103 -93 90 -48 -90 -93 103 hlineto
          -185 51 168 -54 126 hhcurveto
          61 54 12 13 42 hvcurveto
          141 vlineto
          0 -51 -27 -72 -86 -57 38 62 -30 vhcurveto
          208 93 -230 hlineto
          -1 8 0 9 9 vvcurveto
          22 231 93 -209 vlineto
          62 29 58 38 87 hhcurveto
          72 51 -25 0 hvcurveto
          145 vlineto
          10 -35 -54 9 -65 hhcurveto
          endchar
        </CharString>
        <CharString name="F">
          -100 21 -21 247 158 118 165 hstem
          74 221 vstem
          295 hmoveto
          247 288 158 -288 118 335 165 -556 -688 vlineto
          endchar
        </CharString>
        <CharString name="G">
          66 -12 165 -132 -21 244 140 151 165 hstemhm
          45 226 288 211 hintmask 10111100
          420 700 rmoveto
          -238 -137 -121 -235 -235 114 -121 229 105 79 27 53 62 hvcurveto
          hintmask 01111100
          22 -68 rlineto
          114 384 -367 -140 156 hlineto
          hintmask 10111100
          -55 -60 -36 -70 -105 -53 59 100 vhcurveto
          64 vlineto
          100 53 59 105 70 60 -37 -59 vhcurveto
          211 hlineto
          173 -157 88 -193 vhcurveto
          endchar
        </CharString>
        <CharString name="Gbreve">
          66 -12 165 -132 -21 244 140 151 165 41 94 hstemhm
          45 226 288 211 hintmask 10111110
          420 700 rmoveto
          -238 -137 -121 -235 -235 114 -121 229 105 79 27 53 62 hvcurveto
          hintmask 01111110
          22 -68 rlineto
          114 384 -367 -140 156 hlineto
          hintmask 10111110
          -55 -60 -36 -70 -105 -53 59 100 vhcurveto
          64 vlineto
          100 53 59 105 70 60 -37 -59 vhcurveto
          211 hlineto
          173 -157 88 -193 vhcurveto
          86 185 rmoveto
          -21 -4 -36 -29 -50 hhcurveto
          -49 -35 29 21 -4 hvcurveto
          -96 hlineto
          -67 69 -77 115 114 71 77 67 vhcurveto
          endchar
        </CharString>
        <CharString name="Gcircumflex">
          66 -12 165 -132 -21 244 140 151 165 40 145 hstemhm
          45 226 288 211 hintmask 10111110
          420 700 rmoveto
          -238 -137 -121 -235 -235 114 -121 229 105 79 27 53 62 hvcurveto
          hintmask 01111110
          22 -68 rlineto
          114 384 -367 -140 156 hlineto
          hintmask 10111110
          -55 -60 -36 -70 -105 -53 59 100 vhcurveto
          64 vlineto
          100 53 59 105 70 60 -37 -59 vhcurveto
          211 hlineto
          173 -157 88 -193 vhcurveto
          60 185 rmoveto
          -127 hlineto
          -140 -145 rlineto
          128 hlineto
          75 77 74 -77 rlineto
          130 hlineto
          endchar
        </CharString>
        <CharString name="Gcommaaccent">
          66 -175 116 47 165 -132 -21 244 140 151 165 hstemhm
          45 226 81 129 78 211 hintmask 11011111
          420 700 rmoveto
          -238 -137 -121 -235 -235 114 -121 229 105 79 27 53 62 hvcurveto
          hintmask 10111111
          22 -68 rlineto
          114 384 -367 -140 156 hlineto
          hintmask 11011111
          -55 -60 -36 -70 -105 -53 59 100 vhcurveto
          64 vlineto
          100 53 59 105 70 60 -37 -59 vhcurveto
          211 hlineto
          173 -157 88 -193 vhcurveto
          61 -759 rmoveto
          -129 -116 49 hlineto
          -41 -92 rlineto
          67 hlineto
          54 99 rlineto
          endchar
        </CharString>
        <CharString name="Gdotaccent">
          66 -12 165 -132 -21 244 140 151 165 46 139 hstemhm
          45 226 69 153 66 211 hintmask 10111111
          420 700 rmoveto
          -238 -137 -121 -235 -235 114 -121 229 105 79 27 53 62 hvcurveto
          hintmask 01111111
          22 -68 rlineto
          114 384 -367 -140 156 hlineto
          hintmask 10111111
          -55 -60 -36 -70 -105 -53 59 100 vhcurveto
          64 vlineto
          100 53 59 105 70 60 -37 -59 vhcurveto
          211 hlineto
          173 -157 88 -193 vhcurveto
          73 185 rmoveto
          -153 -139 153 hlineto
          endchar
        </CharString>
        <CharString name="H">
          66 21 -21 261 176 251 -20 hstem
          74 221 243 221 vstem
          759 688 rmoveto
          -221 -251 -243 251 -221 -688 221 261 243 -261 221 hlineto
          endchar
        </CharString>
        <CharString name="Hbar">
          66 21 -21 251 176 75 98 -98 186 hstemhm
          74 221 243 221 hintmask 11011100
          831 502 rmoveto
          hintmask 11101100
          98 -72 vlineto
          hintmask 11011100
          88 -221 vlineto
          hintmask 11101100
          -88 -243 vlineto
          hintmask 11011100
          88 -221 vlineto
          hintmask 11101100
          -88 -73 vlineto
          hintmask 11011100
          -98 73 -502 221 251 243 -251 221 502 vlineto
          -464 -75 rmoveto
          75 243 -75 vlineto
          endchar
        </CharString>
        <CharString name="Hcircumflex">
          66 21 -21 261 176 251 -20 72 145 hstem
          74 221 243 221 vstem
          759 688 rmoveto
          -221 -251 -243 251 -221 -688 221 261 243 -261 221 hlineto
          -279 885 rmoveto
          -127 hlineto
          -140 -145 rlineto
          128 hlineto
          75 77 74 -77 rlineto
          130 hlineto
          endchar
        </CharString>
        <CharString name="I">
          -378 21 -21 688 -20 hstem
          84 221 vstem
          305 688 rmoveto
          -221 -688 221 hlineto
          endchar
        </CharString>
        <CharString name="IJ">
          261 -12 165 -153 248 -227 -21 688 -20 hstemhm
          84 221 79 207 142 221 hintmask 10011110
          954 688 rmoveto
          -221 -448 hlineto
          -64 -24 -23 -47 -47 -24 23 64 vhcurveto
          8 vlineto
          hintmask 01011110
          -207 -9 hlineto
          hintmask 10011110
          -176 107 -75 178 178 107 75 176 vhcurveto
          -649 449 rmoveto
          -221 hlineto
          hintmask 00111110
          -688 221 vlineto
          endchar
        </CharString>
        <CharString name="Iacute">
          -378 21 -21 688 -20 84 133 hstem
          84 221 vstem
          305 hmoveto
          688 -221 -688 vlineto
          302 881 rmoveto
          -2 4 rlineto
          -193 hlineto
          -92 -133 rlineto
          127 hlineto
          endchar
        </CharString>
        <CharString name="Ibreve">
          -378 21 -21 688 -20 73 94 hstem
          84 221 vstem
          305 688 rmoveto
          -221 -688 221 hlineto
          -21 885 rmoveto
          -21 -4 -36 -29 -50 hhcurveto
          -48 -36 29 21 -4 hvcurveto
          -96 hlineto
          -67 69 -77 115 114 71 77 67 vhcurveto
          endchar
        </CharString>
        <CharString name="Icircumflex">
          -378 21 -21 688 -20 72 145 hstem
          84 221 vstem
          305 688 rmoveto
          -221 -688 221 hlineto
          -46 885 rmoveto
          -128 hlineto
          -139 -145 rlineto
          128 hlineto
          74 77 74 -77 rlineto
          130 hlineto
          endchar
        </CharString>
        <CharString name="Idieresis">
          -378 21 -21 688 -20 78 139 hstemhm
          9 152 -77 221 -76 152 hintmask 11101000
          305 688 rmoveto
          -221 -688 221 hlineto
          hintmask 11100100
          76 885 rmoveto
          hintmask 11101000
          -152 -139 hlineto
          hintmask 11100100
          152 hlineto
          hintmask 11101000
          -220 139 rmoveto
          hintmask 11110000
          -152 -139 hlineto
          hintmask 11101000
          152 hlineto
          endchar
        </CharString>
        <CharString name="Idotaccent">
          -378 21 -21 688 -20 78 139 hstemhm
          84 221 -186 152 hintmask 11110000
          305 688 rmoveto
          -221 -688 221 hlineto
          hintmask 11101000
          -34 885 rmoveto
          -152 -139 152 hlineto
          endchar
        </CharString>
        <CharString name="Igrave">
          -378 21 -21 688 -20 84 133 hstem
          84 221 vstem
          305 hmoveto
          688 -221 -688 vlineto
          207 752 rmoveto
          -92 133 rlineto
          -193 hlineto
          -2 -4 160 -129 rlineto
          endchar
        </CharString>
        <CharString name="Imacron">
          -378 21 -21 688 -20 97 100 hstem
          84 221 vstem
          305 688 rmoveto
          -221 -688 221 hlineto
          48 865 rmoveto
          -316 -100 316 hlineto
          endchar
        </CharString>
        <CharString name="Iogonek">
          -378 -211 91 141 -21 688 -20 hstemhm
          84 221 -142 222 hintmask 11110000
          305 688 rmoveto
          -221 -688 119 hlineto
          -20 -25 -20 -30 -42 vvcurveto
          -82 62 -32 64 vhcurveto
          hintmask 11101000
          33 32 5 10 31 hvcurveto
          76 vlineto
          hintmask 11110000
          -42 hlineto
          -45 -15 25 26 26 9 27 7 16 hvcurveto
          6 hlineto
          endchar
        </CharString>
        <CharString name="Itilde">
          -378 21 -21 688 -20 74 143 hstem
          84 221 vstem
          305 688 rmoveto
          -221 -688 221 hlineto
          31 885 rmoveto
          -23 -7 -18 -17 -25 hhcurveto
          -54 -55 40 -64 hhcurveto
          -84 -56 -71 -72 hvcurveto
          81 hlineto
          23 7 18 17 25 hhcurveto
          54 55 -40 64 hhcurveto
          84 56 71 72 hvcurveto
          endchar
        </CharString>
        <CharString name="J">
          -100 -12 165 535 -20 hstem
          23 207 142 221 vstem
          593 688 rmoveto
          -221 -448 hlineto
          -64 -24 -23 -47 -47 -24 23 64 vhcurveto
          8 -207 -9 vlineto
          -176 107 -75 178 178 107 75 176 vhcurveto
          endchar
        </CharString>
        <CharString name="Jcircumflex">
          -100 -12 165 535 -20 72 145 hstem
          23 207 142 221 vstem
          593 688 rmoveto
          -221 -448 hlineto
          -64 -24 -23 -47 -47 -24 23 64 vhcurveto
          8 -207 -9 vlineto
          -176 107 -75 178 178 107 75 176 vhcurveto
          -57 646 rmoveto
          -128 hlineto
          -139 -145 rlineto
          127 hlineto
          75 77 74 -77 rlineto
          130 hlineto
          endchar
        </CharString>
        <CharString name="K">
          66 21 -21 688 -20 hstem
          74 221 vstem
          295 688 rmoveto
          -221 -688 221 154 hlineto
          120 98 143 -252 rlineto
          261 hlineto
          -252 405 247 283 rlineto
          -274 hlineto
          -245 -294 rlineto
          endchar
        </CharString>
        <CharString name="Kcommaaccent">
          66 -175 116 80 -21 688 -20 hstem
          74 221 57 129 vstem
          481 -59 rmoveto
          -129 -116 49 hlineto
          -41 -92 rlineto
          67 hlineto
          54 99 rlineto
          -186 856 rmoveto
          -221 -688 221 154 hlineto
          120 98 143 -252 rlineto
          261 hlineto
          -252 405 247 283 rlineto
          -274 hlineto
          -245 -294 rlineto
          endchar
        </CharString>
        <CharString name="L">
          -100 0 176 512 -20 hstem
          74 221 vstem
          648 hmoveto
          176 -353 512 -221 -688 vlineto
          endchar
        </CharString>
        <CharString name="Lacute">
          -100 0 176 512 -20 84 133 hstem
          74 221 vstem
          375 881 rmoveto
          -2 4 rlineto
          -193 hlineto
          -92 -133 rlineto
          127 hlineto
          433 -752 rmoveto
          176 -353 512 -221 -688 vlineto
          endchar
        </CharString>
        <CharString name="Lcaron">
          -100 0 176 396 116 hstem
          74 221 201 129 vstem
          625 688 rmoveto
          -129 -116 49 hlineto
          -41 -92 rlineto
          67 hlineto
          54 99 rlineto
          23 -579 rmoveto
          176 -353 512 -221 -688 vlineto
          endchar
        </CharString>
        <CharString name="Lcommaaccent">
          -100 -175 116 59 176 512 -20 hstemhm
          74 221 -26 129 hintmask 11101000
          398 -59 rmoveto
          -129 -116 49 hlineto
          -41 -92 rlineto
          67 hlineto
          54 99 rlineto
          250 168 rmoveto
          176 vlineto
          hintmask 11110000
          -353 512 -221 -688 hlineto
          endchar
        </CharString>
        <CharString name="Ldot">
          -100 0 176 167 183 162 -20 hstem
          74 221 93 192 vstem
          580 526 rmoveto
          -192 -183 192 hlineto
          68 -343 rmoveto
          176 -353 512 -221 -688 vlineto
          endchar
        </CharString>
        <CharString name="Lslash">
          -100 0 176 512 -20 hstem
          74 221 vstem
          295 688 rmoveto
          -221 -360 hlineto
          -74 -46 rlineto
          -98 vlineto
          74 45 rlineto
          -229 574 176 -353 188 vlineto
          149 92 rlineto
          100 vlineto
          -149 -93 rlineto
          endchar
        </CharString>
        <CharString name="M">
          177 21 -21 688 -20 hstem
          60 203 402 219 vstem
          884 688 rmoveto
          -301 hlineto
          -103 -397 rlineto
          -4 hlineto
          -104 397 rlineto
          -312 -688 203 248 hlineto
          104 -18 113 0 vhcurveto
          4 hlineto
          128 -465 rlineto
          173 hlineto
          127 466 rlineto
          4 hlineto
          0 -16 -114 -104 hvcurveto
          -248 219 vlineto
          endchar
        </CharString>
        <CharString name="N">
          66 21 -21 688 -20 hstem
          74 203 279 203 vstem
          759 688 rmoveto
          -203 -339 hlineto
          -289 339 rlineto
          -193 -688 203 334 hlineto
          289 -334 rlineto
          193 hlineto
          endchar
        </CharString>
        <CharString name="NULL">
          -767 endchar
        </CharString>
        <CharString name="Nacute">
          66 21 -21 688 -20 84 133 hstem
          74 203 279 203 vstem
          759 hmoveto
          688 -203 -339 vlineto
          -289 339 rlineto
          -193 -688 203 334 hlineto
          289 -334 rlineto
          41 881 rmoveto
          -2 4 rlineto
          -192 hlineto
          -93 -133 rlineto
          128 hlineto
          endchar
        </CharString>
        <CharString name="Ncaron">
          66 21 -21 688 -20 72 145 hstem
          74 203 279 203 vstem
          759 688 rmoveto
          -203 -339 hlineto
          -289 339 rlineto
          -193 -688 203 334 hlineto
          289 -334 rlineto
          193 hlineto
          -139 885 rmoveto
          -130 hlineto
          -74 -77 -75 77 rlineto
          -128 hlineto
          140 -145 rlineto
          127 hlineto
          endchar
        </CharString>
        <CharString name="Ncommaaccent">
          66 -175 116 80 -21 688 -20 hstem
          74 203 75 129 75 203 vstem
          759 688 rmoveto
          -203 -339 hlineto
          -289 339 rlineto
          -193 -688 203 334 hlineto
          289 -334 rlineto
          193 hlineto
          -278 -59 rmoveto
          -129 -116 49 hlineto
          -41 -92 rlineto
          67 hlineto
          54 99 rlineto
          endchar
        </CharString>
        <CharString name="Ntilde">
          66 21 -21 688 -20 74 143 hstem
          74 203 279 203 vstem
          759 688 rmoveto
          -203 -339 hlineto
          -289 339 rlineto
          -193 -688 203 334 hlineto
          289 -334 rlineto
          193 hlineto
          -201 885 rmoveto
          -23 -8 -17 -17 -26 hhcurveto
          -53 -56 40 -64 hhcurveto
          -84 -56 -71 -72 hvcurveto
          81 hlineto
          23 8 17 17 26 hhcurveto
          53 56 -40 64 hhcurveto
          84 56 71 72 hvcurveto
          endchar
        </CharString>
        <CharString name="O">
          66 -12 165 382 165 hstem
          45 226 291 226 vstem
          416 700 rmoveto
          -235 -136 -121 -235 -235 136 -121 235 235 137 121 235 235 -137 121 -235 hvcurveto
          -165 vmoveto
          97 49 -65 -94 hvcurveto
          -64 vlineto
          -94 -49 -65 -97 -97 -48 65 94 vhcurveto
          64 vlineto
          94 48 65 97 vhcurveto
          endchar
        </CharString>
        <CharString name="OE">
          233 -12 165 -153 153 -153 165 105 158 95 165 -153 153 -153 165 hstemhm
          35 209 252 193 hintmask 0011100110000000
          973 hmoveto
          165 -284 105 223 158 -223 95 277 165 -471 vlineto
          hintmask 1001001110000000
          -63 vlineto
          49 -46 -63 26 -77 hhcurveto
          -175 -99 -131 -225 -225 99 -131 175 77 63 26 48 46 hvcurveto
          hintmask 0011100110000000
          -62 vlineto
          1 312 rmoveto
          hintmask 0101010110000000
          -94 -41 -65 -85 -85 -41 65 94 vhcurveto
          64 vlineto
          94 41 65 85 85 41 -65 -94 vhcurveto
          endchar
        </CharString>
        <CharString name="Oacute">
          66 -12 165 382 165 52 133 hstem
          45 226 291 226 vstem
          416 700 rmoveto
          -235 -136 -121 -235 -235 136 -121 235 235 137 121 235 235 -137 121 -235 hvcurveto
          -165 vmoveto
          97 49 -65 -94 hvcurveto
          -64 vlineto
          -94 -49 -65 -97 -97 -48 65 94 vhcurveto
          64 vlineto
          94 48 65 97 vhcurveto
          191 346 rmoveto
          -2 4 rlineto
          -192 hlineto
          -93 -133 rlineto
          128 hlineto
          endchar
        </CharString>
        <CharString name="Obreve">
          66 -12 165 382 165 41 94 hstem
          45 226 291 226 vstem
          416 700 rmoveto
          -235 -136 -121 -235 -235 136 -121 235 235 137 121 235 235 -137 121 -235 hvcurveto
          -165 vmoveto
          97 49 -65 -94 hvcurveto
          -64 vlineto
          -94 -49 -65 -97 -97 -48 65 94 vhcurveto
          64 vlineto
          94 48 65 97 vhcurveto
          90 350 rmoveto
          -21 -4 -36 -29 -50 hhcurveto
          -49 -35 29 21 -4 hvcurveto
          -96 hlineto
          -67 69 -77 115 114 71 77 67 vhcurveto
          endchar
        </CharString>
        <CharString name="Ocircumflex">
          66 -12 165 382 165 40 145 hstem
          45 226 291 226 vstem
          416 700 rmoveto
          -235 -136 -121 -235 -235 136 -121 235 235 137 121 235 235 -137 121 -235 hvcurveto
          -165 vmoveto
          97 49 -65 -94 hvcurveto
          -64 vlineto
          -94 -49 -65 -97 -97 -48 65 94 vhcurveto
          64 vlineto
          94 48 65 97 vhcurveto
          64 350 rmoveto
          -127 hlineto
          -140 -145 rlineto
          128 hlineto
          75 77 74 -77 rlineto
          130 hlineto
          endchar
        </CharString>
        <CharString name="Odieresis">
          66 -12 165 382 165 46 139 hstemhm
          45 226 -41 152 69 152 -41 226 hintmask 11110010
          416 700 rmoveto
          -235 -136 -121 -235 -235 136 -121 235 235 137 121 235 235 -137 121 -235 hvcurveto
          -165 vmoveto
          97 49 -65 -94 hvcurveto
          -64 vlineto
          -94 -49 -65 -97 -97 -48 65 94 vhcurveto
          64 vlineto
          94 48 65 97 vhcurveto
          hintmask 11101100
          187 350 rmoveto
          -152 -139 152 hlineto
          -221 139 rmoveto
          -152 -139 152 hlineto
          endchar
        </CharString>
        <CharString name="Ograve">
          66 -12 165 382 165 52 133 hstem
          45 226 291 226 vstem
          416 700 rmoveto
          -235 -136 -121 -235 -235 136 -121 235 235 137 121 235 235 -137 121 -235 hvcurveto
          -165 vmoveto
          97 49 -65 -94 hvcurveto
          -64 vlineto
          -94 -49 -65 -97 -97 -48 65 94 vhcurveto
          64 vlineto
          94 48 65 97 vhcurveto
          97 217 rmoveto
          -93 133 rlineto
          -192 hlineto
          -2 -4 160 -129 rlineto
          endchar
        </CharString>
        <CharString name="Ohungarumlaut">
          66 -12 165 382 165 52 134 hstem
          45 226 291 226 vstem
          416 700 rmoveto
          -235 -136 -121 -235 -235 136 -121 235 235 137 121 235 235 -137 121 -235 hvcurveto
          -165 vmoveto
          97 49 -65 -94 hvcurveto
          -64 vlineto
          -94 -49 -65 -97 -97 -48 65 94 vhcurveto
          64 vlineto
          94 48 65 97 vhcurveto
          84 351 rmoveto
          -178 hlineto
          -76 -134 rlineto
          117 hlineto
          139 130 rlineto
          209 4 rmoveto
          -178 hlineto
          -76 -134 rlineto
          117 hlineto
          139 130 rlineto
          endchar
        </CharString>
        <CharString name="Omacron">
          66 -12 165 382 165 65 100 hstemhm
          45 226 -13 317 -13 226 hintmask 11110100
          416 700 rmoveto
          -235 -136 -121 -235 -235 136 -121 235 235 137 121 235 235 -137 121 -235 hvcurveto
          -165 vmoveto
          97 49 -65 -94 hvcurveto
          -64 vlineto
          -94 -49 -65 -97 -97 -48 65 94 vhcurveto
          64 vlineto
          94 48 65 97 vhcurveto
          hintmask 11101000
          159 330 rmoveto
          -317 -100 317 hlineto
          endchar
        </CharString>
        <CharString name="Omega">
          87 0 166 369 165 hstemhm
          31 336 -310 226 205 336 -250 225 hintmask 11010100
          427 700 rmoveto
          -230 -140 -121 -193 -101 44 -81 61 -58 hvcurveto
          hintmask 11100100
          -120 20 rlineto
          -11 -166 336 147 hlineto
          hintmask 11010100
          -57 23 -27 54 72 vvcurveto
          80 vlineto
          94 48 65 96 97 50 -65 -94 vhcurveto
          -80 vlineto
          -72 -29 -55 -57 -22 vhcurveto
          hintmask 11011000
          -147 vlineto
          hintmask 11010100
          336 166 -12 hlineto
          -120 -20 rlineto
          62 58 45 81 101 vvcurveto
          193 -141 121 -231 vhcurveto
          endchar
        </CharString>
        <CharString name="Oslash">
          66 -12 165 382 165 -88 113 0 -20 hstemhm
          45 226 291 226 hintmask 10011100
          779 725 rmoveto
          -108 hlineto
          hintmask 11001100
          -53 -66 rlineto
          27 -56 -67 14 -79 hhcurveto
          -235 -136 -121 -235 -119 35 -90 64 -59 hvcurveto
          -90 -112 rlineto
          108 hlineto
          52 64 rlineto
          -27 55 68 -13 79 hhcurveto
          235 137 121 235 hvcurveto
          hintmask 10101100
          119 -35 90 -66 59 vhcurveto
          -136 -168 rmoveto
          7 -20 4 -23 -25 vvcurveto
          -64 vlineto
          -94 -49 -65 -97 -34 -27 8 14 -22 vhcurveto
          hintmask 11001100
          83 360 rmoveto
          33 28 -8 -14 22 hvcurveto
          -218 -269 rlineto
          -7 20 -3 23 25 vvcurveto
          64 vlineto
          94 48 65 97 vhcurveto
          endchar
        </CharString>
        <CharString name="Oslashacute">
          66 -12 165 382 165 -88 113 0 -20 47 133 hstemhm
          45 226 291 226 hintmask 10011110
          779 725 rmoveto
          -108 hlineto
          hintmask 11001110
          -53 -66 rlineto
          27 -56 -67 14 -79 hhcurveto
          -235 -136 -121 -235 -119 35 -90 64 -59 hvcurveto
          -90 -112 rlineto
          108 hlineto
          52 64 rlineto
          -27 55 68 -13 79 hhcurveto
          235 137 121 235 hvcurveto
          hintmask 10101110
          119 -35 90 -66 59 vhcurveto
          -136 -168 rmoveto
          7 -20 4 -23 -25 vvcurveto
          -64 vlineto
          -94 -49 -65 -97 -34 -27 8 14 -22 vhcurveto
          hintmask 11001110
          83 360 rmoveto
          33 28 -8 -14 22 hvcurveto
          -218 -269 rlineto
          -7 20 -3 23 25 vvcurveto
          64 vlineto
          94 48 65 97 vhcurveto
          191 346 rmoveto
          -2 4 rlineto
          -192 hlineto
          -93 -133 rlineto
          128 hlineto
          endchar
        </CharString>
        <CharString name="Otilde">
          66 -12 165 382 165 42 143 hstem
          45 226 291 226 vstem
          416 700 rmoveto
          -235 -136 -121 -235 -235 136 -121 235 235 137 121 235 235 -137 121 -235 hvcurveto
          -165 vmoveto
          97 49 -65 -94 hvcurveto
          -64 vlineto
          -94 -49 -65 -97 -97 -48 65 94 vhcurveto
          64 vlineto
          94 48 65 97 vhcurveto
          142 350 rmoveto
          -23 -8 -17 -17 -26 hhcurveto
          -53 -56 40 -64 hhcurveto
          -84 -56 -71 -72 hvcurveto
          81 hlineto
          23 8 17 17 26 hhcurveto
          53 56 -40 64 hhcurveto
          84 56 71 72 hvcurveto
          endchar
        </CharString>
        <CharString name="P">
          -45 21 -21 222 161 142 163 hstem
          74 221 161 224 vstem
          74 688 rmoveto
          -688 221 222 165 vlineto
          130 90 97 130 hvcurveto
          13 vlineto
          130 -90 96 -130 vhcurveto
          -74 -163 rmoveto
          48 22 -26 -41 hvcurveto
          -8 vlineto
          -41 -23 -26 -47 vhcurveto
          -91 142 hlineto
          endchar
        </CharString>
        <CharString name="Q">
          66 -131 284 382 165 hstem
          45 226 291 226 vstem
          45 344 rmoveto
          -232 132 -120 229 -4 vhcurveto
          106 -119 rlineto
          263 hlineto
          -157 159 rlineto
          109 54 61 106 156 vvcurveto
          235 -137 121 -235 -235 -136 -121 -235 vhcurveto
          517 -32 rmoveto
          -94 -49 -65 -97 -97 -48 65 94 vhcurveto
          64 vlineto
          94 48 65 97 97 49 -65 -94 vhcurveto
          endchar
        </CharString>
        <CharString name="R">
          11 21 -21 251 153 127 157 hstem
          74 221 207 225 vstem
          727 477 rmoveto
          112 -79 99 -153 vhcurveto
          -421 -688 221 251 82 hlineto
          122 -251 rlineto
          248 hlineto
          -153 288 rlineto
          89 33 44 76 80 vvcurveto
          -225 -9 rmoveto
          -37 -28 -27 -34 vhcurveto
          -145 127 145 hlineto
          34 28 -26 -37 hvcurveto
          endchar
        </CharString>
        <CharString name="Racute">
          11 21 -21 251 153 127 157 64 133 hstem
          74 221 207 225 vstem
          569 881 rmoveto
          -2 4 rlineto
          -193 hlineto
          -92 -133 rlineto
          127 hlineto
          318 -275 rmoveto
          112 -79 99 -153 vhcurveto
          -421 -688 221 251 82 hlineto
          122 -251 rlineto
          248 hlineto
          -153 288 rlineto
          89 33 44 76 80 vvcurveto
          -225 -9 rmoveto
          -37 -28 -27 -34 vhcurveto
          -145 127 145 hlineto
          34 28 -26 -37 hvcurveto
          endchar
        </CharString>
        <CharString name="Rcaron">
          11 21 -21 251 153 127 157 52 145 hstem
          74 221 207 225 vstem
          592 885 rmoveto
          -130 hlineto
          -74 -77 -74 77 rlineto
          -128 hlineto
          139 -145 rlineto
          128 hlineto
          274 -263 rmoveto
          112 -79 99 -153 vhcurveto
          -421 -688 221 251 82 hlineto
          122 -251 rlineto
          248 hlineto
          -153 288 rlineto
          89 33 44 76 80 vvcurveto
          -225 -9 rmoveto
          -37 -28 -27 -34 vhcurveto
          -145 127 145 hlineto
          34 28 -26 -37 hvcurveto
          endchar
        </CharString>
        <CharString name="Rcommaaccent">
          11 -175 116 80 -21 251 153 127 157 hstemhm
          74 221 29 130 48 225 hintmask 11111110
          454 -59 rmoveto
          -130 -116 50 hlineto
          -41 -92 rlineto
          67 hlineto
          54 99 rlineto
          273 645 rmoveto
          112 -79 99 -153 vhcurveto
          hintmask 11111000
          -421 -688 221 251 82 hlineto
          122 -251 rlineto
          248 hlineto
          -153 288 rlineto
          hintmask 11111110
          89 33 44 76 80 vvcurveto
          hintmask 11111010
          -225 -9 rmoveto
          -37 -28 -27 -34 vhcurveto
          -145 127 145 hlineto
          34 28 -26 -37 hvcurveto
          endchar
        </CharString>
        <CharString name="S">
          -45 -12 158 110.850006104 178.130004883 115.020004272 150 hstemhm
          43 209 -198 226 180 207 -207 226 hintmask 11101100
          363 700 rmoveto
          -163 -146 -60 -160 hvcurveto
          hintmask 11101010
          -268 406 79 -99 vvcurveto
          -43 -57 -3 -40 vhcurveto
          hintmask 11110010
          -68 -43 13 74 hvcurveto
          -209 hlineto
          -196 147 -49 193 173 130 69 171 vhcurveto
          hintmask 11101010
          -5 255 -401 -81 103 vvcurveto
          24 30 21 61 vhcurveto
          hintmask 11101100
          64 25 -34 -36 hvcurveto
          -4 207 12 vlineto
          147 -3 -135 65 -166 hhcurveto
          endchar
        </CharString>
        <CharString name="Sacute">
          -45 -12 158 110.850006104 178.130004883 115.020004272 150 52 133 hstemhm
          43 209 -198 226 180 207 -207 226 hintmask 11110110
          363 700 rmoveto
          -163 -146 -60 -160 hvcurveto
          hintmask 11110101
          -268 406 79 -99 vvcurveto
          -43 -57 -3 -40 vhcurveto
          hintmask 11111001
          -68 -43 13 74 hvcurveto
          -209 hlineto
          -196 147 -49 193 173 130 69 171 vhcurveto
          hintmask 11110101
          -5 255 -401 -81 103 vvcurveto
          24 30 21 61 vhcurveto
          hintmask 11110110
          64 25 -34 -36 hvcurveto
          -4 207 12 vlineto
          147 -3 -135 65 -166 hhcurveto
          189 181 rmoveto
          -2 4 rlineto
          -193 hlineto
          -92 -133 rlineto
          128 hlineto
          endchar
        </CharString>
        <CharString name="Scaron">
          -45 -12 158 110.850006104 178.130004883 115.020004272 150 40 145 hstemhm
          43 209 -198 226 180 207 -207 226 hintmask 11110110
          363 700 rmoveto
          -163 -146 -60 -160 hvcurveto
          hintmask 11110101
          -268 406 79 -99 vvcurveto
          -43 -57 -3 -40 vhcurveto
          hintmask 11111001
          -68 -43 13 74 hvcurveto
          -209 hlineto
          -196 147 -49 193 173 130 69 171 vhcurveto
          hintmask 11110101
          -5 255 -401 -81 103 vvcurveto
          24 30 21 61 vhcurveto
          hintmask 11110110
          64 25 -34 -36 hvcurveto
          -4 207 12 vlineto
          147 -3 -135 65 -166 hhcurveto
          201 185 rmoveto
          -129 hlineto
          -75 -77 -74 77 rlineto
          -128 hlineto
          139 -145 rlineto
          128 hlineto
          endchar
        </CharString>
        <CharString name="Scedilla">
          -45 -211 62 63 57 18 157 110.850006104 178.130004883 115.020004272 150 hstemhm
          43 209 -198 226 116 87 -23 207 -207 226 hintmask 1011101010000000
          363 700 rmoveto
          -163 -146 -60 -160 hvcurveto
          hintmask 1011101001000000
          -268 406 79 -99 vvcurveto
          -43 -57 -3 -40 vhcurveto
          hintmask 1011110100000000
          -68 -43 13 74 hvcurveto
          -209 hlineto
          -178 122 -57 167 -9 vhcurveto
          hintmask 1111101100000000
          -12 -75 rlineto
          38 hlineto
          29 9 -12 -20 -23 -16 -8 -24 -52 -65 8 0 hvcurveto
          -54 vlineto
          -10 30 50 -6 46 hhcurveto
          47 71 17 76 62 -44 22 -48 5 hvcurveto
          hintmask 1011101100000000
          2 17 rlineto
          hintmask 1011101001000000
          168 3 125 70 167 vvcurveto
          -5 255 -401 -81 103 vvcurveto
          24 30 21 61 vhcurveto
          hintmask 1011101010000000
          64 25 -34 -36 hvcurveto
          -4 207 12 vlineto
          147 -3 -135 65 -166 hhcurveto
          endchar
        </CharString>
        <CharString name="Scircumflex">
          -45 -12 158 110.850006104 178.130004883 115.020004272 150 40 145 hstemhm
          43 209 -198 226 180 207 -207 226 hintmask 11110110
          363 700 rmoveto
          -163 -146 -60 -160 hvcurveto
          hintmask 11110101
          -268 406 79 -99 vvcurveto
          -43 -57 -3 -40 vhcurveto
          hintmask 11111001
          -68 -43 13 74 hvcurveto
          -209 hlineto
          -196 147 -49 193 173 130 69 171 vhcurveto
          hintmask 11110101
          -5 255 -401 -81 103 vvcurveto
          24 30 21 61 vhcurveto
          hintmask 11110110
          64 25 -34 -36 hvcurveto
          -4 207 12 vlineto
          147 -3 -135 65 -166 hhcurveto
          hintmask 11110101
          62 185 rmoveto
          -128 hlineto
          -139 -145 rlineto
          128 hlineto
          74 77 75 -77 rlineto
          129 hlineto
          endchar
        </CharString>
        <CharString name="T">
          -45 21 -21 512 176 hstem
          249 221 vstem
          695 688 rmoveto
          -672 -176 226 -512 221 512 225 hlineto
          endchar
        </CharString>
        <CharString name="Tbar">
          -45 21 -21 269 100 143 176 hstem
          249 221 vstem
          632 369 rmoveto
          -162 143 225 176 -672 -176 226 -143 -163 -100 163 -269 221 269 162 hlineto
          endchar
        </CharString>
        <CharString name="Tcaron">
          -45 21 -21 512 176 52 145 hstem
          249 221 vstem
          695 688 rmoveto
          -672 -176 226 -512 221 512 225 hlineto
          -131 373 rmoveto
          -129 hlineto
          -75 -77 -74 77 rlineto
          -128 hlineto
          139 -145 rlineto
          128 hlineto
          endchar
        </CharString>
        <CharString name="Tcommaaccent">
          -45 -175 116 80 -21 512 176 hstemhm
          249 221 -174 130 hintmask 11110000
          695 688 rmoveto
          -672 -176 226 -512 221 512 225 hlineto
          hintmask 11101000
          -269 -571 rmoveto
          -130 -116 50 hlineto
          -41 -92 rlineto
          67 hlineto
          54 99 rlineto
          endchar
        </CharString>
        <CharString name="Thorn">
          -45 21 -21 122 161 142 163 100 -20 hstem
          74 221 161 224 vstem
          295 688 rmoveto
          -221 -688 221 122 165 hlineto
          130 90 97 130 hvcurveto
          13 vlineto
          130 -90 96 -130 vhcurveto
          -165 hlineto
          91 -163 rmoveto
          48 22 -26 -41 hvcurveto
          -8 vlineto
          -41 -23 -26 -47 vhcurveto
          -91 142 hlineto
          endchar
        </CharString>
        <CharString name="U">
          66 -12 165 535 -20 hstem
          74 221 243 221 vstem
          759 688 rmoveto
          -221 -408 hlineto
          -74 -41 -53 -81 -81 -40 53 74 vhcurveto
          408 -221 -411 vlineto
          -190 127 -99 216 216 126 99 190 vhcurveto
          endchar
        </CharString>
        <CharString name="Uacute">
          66 -12 165 535 -20 84 133 hstem
          74 221 243 221 vstem
          759 688 rmoveto
          -221 -408 hlineto
          -74 -41 -53 -81 -81 -40 53 74 vhcurveto
          408 -221 -411 vlineto
          -190 127 -99 216 216 126 99 190 vhcurveto
          -152 604 rmoveto
          -2 4 rlineto
          -192 hlineto
          -93 -133 rlineto
          128 hlineto
          endchar
        </CharString>
        <CharString name="Ubreve">
          66 -12 165 535 -20 73 94 hstem
          74 221 243 221 vstem
          759 688 rmoveto
          -221 -408 hlineto
          -74 -41 -53 -81 -81 -40 53 74 vhcurveto
          408 -221 -411 vlineto
          -190 127 -99 216 216 126 99 190 vhcurveto
          -253 608 rmoveto
          -21 -4 -36 -29 -50 hhcurveto
          -49 -35 29 21 -4 hvcurveto
          -96 hlineto
          -67 69 -77 115 114 71 77 67 vhcurveto
          endchar
        </CharString>
        <CharString name="Ucircumflex">
          66 -12 165 535 -20 72 145 hstem
          74 221 243 221 vstem
          759 688 rmoveto
          -221 -408 hlineto
          -74 -41 -53 -81 -81 -40 53 74 vhcurveto
          408 -221 -411 vlineto
          -190 127 -99 216 216 126 99 190 vhcurveto
          -279 608 rmoveto
          -127 hlineto
          -140 -145 rlineto
          128 hlineto
          75 77 74 -77 rlineto
          130 hlineto
          endchar
        </CharString>
        <CharString name="Udieresis">
          66 -12 165 535 -20 78 139 hstemhm
          74 221 -65 152 69 152 -65 221 hintmask 11110010
          759 688 rmoveto
          -221 -408 hlineto
          -74 -41 -53 -81 -81 -40 53 74 vhcurveto
          408 -221 -411 vlineto
          -190 127 -99 216 216 126 99 190 vhcurveto
          -156 608 rmoveto
          hintmask 11110100
          -152 -139 hlineto
          hintmask 11101010
          152 hlineto
          -221 139 rmoveto
          hintmask 11110010
          -152 -139 hlineto
          hintmask 11101010
          152 hlineto
          endchar
        </CharString>
        <CharString name="Ugrave">
          66 -12 165 535 -20 84 133 hstem
          74 221 243 221 vstem
          759 688 rmoveto
          -221 -408 hlineto
          -74 -41 -53 -81 -81 -40 53 74 vhcurveto
          408 -221 -411 vlineto
          -190 127 -99 216 216 126 99 190 vhcurveto
          -246 475 rmoveto
          -93 133 rlineto
          -192 hlineto
          -2 -4 160 -129 rlineto
          endchar
        </CharString>
        <CharString name="Uhungarumlaut">
          66 -12 165 535 -20 84 134 hstem
          74 221 243 221 vstem
          759 688 rmoveto
          -221 -408 hlineto
          -74 -41 -53 -81 -81 -40 53 74 vhcurveto
          408 -221 -411 vlineto
          -190 127 -99 216 216 126 99 190 vhcurveto
          -259 609 rmoveto
          -178 hlineto
          -76 -134 rlineto
          117 hlineto
          139 130 rlineto
          209 4 rmoveto
          -178 hlineto
          -76 -134 rlineto
          117 hlineto
          139 130 rlineto
          endchar
        </CharString>
        <CharString name="Umacron">
          66 -12 165 535 -20 97 100 hstem
          74 221 243 221 vstem
          759 688 rmoveto
          -221 -408 hlineto
          -74 -41 -53 -81 -81 -40 53 74 vhcurveto
          408 -221 -411 vlineto
          -190 127 -99 216 216 126 99 190 vhcurveto
          -184 588 rmoveto
          -317 -100 317 hlineto
          endchar
        </CharString>
        <CharString name="Uogonek">
          66 -211 91 108 165 535 -20 hstemhm
          74 221 129 222 -108 221 hintmask 11110100
          759 688 rmoveto
          -221 -408 hlineto
          -74 -41 -53 -81 -81 -40 53 74 vhcurveto
          408 -221 -411 vlineto
          -190 127 -99 216 vhcurveto
          hintmask 11111000
          13 13 0 1 13 hvcurveto
          -18 -23 -14 -27 -36 vvcurveto
          -82 62 -32 64 33 32 5 10 31 vhcurveto
          76 -42 vlineto
          -45 -15 25 26 29 12 33 7 14 hvcurveto
          hintmask 11110100
          125 37 71 91 142 vvcurveto
          endchar
        </CharString>
        <CharString name="Uring">
          66 -12 165 535 -20 69 68 80 69 hstemhm
          74 221 13 68 81 68 13 221 hintmask 11111001
          759 688 rmoveto
          -221 -408 hlineto
          -74 -41 -53 -81 -81 -40 53 74 vhcurveto
          408 -221 -411 vlineto
          -190 127 -99 216 216 126 99 190 vhcurveto
          hintmask 11111111
          -342 677 rmoveto
          -61 -48 -49 -60 -60 49 -48 60 60 48 49 59 61 -49 48 -59 hvcurveto
          -69 vmoveto
          22 18 -16 -23 -24 -17 -17 -23 -23 -18 16 23 24 17 17 24 hvcurveto
          endchar
        </CharString>
        <CharString name="Utilde">
          66 -12 165 535 -20 74 143 hstem
          74 221 243 221 vstem
          759 688 rmoveto
          -221 -408 hlineto
          -74 -41 -53 -81 -81 -40 53 74 vhcurveto
          408 -221 -411 vlineto
          -190 127 -99 216 216 126 99 190 vhcurveto
          -201 608 rmoveto
          -23 -8 -17 -17 -26 hhcurveto
          -53 -56 40 -64 hhcurveto
          -84 -56 -71 -72 hvcurveto
          81 hlineto
          23 8 17 17 26 hhcurveto
          53 56 -40 64 hhcurveto
          84 56 71 72 hvcurveto
          endchar
        </CharString>
        <CharString name="V">
          11 21 -21 688 -20 hstem
          17 743 vstem
          760 688 rmoveto
          -226 hlineto
          -139 -460 rlineto
          -4 hlineto
          -138 460 rlineto
          -236 hlineto
          244 -688 rlineto
          256 hlineto
          endchar
        </CharString>
        <CharString name="W">
          233 21 -21 688 -20 hstem
          5 990 vstem
          995 688 rmoveto
          -220 hlineto
          -74 -390 rlineto
          -4 hlineto
          -83 390 rlineto
          -218 hlineto
          -78 -390 rlineto
          -4 hlineto
          -79 390 rlineto
          -230 hlineto
          161 -688 rlineto
          243 hlineto
          89 419 rlineto
          4 hlineto
          89 -419 rlineto
          243 hlineto
          endchar
        </CharString>
        <CharString name="Wacute">
          233 21 -21 688 -20 84 133 hstem
          5 990 vstem
          834 hmoveto
          161 688 rlineto
          -220 hlineto
          -74 -390 rlineto
          -4 hlineto
          -83 390 rlineto
          -218 hlineto
          -78 -390 rlineto
          -4 hlineto
          -79 390 rlineto
          -230 hlineto
          161 -688 rlineto
          243 hlineto
          89 419 rlineto
          4 hlineto
          89 -419 rlineto
          100 881 rmoveto
          -2 4 rlineto
          -193 hlineto
          -92 -133 rlineto
          127 hlineto
          endchar
        </CharString>
        <CharString name="Wcircumflex">
          233 21 -21 688 -20 72 145 hstem
          5 990 vstem
          995 688 rmoveto
          -220 hlineto
          -74 -390 rlineto
          -4 hlineto
          -83 390 rlineto
          -218 hlineto
          -78 -390 rlineto
          -4 hlineto
          -79 390 rlineto
          -230 hlineto
          161 -688 rlineto
          243 hlineto
          89 419 rlineto
          4 hlineto
          89 -419 rlineto
          243 hlineto
          -270 885 rmoveto
          -128 hlineto
          -139 -145 rlineto
          128 hlineto
          74 77 74 -77 rlineto
          130 hlineto
          endchar
        </CharString>
        <CharString name="Wdieresis">
          233 21 -21 688 -20 78 139 hstem
          314 152 68 152 vstem
          995 688 rmoveto
          -220 hlineto
          -74 -390 rlineto
          -4 hlineto
          -83 390 rlineto
          -218 hlineto
          -78 -390 rlineto
          -4 hlineto
          -79 390 rlineto
          -230 hlineto
          161 -688 rlineto
          243 hlineto
          89 419 rlineto
          4 hlineto
          89 -419 rlineto
          243 hlineto
          -148 885 rmoveto
          -152 -139 152 hlineto
          -220 139 rmoveto
          -152 -139 152 hlineto
          endchar
        </CharString>
        <CharString name="Wgrave">
          233 21 -21 688 -20 84 133 hstem
          5 990 vstem
          834 hmoveto
          161 688 rlineto
          -220 hlineto
          -74 -390 rlineto
          -4 hlineto
          -83 390 rlineto
          -218 hlineto
          -78 -390 rlineto
          -4 hlineto
          -79 390 rlineto
          -230 hlineto
          161 -688 rlineto
          243 hlineto
          89 419 rlineto
          4 hlineto
          89 -419 rlineto
          5 752 rmoveto
          -92 133 rlineto
          -193 hlineto
          -2 -4 160 -129 rlineto
          endchar
        </CharString>
        <CharString name="X">
          11 21 -21 688 -20 hstem
          4 774 vstem
          755 688 rmoveto
          -247 hlineto
          -105 -176 rlineto
          -4 hlineto
          -104 176 rlineto
          -267 hlineto
          222 -324 -246 -364 rlineto
          248 hlineto
          127 214 rlineto
          4 hlineto
          127 -214 rlineto
          268 hlineto
          -246 363 rlineto
          endchar
        </CharString>
        <CharString name="Y">
          11 21 -21 688 -20 hstem
          280 221 vstem
          770 688 rmoveto
          -241 hlineto
          -132 -229 rlineto
          -4 hlineto
          -132 229 rlineto
          -254 hlineto
          273 -421 rlineto
          -267 221 267 vlineto
          endchar
        </CharString>
        <CharString name="Yacute">
          11 21 -21 688 -20 84 133 hstem
          280 221 vstem
          501 267 rmoveto
          269 421 rlineto
          -241 hlineto
          -132 -229 rlineto
          -4 hlineto
          -132 229 rlineto
          -254 hlineto
          273 -421 rlineto
          -267 221 vlineto
          79 881 rmoveto
          -2 4 rlineto
          -193 hlineto
          -92 -133 rlineto
          127 hlineto
          endchar
        </CharString>
        <CharString name="Ycircumflex">
          11 21 -21 688 -20 72 145 hstem
          280 221 vstem
          770 688 rmoveto
          -241 hlineto
          -132 -229 rlineto
          -4 hlineto
          -132 229 rlineto
          -254 hlineto
          273 -421 rlineto
          -267 221 267 vlineto
          -48 618 rmoveto
          -128 hlineto
          -139 -145 rlineto
          128 hlineto
          74 77 74 -77 rlineto
          130 hlineto
          endchar
        </CharString>
        <CharString name="Ydieresis">
          11 21 -21 688 -20 78 139 hstemhm
          203 152 -75 221 -78 152 hintmask 11101000
          770 688 rmoveto
          -241 hlineto
          -132 -229 rlineto
          -4 hlineto
          -132 229 rlineto
          -254 hlineto
          273 -421 rlineto
          -267 221 267 vlineto
          hintmask 11110100
          74 618 rmoveto
          -152 -139 152 hlineto
          -220 139 rmoveto
          -152 -139 152 hlineto
          endchar
        </CharString>
        <CharString name="Ygrave">
          11 21 -21 688 -20 84 133 hstem
          280 221 vstem
          501 267 rmoveto
          269 421 rlineto
          -241 hlineto
          -132 -229 rlineto
          -4 hlineto
          -132 229 rlineto
          -254 hlineto
          273 -421 rlineto
          -267 221 vlineto
          -16 752 rmoveto
          -92 133 rlineto
          -193 hlineto
          -2 -4 160 -129 rlineto
          endchar
        </CharString>
        <CharString name="Z">
          -45 0 165 358 165 hstem
          24 667 vstem
          683 688 rmoveto
          -635 -165 295 hlineto
          -319 -452 rlineto
          -71 667 165 -327 vlineto
          319 452 rlineto
          endchar
        </CharString>
        <CharString name="Zacute">
          -45 0 165 358 165 64 133 hstem
          24 667 vstem
          683 617 rmoveto
          71 -635 -165 295 vlineto
          -319 -452 rlineto
          -71 667 165 -327 vlineto
          188 716 rmoveto
          -2 4 rlineto
          -193 hlineto
          -92 -133 rlineto
          128 hlineto
          endchar
        </CharString>
        <CharString name="Zcaron">
          -45 0 165 358 165 52 145 hstem
          24 667 vstem
          683 688 rmoveto
          -635 -165 295 hlineto
          -319 -452 rlineto
          -71 667 165 -327 vlineto
          319 452 rlineto
          -119 268 rmoveto
          -129 hlineto
          -75 -77 -74 77 rlineto
          -128 hlineto
          139 -145 rlineto
          128 hlineto
          endchar
        </CharString>
        <CharString name="Zdotaccent">
          -45 0 165 358 165 58 139 hstem
          285 152 vstem
          683 688 rmoveto
          -635 -165 295 hlineto
          -319 -452 rlineto
          -71 667 165 -327 vlineto
          319 452 rlineto
          -246 268 rmoveto
          -152 -139 152 hlineto
          endchar
        </CharString>
        <CharString name="a">
          -100 -12 124 -124 135 107 94 39 177 -127 127 hstemhm
          30 199 -184 197 153 199 hintmask 10110101
          321 540 rmoveto
          hintmask 10110011
          -181 -95 -66 -97 -5 0 -4 1 -5 hvcurveto
          196 4 hlineto
          hintmask 10101011
          35 41 11 35 43 34 -20 -43 vhcurveto
          -26 vlineto
          hintmask 10110101
          -231 -134 -30 -158 -110 76 -38 110 92 59 31 35 44 hvcurveto
          -40 18 49 -26 80 hhcurveto
          67 37 20 0 hvcurveto
          hintmask 01110101
          115 -36 vlineto
          -22 -10 17 22 hvcurveto
          206 vlineto
          hintmask 10110101
          130 -128 42 -145 vhcurveto
          74 -355 rmoveto
          -43 -47 -30 -51 -34 -34 9 41 39 48 29 118 vhcurveto
          endchar
        </CharString>
        <CharString name="aacute">
          -100 -12 124 -124 135 107 94 39 177 -127 127 52 133 hstemhm
          30 199 -184 197 153 199 hintmask 1011011010000000
          321 540 rmoveto
          hintmask 1011010110000000
          -181 -95 -66 -97 -5 0 -4 1 -5 hvcurveto
          196 4 hlineto
          hintmask 1010110110000000
          35 41 11 35 43 34 -20 -43 vhcurveto
          -26 vlineto
          hintmask 1011011010000000
          -231 -134 -30 -158 -110 76 -38 110 92 59 31 35 44 hvcurveto
          -40 18 49 -26 80 hhcurveto
          67 37 20 0 hvcurveto
          hintmask 0111011010000000
          115 -36 vlineto
          -22 -10 17 22 hvcurveto
          206 vlineto
          hintmask 1011011010000000
          130 -128 42 -145 vhcurveto
          74 -355 rmoveto
          -43 -47 -30 -51 -34 -34 9 41 39 48 29 118 vhcurveto
          117 491 rmoveto
          -2 4 rlineto
          -193 hlineto
          -92 -133 rlineto
          128 hlineto
          endchar
        </CharString>
        <CharString name="abreve">
          -100 -12 124 -124 135 107 94 39 177 -127 127 41 94 -94 144 hstemhm
          30 199 -184 197 153 199 hintmask 1011001101000000
          321 540 rmoveto
          hintmask 1011001011000000
          -181 -95 -66 -97 -5 0 -4 1 -5 hvcurveto
          196 4 hlineto
          hintmask 1010101011000000
          35 41 11 35 43 34 -20 -43 vhcurveto
          -26 vlineto
          hintmask 1011001101000000
          -231 -134 -30 -158 -110 76 -38 110 92 59 31 35 44 hvcurveto
          -40 18 49 -26 80 hhcurveto
          67 37 20 0 hvcurveto
          hintmask 0111001101000000
          115 -36 vlineto
          -22 -10 17 22 hvcurveto
          206 vlineto
          hintmask 1011001101000000
          130 -128 42 -145 vhcurveto
          74 -355 rmoveto
          -43 -47 -30 -51 -34 -34 9 41 39 48 29 118 vhcurveto
          28 495 rmoveto
          hintmask 1011010101000000
          -21 -4 -36 -29 -50 hhcurveto
          -24 -21 7 10 -16 hvcurveto
          hintmask 1011001101000000
          -15 10 -10 13 -2 10 rrcurveto
          -96 hlineto
          -67 69 -77 115 114 71 77 67 vhcurveto
          endchar
        </CharString>
        <CharString name="acircumflex">
          -100 -12 124 -124 135 107 94 39 177 -127 127 40 145 -68 68 hstemhm
          30 199 -184 197 153 199 hintmask 1011010101000000
          321 540 rmoveto
          hintmask 1011010011000000
          -181 -95 -66 -97 -5 0 -4 1 -5 hvcurveto
          196 4 hlineto
          hintmask 1010110011000000
          35 41 11 35 43 34 -20 -43 vhcurveto
          -26 vlineto
          hintmask 1011010101000000
          -231 -134 -30 -158 -110 76 -38 110 92 59 31 35 44 hvcurveto
          -40 18 49 -26 80 hhcurveto
          67 37 20 0 hvcurveto
          hintmask 0111010101000000
          115 -36 vlineto
          -22 -10 17 22 hvcurveto
          206 vlineto
          hintmask 1011010101000000
          130 -128 42 -145 vhcurveto
          74 -355 rmoveto
          -43 -47 -30 -51 -34 -34 9 41 39 48 29 118 vhcurveto
          2 495 rmoveto
          -127 hlineto
          -140 -145 rlineto
          128 hlineto
          hintmask 1011001101000000
          75 77 rlineto
          hintmask 1011010101000000
          74 -77 rlineto
          130 hlineto
          endchar
        </CharString>
        <CharString name="acute">
          -434 592 133 hstem
          30 287 vstem
          315 725 rmoveto
          -193 hlineto
          -92 -133 rlineto
          127 hlineto
          160 129 rlineto
          endchar
        </CharString>
        <CharString name="adieresis">
          -100 -12 124 -124 135 107 94 39 177 -127 127 46 139 hstemhm
          30 199 -184 197 -95 152 69 152 -125 199 hintmask 1011011000100000
          321 540 rmoveto
          hintmask 1011010100100000
          -181 -95 -66 -97 -5 0 -4 1 -5 hvcurveto
          196 4 hlineto
          hintmask 1010110100100000
          35 41 11 35 43 34 -20 -43 vhcurveto
          -26 vlineto
          hintmask 1011011000100000
          -231 -134 -30 -158 -110 76 -38 110 92 59 31 35 44 hvcurveto
          -40 18 49 -26 80 hhcurveto
          67 37 20 0 hvcurveto
          hintmask 0111011000100000
          115 -36 vlineto
          -22 -10 17 22 hvcurveto
          206 vlineto
          hintmask 1011011000100000
          130 -128 42 -145 vhcurveto
          74 -355 rmoveto
          -43 -47 -30 -51 -34 -34 9 41 39 48 29 118 vhcurveto
          hintmask 1011010011000000
          125 495 rmoveto
          -152 -139 152 hlineto
          -221 139 rmoveto
          -152 -139 152 hlineto
          endchar
        </CharString>
        <CharString name="ae">
          233 -12 124 -124 127 115 94 39 177 -127 127 hstemhm
          30 199 -184 197 153 201 175 201 -193 193 hintmask 0110110110000000
          694 540 rmoveto
          -68 -60 -16 -32 -48 hvcurveto
          35 -50 -72 13 -75 hhcurveto
          hintmask 0110101110000000
          -181 -95 -66 -97 hvcurveto
          hintmask 0111001110000000
          -5 0 -4 1 -5 vhcurveto
          196 4 hlineto
          hintmask 0110101110000000
          35 43 11 37 41 32 -20 -43 vhcurveto
          -26 vlineto
          hintmask 0110110101000000
          -232 -133 -29 -149 -122 87 -36 139 94 71 35 38 51 hvcurveto
          -50 53 81 -23 100 hhcurveto
          176 90 78 126 hvcurveto
          -193 hlineto
          -43 -23 -34 -64 -69 -27 42 73 vhcurveto
          hintmask 0110110110000000
          376 34 hlineto
          190 -100 86 -178 vhcurveto
          hintmask 1010110110000000
          -299 -355 rmoveto
          -43 -47 -30 -51 -34 -34 9 41 39 48 29 118 vhcurveto
          293 183 rmoveto
          53 30 -34 -55 hvcurveto
          -174 hlineto
          55 6 27 34 58 hhcurveto
          endchar
        </CharString>
        <CharString name="aeacute">
          233 -12 124 -124 127 115 94 39 177 -127 127 52 133 hstemhm
          30 199 -184 197 153 201 175 201 -193 193 hintmask 0110111011000000
          694 540 rmoveto
          -68 -60 -16 -32 -48 hvcurveto
          35 -50 -72 13 -75 hhcurveto
          hintmask 0110110111000000
          -181 -95 -66 -97 hvcurveto
          hintmask 0111010111000000
          -5 0 -4 1 -5 vhcurveto
          196 4 hlineto
          hintmask 0110110111000000
          35 43 11 37 41 32 -20 -43 vhcurveto
          -26 vlineto
          hintmask 0110111010100000
          -232 -133 -29 -149 -122 87 -36 139 94 71 35 38 51 hvcurveto
          -50 53 81 -23 100 hhcurveto
          176 90 78 126 hvcurveto
          -193 hlineto
          -43 -23 -34 -64 -69 -27 42 73 vhcurveto
          hintmask 0110111011000000
          376 34 hlineto
          190 -100 86 -178 vhcurveto
          hintmask 1010111011000000
          -299 -355 rmoveto
          -43 -47 -30 -51 -34 -34 9 41 39 48 29 118 vhcurveto
          293 183 rmoveto
          53 30 -34 -55 hvcurveto
          -174 hlineto
          55 6 27 34 58 hhcurveto
          15 308 rmoveto
          -2 4 rlineto
          -193 hlineto
          -92 -133 rlineto
          127 hlineto
          endchar
        </CharString>
        <CharString name="afii00208">
          -17 196 138 hstem
          0 751 vstem
          751 334 rmoveto
          -751 -138 751 hlineto
          endchar
        </CharString>
        <CharString name="afii61248">
          233 -12 89 186 89 -17 89 127 148 -89 89 hstemhm
          46 131 135 122 126 131 131 131 hintmask 1100111110000000
          756 263 rmoveto
          46 20 -28 -47 hvcurveto
          -37 vlineto
          -46 -20 -28 -46 -46 -19 28 46 vhcurveto
          37 vlineto
          47 19 28 46 vhcurveto
          -3 437 rmoveto
          -96 hlineto
          -410 -712 rlineto
          95 hlineto
          414 364 rmoveto
          -119 -77 -60 -122 -122 77 -60 119 119 78 60 122 122 -78 60 -119 hvcurveto
          -514 347 rmoveto
          -119 -77 -60 -122 hvcurveto
          hintmask 1010111110000000
          -122 77 -60 119 106 86 44 106 vhcurveto
          -122 hlineto
          -43 -24 -18 -43 -49 -19 28 46 vhcurveto
          38 vlineto
          46 19 28 46 21 16 -4 -10 11 vhcurveto
          hintmask 1101011110000000
          11 -10 6 -14 -21 vvcurveto
          127 hlineto
          hintmask 1100111110000000
          106 -86 42 -106 vhcurveto
          endchar
        </CharString>
        <CharString name="afii61289">
          -181 -12 132 509 108 hstem
          113 167 108 122 vstem
          330 737 rmoveto
          -130 -87 -84 -188 hvcurveto
          -211 vlineto
          -29 -21 -1 0 -30 -20 rrcurveto
          -115 vlineto
          18 11 27 19 19 12 rrcurveto
          -81 76 -71 134 65 68 18 48 58 vhcurveto
          151 -4 vlineto
          -45 -35 -51 -40 -58 hhcurveto
          -54 -33 30 48 -2 hvcurveto
          -1 26 rlineto
          141 113 89 99 116 vvcurveto
          99 -55 86 -125 vhcurveto
          9 -108 rmoveto
          34 15 -27 -40 -58 -38 -72 -70 -68 hvcurveto
          132 vlineto
          102 31 31 28 vhcurveto
          endchar
        </CharString>
        <CharString name="afii61352">
          578 21 -21 144 118 40 107 184 107 -12 -20 hstemhm
          74 203 279 203 58 158 156 158 hintmask 1111011110000000
          1053 700 rmoveto
          -143 -93 -66 -133 -133 93 -66 143 142 94 66 133 133 -94 66 -142 hvcurveto
          -107 vmoveto
          55 23 -34 -56 hvcurveto
          -5 vlineto
          -55 -23 -34 -55 -56 -22 34 55 vhcurveto
          5 vlineto
          56 22 34 56 vhcurveto
          hintmask 1110111110000000
          -294 95 rmoveto
          -203 -339 hlineto
          -289 339 rlineto
          -193 -688 203 334 hlineto
          289 -334 rlineto
          193 hlineto
          506 262 rmoveto
          -424 -118 424 hlineto
          endchar
        </CharString>
        <CharString name="agrave">
          -100 -12 124 -124 135 107 94 39 177 -127 127 52 133 hstemhm
          30 199 -184 197 153 199 hintmask 1011011010000000
          321 540 rmoveto
          hintmask 1011010110000000
          -181 -95 -66 -97 -5 0 -4 1 -5 hvcurveto
          196 4 hlineto
          hintmask 1010110110000000
          35 41 11 35 43 34 -20 -43 vhcurveto
          -26 vlineto
          hintmask 1011011010000000
          -231 -134 -30 -158 -110 76 -38 110 92 59 31 35 44 hvcurveto
          -40 18 49 -26 80 hhcurveto
          67 37 20 0 hvcurveto
          hintmask 0111011010000000
          115 -36 vlineto
          -22 -10 17 22 hvcurveto
          206 vlineto
          hintmask 1011011010000000
          130 -128 42 -145 vhcurveto
          74 -355 rmoveto
          -43 -47 -30 -51 -34 -34 9 41 39 48 29 118 vhcurveto
          22 362 rmoveto
          -92 133 rlineto
          -193 hlineto
          -2 -4 161 -129 rlineto
          endchar
        </CharString>
        <CharString name="amacron">
          -100 -12 124 -124 135 107 94 39 177 -127 127 65 100 hstemhm
          30 199 -184 197 -67 317 -97 199 hintmask 1011011001000000
          321 540 rmoveto
          hintmask 1011010101000000
          -181 -95 -66 -97 -5 0 -4 1 -5 hvcurveto
          196 4 hlineto
          hintmask 1010110101000000
          35 41 11 35 43 34 -20 -43 vhcurveto
          -26 vlineto
          hintmask 1011011001000000
          -231 -134 -30 -158 -110 76 -38 110 92 59 31 35 44 hvcurveto
          -40 18 49 -26 80 hhcurveto
          67 37 20 0 hvcurveto
          hintmask 0111011001000000
          115 -36 vlineto
          -22 -10 17 22 hvcurveto
          206 vlineto
          hintmask 1011011001000000
          130 -128 42 -145 vhcurveto
          74 -355 rmoveto
          -43 -47 -30 -51 -34 -34 9 41 39 48 29 118 vhcurveto
          hintmask 1011010010000000
          97 475 rmoveto
          -317 -100 317 hlineto
          endchar
        </CharString>
        <CharString name="ampersand">
          122 -12 141 160 123 147 141 hstemhm
          75 203 -183 204 273 179 hintmask 11101100
          417 700 rmoveto
          -214 -108 -91 -106 -65 44 -56 56 -21 hvcurveto
          -4 vlineto
          hintmask 11110100
          -75 -24 -45 -60 -81 vvcurveto
          -116 105 -88 243 234 94 91 143 vhcurveto
          67 137 123 -316 -194 vlineto
          -49 -33 -40 -117 -105 -39 37 51 49 31 23 39 vhcurveto
          126 123 hlineto
          hintmask 11101100
          -104 hlineto
          -37 -34 19 44 42 40 42 91 97 45 -33 -39 hvcurveto
          177 25 hlineto
          103 -122 85 -210 vhcurveto
          endchar
        </CharString>
        <CharString name="aogonek">
          -100 -211 91 108 124 -124 135 107 94 39 177 -127 127 hstemhm
          30 199 -184 197 153 199 -167 222 hintmask 1101101010000000
          321 540 rmoveto
          hintmask 1101100110000000
          -181 -95 -66 -97 -5 0 -4 1 -5 hvcurveto
          196 4 hlineto
          hintmask 1101010110000000
          35 41 11 35 43 34 -20 -43 vhcurveto
          -26 vlineto
          hintmask 1101101001000000
          -231 -134 -30 -158 -110 76 -38 110 92 59 31 35 44 hvcurveto
          10 -22 19 -18 29 -12 rrcurveto
          -20 -25 -22 -30 -44 vvcurveto
          -82 62 -32 65 32 33 5 10 30 vhcurveto
          76 -42 vlineto
          -45 -15 25 26 20 5 21 6 16 hvcurveto
          hintmask 1101101010000000
          67 37 20 0 hvcurveto
          hintmask 1011101010000000
          115 -36 vlineto
          -22 -10 17 22 hvcurveto
          206 vlineto
          hintmask 1101101010000000
          130 -128 42 -145 vhcurveto
          74 -355 rmoveto
          -43 -47 -30 -51 -34 -34 9 41 39 48 29 118 vhcurveto
          endchar
        </CharString>
        <CharString name="approxequal">
          -107 53 130 -62 130 36 130 -62 130 hstemhm
          39 582 hintmask 01101000
          621 497 rmoveto
          0 -70 -80 -98 -45 -40 17 17 -39 vhcurveto
          hintmask 01011000
          17 -39 -39 17 -44 hhcurveto
          -98 -70 -80 0 hvcurveto
          -130 vlineto
          0 70 80 98 46 39 -17 -17 39 vhcurveto
          hintmask 10101000
          -17 39 39 -17 44 hhcurveto
          98 70 80 0 hvcurveto
          -104 vmoveto
          0 -70 -80 -98 -45 -40 17 17 -39 vhcurveto
          hintmask 01011000
          17 -39 -39 17 -44 hhcurveto
          -98 -70 -80 0 hvcurveto
          -130 vlineto
          0 70 80 98 46 39 -17 -17 39 vhcurveto
          hintmask 10011000
          -17 39 39 -17 44 hhcurveto
          98 70 80 0 hvcurveto
          endchar
        </CharString>
        <CharString name="aring">
          -100 -12 124 -124 135 107 94 39 177 -127 127 37 68 80 69 hstemhm
          30 199 -184 197 -17 68 81 68 -47 199 hintmask 1011011100010000
          321 540 rmoveto
          hintmask 1011011010010000
          -181 -95 -66 -97 -5 0 -4 1 -5 hvcurveto
          196 4 hlineto
          hintmask 1010111010010000
          35 41 11 35 43 34 -20 -43 vhcurveto
          -26 vlineto
          hintmask 1011011100010000
          -231 -134 -30 -158 -110 76 -38 110 92 59 31 35 44 hvcurveto
          -40 18 49 -26 80 hhcurveto
          67 37 20 0 hvcurveto
          hintmask 0111011100010000
          115 -36 vlineto
          -22 -10 17 22 hvcurveto
          206 vlineto
          hintmask 1011011100010000
          130 -128 42 -145 vhcurveto
          74 -355 rmoveto
          -43 -47 -30 -51 -34 -34 9 41 39 48 29 118 vhcurveto
          hintmask 1011011001100000
          -62 564 rmoveto
          -60 -48 -49 -60 -60 49 -48 59 61 48 49 59 61 -49 48 -60 hvcurveto
          -69 vmoveto
          23 18 -16 -23 -24 -17 -17 -24 -22 -18 16 23 24 17 17 23 hvcurveto
          endchar
        </CharString>
        <CharString name="aringacute">
          -100 -12 124 -124 135 107 94 39 177 -127 127 21 58 80 59 25 104 hstemhm
          30 199 -184 197 -17 68 81 68 -47 199 hintmask 1011011100110000
          333 758 rmoveto
          -60 -48 -34 -65 -65 49 -33 59 61 48 34 64 66 -49 33 -60 hvcurveto
          -59 vmoveto
          23 18 -16 -23 -24 -17 -17 -24 -22 -18 16 23 24 17 17 23 hvcurveto
          hintmask 1011000101001000
          -12 -159 rmoveto
          -181 -95 -66 -97 -5 0 -4 1 -5 hvcurveto
          196 4 hlineto
          hintmask 1010100101001000
          35 41 11 35 43 34 -20 -43 vhcurveto
          -26 vlineto
          hintmask 1011000110001000
          -231 -134 -30 -158 -110 76 -38 110 92 59 31 35 44 hvcurveto
          -40 18 49 -26 80 hhcurveto
          67 37 20 0 hvcurveto
          hintmask 0111000110001000
          115 -36 vlineto
          -22 -10 17 22 hvcurveto
          206 vlineto
          hintmask 1011000101001000
          130 -128 42 -145 vhcurveto
          hintmask 1011000110001000
          74 -355 rmoveto
          -43 -47 -30 -51 -34 -34 9 41 39 48 29 118 vhcurveto
          128 657 rmoveto
          -181 hlineto
          -77 -104 rlineto
          127 hlineto
          133 100 rlineto
          endchar
        </CharString>
        <CharString name="arrowboth">
          233 189 127 hstem
          42 917 vstem
          762 455 rmoveto
          -71 hlineto
          43 -139 rlineto
          -467 hlineto
          43 139 rlineto
          -71 hlineto
          -197 -192 rlineto
          -21 vlineto
          197 -192 rlineto
          71 hlineto
          -43 139 rlineto
          467 hlineto
          -43 -139 rlineto
          71 hlineto
          197 192 rlineto
          21 vlineto
          endchar
        </CharString>
        <CharString name="arrowdown">
          -267 -185 -21 hstem
          186 126 vstem
          452 -9 rmoveto
          71 vlineto
          -140 -43 rlineto
          692 -126 -692 vlineto
          -140 43 rlineto
          -71 vlineto
          193 -197 rlineto
          21 hlineto
          endchar
        </CharString>
        <CharString name="arrowleft">
          233 189 127 hstem
          42 917 vstem
          959 189 rmoveto
          127 -692 vlineto
          43 139 rlineto
          -71 hlineto
          -197 -192 rlineto
          -21 vlineto
          197 -192 rlineto
          71 hlineto
          -43 139 rlineto
          endchar
        </CharString>
        <CharString name="arrowright">
          233 189 127 hstem
          42 917 vstem
          42 189 rmoveto
          692 hlineto
          -43 -139 rlineto
          71 hlineto
          197 192 rlineto
          21 vlineto
          -197 192 rlineto
          -71 hlineto
          43 -139 rlineto
          -692 hlineto
          endchar
        </CharString>
        <CharString name="arrowup">
          -267 -185 -21 hstem
          186 126 vstem
          186 -206 rmoveto
          126 692 hlineto
          140 -43 rlineto
          71 vlineto
          -192 197 rlineto
          -21 hlineto
          -193 -197 rlineto
          -71 vlineto
          140 43 rlineto
          endchar
        </CharString>
        <CharString name="arrowupdn">
          -267 -185 -21 hstem
          186 126 vstem
          452 -9 rmoveto
          71 vlineto
          -140 -43 rlineto
          467 vlineto
          140 -43 rlineto
          71 vlineto
          -192 197 rlineto
          -21 hlineto
          -193 -197 rlineto
          -71 vlineto
          140 43 rlineto
          -467 vlineto
          -140 43 rlineto
          -71 vlineto
          193 -197 rlineto
          21 hlineto
          endchar
        </CharString>
        <CharString name="arrowupdnbse">
          -267 -220 62 hstem
          186 126 vstem
          452 74 rmoveto
          71 vlineto
          -140 -43 rlineto
          384 vlineto
          140 -43 rlineto
          71 vlineto
          -192 197 rlineto
          -21 hlineto
          -193 -197 rlineto
          -71 vlineto
          140 43 rlineto
          -384 vlineto
          -140 43 rlineto
          -71 vlineto
          193 -197 rlineto
          21 hlineto
          192 -35 rmoveto
          -406 -62 406 hlineto
          endchar
        </CharString>
        <CharString name="asciicircum">
          -107 549 139 0 -20 hstemhm
          55 549 hintmask 01100000
          401 688 rmoveto
          -143 hlineto
          -203 -351 rlineto
          144 hlineto
          hintmask 10100000
          132 212 131 -212 rlineto
          142 hlineto
          endchar
        </CharString>
        <CharString name="asciitilde">
          -107 199 130 -62 130 hstemhm
          39 582 hintmask 10100000
          621 409 rmoveto
          0 -70 -80 -98 -45 -40 17 17 -39 vhcurveto
          hintmask 01100000
          17 -39 -39 17 -44 hhcurveto
          -98 -70 -80 0 hvcurveto
          -130 vlineto
          0 70 80 98 46 39 -17 -17 39 vhcurveto
          hintmask 10100000
          -17 39 39 -17 44 hhcurveto
          98 70 80 0 hvcurveto
          endchar
        </CharString>
        <CharString name="asterisk">
          -211 688 -20 hstem
          237 81 vstem
          324 688 rmoveto
          -93 hlineto
          12 -122 -101 71 -47 -80 112 -52 -112 -51 47 -81 101 71 -12 -122 rlineto
          93 hlineto
          -12 122 101 -71 47 81 -112 51 112 52 -47 80 -101 -70 rlineto
          endchar
        </CharString>
        <CharString name="at">
          -27 -149 61 139 94 -94 103 82 73 30 135 165 61 hstemhm
          20 68 73 151 -140 150 98 153 79 68 hintmask 1010111101100000
          381 700 rmoveto
          -205 -156 -117 -317 -289 126 -126 204 38 70 11 16 37 hvcurveto
          66 vlineto
          -18 -32 -72 -14 -41 hhcurveto
          -178 -84 119 234 252 102 122 190 160 112 -92 -223 -152 -36 -18 -14 -15 -14 6 24 hvcurveto
          159 vlineto
          99 -94 32 -105 vhcurveto
          hintmask 1010111011100000
          -132 -70 -51 -74 -3 0 -3 1 -4 hvcurveto
          149 hlineto
          31 27 8 23 27 21 -17 -32 vhcurveto
          hintmask 1101111101100000
          -20 vlineto
          -166 -93 -23 -121 -85 58 -29 84 64 40 25 28 30 hvcurveto
          hintmask 1010111101100000
          -30 18 31 -23 60 hhcurveto
          80 94 63 209 268 -145 109 -194 hvcurveto
          hintmask 1101111101100000
          39 -498 rmoveto
          -33 -30 -24 -36 -20 -22 7 32 30 32 22 76 vhcurveto
          endchar
        </CharString>
        <CharString name="atilde">
          -100 -12 124 -124 135 107 94 39 177 -127 127 42 103 -103 143 -103 103 hstemhm
          30 199 -184 197 153 199 hintmask 1011001010100000
          321 540 rmoveto
          hintmask 1011001001100000
          -181 -95 -66 -97 -5 0 -4 1 -5 hvcurveto
          196 4 hlineto
          hintmask 1010101001100000
          35 41 11 35 43 34 -20 -43 vhcurveto
          -26 vlineto
          hintmask 1011001010100000
          -231 -134 -30 -158 -110 76 -38 110 92 59 31 35 44 hvcurveto
          -40 18 49 -26 80 hhcurveto
          67 37 20 0 hvcurveto
          hintmask 0111001010100000
          115 -36 vlineto
          -22 -10 17 22 hvcurveto
          206 vlineto
          hintmask 1011001010100000
          130 -128 42 -145 vhcurveto
          74 -355 rmoveto
          -43 -47 -30 -51 -34 -34 9 41 39 48 29 118 vhcurveto
          80 495 rmoveto
          hintmask 1011010010100000
          -23 -8 -17 -17 -26 hhcurveto
          hintmask 1011001010100000
          -53 -56 40 -64 hhcurveto
          -84 -56 -71 -72 hvcurveto
          81 hlineto
          hintmask 1011000110100000
          23 8 17 17 26 hhcurveto
          hintmask 1011010010100000
          53 56 -40 64 hhcurveto
          hintmask 1011001010100000
          84 56 71 72 hvcurveto
          endchar
        </CharString>
        <CharString name="b">
          -100 -12 147 -114 -21 393 147 185 -20 hstemhm
          61 199 172 199 hintmask 01111100
          260 725 rmoveto
          -199 -725 162 hlineto
          hintmask 10111100
          17 75 rlineto
          -59 39 58 -28 71 hhcurveto
          140 83 91 186 184 -83 91 -140 -60 -50 -20 -41 -38 hvcurveto
          86 -86 rmoveto
          62 24 -41 -62 hvcurveto
          -53 vlineto
          -62 -24 -40 -62 -62 -26 50 62 vhcurveto
          33 vlineto
          62 26 51 62 vhcurveto
          endchar
        </CharString>
        <CharString name="backslash">
          -489 736 -20 hstem
          -2 281 vstem
          119 736 rmoveto
          -121 hlineto
          159 -784 rlineto
          122 hlineto
          endchar
        </CharString>
        <CharString name="bar">
          -489 -190 -21 937 -20 hstem
          77 124 vstem
          201 726 rmoveto
          -124 -937 124 hlineto
          endchar
        </CharString>
        <CharString name="braceleft">
          -378 -160 98 312 79 310 98 hstem
          117 151 vstem
          349 737 rmoveto
          -91 hlineto
          -68 -73 -35 -77 hvcurveto
          -239 vlineto
          -40 -47 -17 -40 vhcurveto
          -79 vlineto
          45 42 -15 -40 hvcurveto
          -243 vlineto
          -77 73 -35 68 vhcurveto
          91 98 hlineto
          -29 -45 4 38 -2 hvcurveto
          -10 202 rlineto
          65 -3 -31 38 -67 hhcurveto
          9 vlineto
          67 31 38 65 3 hvcurveto
          10 201 rlineto
          37 2 46 4 28 hhcurveto
          endchar
        </CharString>
        <CharString name="braceright">
          -378 -160 98 312 79 310 98 hstem
          121 151 vstem
          40 737 rmoveto
          -98 vlineto
          28 46 -4 -37 2 hvcurveto
          10 -201 rlineto
          -65 3 31 -38 67 hhcurveto
          -9 vlineto
          -67 -31 -38 -65 -3 hvcurveto
          -10 -202 rlineto
          -38 -2 -45 -4 -29 hhcurveto
          -98 91 vlineto
          68 73 35 77 hvcurveto
          243 vlineto
          40 42 15 45 vhcurveto
          79 vlineto
          -40 -47 17 40 hvcurveto
          239 vlineto
          77 -73 35 -68 vhcurveto
          endchar
        </CharString>
        <CharString name="bracketleft">
          -378 -160 103 691 103 hstem
          66 159 vstem
          339 737 rmoveto
          -273 -897 273 103 -114 691 114 hlineto
          endchar
        </CharString>
        <CharString name="bracketright">
          -378 -160 103 691 103 hstem
          180 159 vstem
          339 737 rmoveto
          -273 -103 114 -691 -114 -103 273 hlineto
          endchar
        </CharString>
        <CharString name="breve">
          -434 581 94 -94 144 hstemhm
          -18 369 hintmask 01100000
          256 725 rmoveto
          hintmask 10100000
          -21 -4 -36 -29 -50 hhcurveto
          -24 -21 7 10 -16 hvcurveto
          hintmask 01100000
          -15 10 -10 13 -2 10 rrcurveto
          -96 hlineto
          -67 69 -77 115 114 71 77 67 vhcurveto
          endchar
        </CharString>
        <CharString name="brokenbar">
          -489 -189 -21 936 -20 hstem
          78 124 vstem
          202 726 rmoveto
          -124 -390 124 hlineto
          -156 vmoveto
          -124 -390 124 hlineto
          endchar
        </CharString>
        <CharString name="bullet">
          -267 183 324 hstem
          88 324 vstem
          250 507 rmoveto
          -89 -73 -73 -89 -89 73 -73 89 89 73 73 89 89 -73 73 -89 hvcurveto
          endchar
        </CharString>
        <CharString name="c">
          -100 -12 135 282 135 hstem
          36 199 204 185 vstem
          333 540 rmoveto
          -180 -117 -91 -185 -185 117 -91 180 161 130 66 161 hvcurveto
          -185 hlineto
          -65 -37 -27 -65 -73 -29 42 70 vhcurveto
          57 vlineto
          70 28 43 70 62 36 -28 -62 vhcurveto
          193 hlineto
          161 -130 64 -161 vhcurveto
          endchar
        </CharString>
        <CharString name="cacute">
          -100 -12 135 282 135 52 133 hstem
          36 199 204 185 vstem
          333 540 rmoveto
          -180 -117 -91 -185 -185 117 -91 180 161 130 66 161 hvcurveto
          -185 hlineto
          -65 -37 -27 -65 -73 -29 42 70 vhcurveto
          57 vlineto
          70 28 43 70 62 36 -28 -62 vhcurveto
          193 hlineto
          161 -130 64 -161 vhcurveto
          191 181 rmoveto
          -2 4 rlineto
          -192 hlineto
          -93 -133 rlineto
          128 hlineto
          endchar
        </CharString>
        <CharString name="caron">
          -434 580 145 hstem
          -35 406 vstem
          371 725 rmoveto
          -130 hlineto
          -74 -77 -74 77 rlineto
          -128 hlineto
          139 -145 rlineto
          128 hlineto
          endchar
        </CharString>
        <CharString name="ccaron">
          -100 -12 135 282 135 40 145 hstem
          36 199 204 185 vstem
          333 540 rmoveto
          -180 -117 -91 -185 -185 117 -91 180 161 130 66 161 hvcurveto
          -185 hlineto
          -65 -37 -27 -65 -73 -29 42 70 vhcurveto
          57 vlineto
          70 28 43 70 62 36 -28 -62 vhcurveto
          193 hlineto
          161 -130 64 -161 vhcurveto
          204 185 rmoveto
          -130 hlineto
          -74 -77 -75 77 rlineto
          -128 hlineto
          140 -145 rlineto
          127 hlineto
          endchar
        </CharString>
        <CharString name="ccedilla">
          -100 -211 62 63 57 18 134 -113 -21 416 135 hstemhm
          36 199 134 87 -17 185 hintmask 10011101
          333 540 rmoveto
          -180 -117 -91 -185 -175 104 -90 164 -10 hvcurveto
          hintmask 11011110
          -12 -75 rlineto
          39 hlineto
          28 10 -12 -20 -23 -16 -8 -24 -53 -65 8 0 hvcurveto
          -54 vlineto
          -10 30 51 -6 45 hhcurveto
          47 72 17 76 62 -44 22 -49 5 hvcurveto
          hintmask 10011110
          2 18 rlineto
          hintmask 10101101
          146 9 113 67 150 vvcurveto
          -185 hlineto
          -65 -37 -27 -65 -73 -29 42 70 vhcurveto
          57 vlineto
          70 28 43 70 62 36 -28 -62 vhcurveto
          193 hlineto
          hintmask 10011101
          161 -130 64 -161 vhcurveto
          endchar
        </CharString>
        <CharString name="ccircumflex">
          -100 -12 135 282 135 40 145 -68 68 hstemhm
          36 199 204 185 hintmask 11101100
          333 540 rmoveto
          -180 -117 -91 -185 -185 117 -91 180 161 130 66 161 hvcurveto
          -185 hlineto
          -65 -37 -27 -65 -73 -29 42 70 vhcurveto
          57 vlineto
          70 28 43 70 62 36 -28 -62 vhcurveto
          193 hlineto
          161 -130 64 -161 vhcurveto
          64 185 rmoveto
          -127 hlineto
          -140 -145 rlineto
          128 hlineto
          hintmask 11011100
          75 77 rlineto
          hintmask 11101100
          74 -77 rlineto
          130 hlineto
          endchar
        </CharString>
        <CharString name="cdotaccent">
          -100 -12 135 282 135 46 139 hstemhm
          36 199 22 153 29 185 hintmask 11110100
          333 540 rmoveto
          -180 -117 -91 -185 -185 117 -91 180 161 130 66 161 hvcurveto
          -185 hlineto
          -65 -37 -27 -65 -73 -29 42 70 vhcurveto
          57 vlineto
          70 28 43 70 62 36 -28 -62 vhcurveto
          193 hlineto
          161 -130 64 -161 vhcurveto
          hintmask 11111100
          77 185 rmoveto
          -153 -139 153 hlineto
          endchar
        </CharString>
        <CharString name="cedilla">
          -434 -211 62 63 125 hstem
          204 87 vstem
          209 39 rmoveto
          -62 hlineto
          -19 -125 rlineto
          38 hlineto
          29 9 -12 -20 -23 -16 -8 -24 -52 -65 8 0 hvcurveto
          -54 vlineto
          -10 29 51 -6 46 hhcurveto
          46 72 17 76 62 -44 22 -49 5 hvcurveto
          endchar
        </CharString>
        <CharString name="cent">
          -100 -67 271 282 270 hstemhm
          36 199 47.5 105.5 51 185 hintmask 11111000
          392 756 rmoveto
          -113 hlineto
          7 -137 rlineto
          -153 -15 -97 -91 -168 vvcurveto
          -169 97 -90 153 -15 vhcurveto
          -7 -138 rlineto
          113 hlineto
          -8 138 rlineto
          137 13 103 68 144 vvcurveto
          -185 hlineto
          -65 -37 -27 -65 -73 -29 42 70 vhcurveto
          57 vlineto
          70 28 43 70 62 36 -28 -62 vhcurveto
          193 hlineto
          143 -103 66 -137 13 vhcurveto
          endchar
        </CharString>
        <CharString name="circumflex">
          -434 580 145 -68 68 hstemhm
          -35 406 hintmask 10100000
          232 725 rmoveto
          -128 hlineto
          -139 -145 rlineto
          128 hlineto
          hintmask 01100000
          74 77 rlineto
          hintmask 10100000
          74 -77 rlineto
          130 hlineto
          endchar
        </CharString>
        <CharString name="colon">
          -434 0 199 129 200 hstem
          61 212 vstem
          273 528 rmoveto
          -212 -200 212 hlineto
          -129 vmoveto
          -212 -199 212 hlineto
          endchar
        </CharString>
        <CharString name="comma">
          -434 0 199 hstem
          61 212 vstem
          273 199 rmoveto
          -212 -199 81 hlineto
          -82 -183 rlineto
          108 hlineto
          105 194 rlineto
          endchar
        </CharString>
        <CharString name="commaaccent">
          -434 -175 116 hstem
          101 130 vstem
          231 -59 rmoveto
          -130 -116 50 hlineto
          -41 -92 rlineto
          67 hlineto
          54 99 rlineto
          endchar
        </CharString>
        <CharString name="copyright">
          33 -12 65 77 99 230 99 78 64 hstem
          44 77 69 136 155 123 77 77 vstem
          400 700 rmoveto
          -210 -146 -156 -199 -199 146 -158 210 210 148 158 199 199 -148 156 -210 hvcurveto
          5 -142 rmoveto
          -142 -73 -73 -141 -141 73 -73 142 126 73 61 114 hvcurveto
          -123 hlineto
          -48 -26 -28 -52 -54 -23 39 57 vhcurveto
          38 vlineto
          57 21 39 57 47 26 -31 -47 vhcurveto
          127 hlineto
          115 -79 62 -120 vhcurveto
          -5 78 rmoveto
          171 110 -115 -176 -176 -110 -116 -171 -171 -108 116 176 176 108 115 171 hvcurveto
          endchar
        </CharString>
        <CharString name="currency">
          -107 91 110 276 110 hstem
          81 120 256 120 vstem
          523 603 rmoveto
          -58 -58 rlineto
          24 -26 -54 18 -56 hhcurveto
          -53 -57 -18 -26 -30 hvcurveto
          -57 57 -63 -63 58 -58 rlineto
          -31 -30 -15 -56 -54 vvcurveto
          -56 17 -51 29 -33 vhcurveto
          -58 -58 61 -61 57 57 rlineto
          -29 32 54 -17 56 hhcurveto
          57 55 18 30 30 hvcurveto
          58 -58 60 60 -56 56 rlineto
          28 34 16 54 54 vvcurveto
          56 -16 56 -26 28 vhcurveto
          56 56 rlineto
          -262 -58 rmoveto
          77 51 -64 -74 -74 -51 -64 -77 -73 -55 61 77 76 54 62 74 hvcurveto
          endchar
        </CharString>
        <CharString name="d">
          -100 -12 147 -114 -21 393 147 185 -20 hstemhm
          36 199 172 199 hintmask 01111100
          606 725 rmoveto
          -199 -246 hlineto
          41 -38 -51 20 -59 hhcurveto
          -140 -83 -91 -184 hvcurveto
          hintmask 10111100
          -186 83 -91 140 71 58 28 59 39 vhcurveto
          hintmask 01111100
          17 -75 rlineto
          162 hlineto
          -285 393 rmoveto
          62 26 -51 -62 hvcurveto
          -33 vlineto
          hintmask 10111100
          -62 -26 -50 -62 -62 -24 40 62 vhcurveto
          53 vlineto
          hintmask 01111100
          62 24 41 62 vhcurveto
          endchar
        </CharString>
        <CharString name="dagger">
          -100 688 -20 hstem
          273 127 vstem
          410 688 rmoveto
          -147 hlineto
          20 -202 -214 21 rlineto
          -147 vlineto
          214 21 -20 -566 rlineto
          147 hlineto
          -20 566 214 -21 rlineto
          147 vlineto
          -214 -21 rlineto
          endchar
        </CharString>
        <CharString name="daggerdbl">
          -100 -178 -21 887 -20 hstem
          69 535 vstem
          410 688 rmoveto
          -147 hlineto
          20 -202 -214 21 rlineto
          -147 vlineto
          214 21 -20 -135 20 -137 -214 21 rlineto
          -147 vlineto
          214 21 -20 -203 rlineto
          147 hlineto
          -20 203 214 -21 rlineto
          147 vlineto
          -214 -21 20 137 -20 135 214 -21 rlineto
          147 vlineto
          -214 -21 rlineto
          endchar
        </CharString>
        <CharString name="dcaron">
          77 -12 147 -114 -21 393 147 33 115 -115 152 hstemhm
          36 199 172 199 49 130 hintmask 10101111
          606 725 rmoveto
          -199 -246 hlineto
          41 -38 -51 20 -59 hhcurveto
          -140 -83 -91 -184 -186 83 -91 140 71 58 28 59 39 hvcurveto
          hintmask 01110111
          17 -75 rlineto
          162 hlineto
          -285 393 rmoveto
          62 26 -51 -62 hvcurveto
          -33 vlineto
          hintmask 10110111
          -62 -26 -50 -62 -62 -24 40 62 vhcurveto
          53 vlineto
          hintmask 01110111
          62 24 41 62 vhcurveto
          464 295 rmoveto
          -130 -115 50 hlineto
          -41 -92 rlineto
          67 hlineto
          54 99 rlineto
          endchar
        </CharString>
        <CharString name="dcroat">
          -100 -12 147 -114 -21 393 147 35 93 -93 150 hstemhm
          36 199 172 199 hintmask 01101110
          606 725 rmoveto
          -199 hlineto
          hintmask 01110110
          -57 -71 vlineto
          hintmask 10101110
          -93 71 -96 vlineto
          41 -38 -51 20 -59 hhcurveto
          -140 -83 -91 -184 -186 83 -91 140 71 58 28 59 39 hvcurveto
          hintmask 01101110
          17 -75 rlineto
          162 575 61 hlineto
          hintmask 10110110
          93 -61 vlineto
          -285 -275 rmoveto
          62 26 -51 -62 hvcurveto
          -33 vlineto
          -62 -26 -50 -62 -62 -24 40 62 vhcurveto
          53 vlineto
          62 24 41 62 vhcurveto
          endchar
        </CharString>
        <CharString name="degree">
          -367 400 87 124 89 hstem
          50 87 124 89 vstem
          200 700 rmoveto
          -83 -67 -68 -82 hvcurveto
          -83 1 66 -67 83 hhcurveto
          82 68 67 83 82 -68 68 -82 hvcurveto
          -2 -89 rmoveto
          35 28 -28 -34 -34 -28 -28 -34 -34 -28 28 34 34 29 28 32 hvcurveto
          endchar
        </CharString>
        <CharString name="dieresis">
          -434 586 139 hstem
          -20 152 68 152 vstem
          352 725 rmoveto
          -152 -139 152 hlineto
          -220 139 rmoveto
          -152 -139 152 hlineto
          endchar
        </CharString>
        <CharString name="divide">
          -107 15 131 50 132 49 131 hstem
          266 131 vstem
          594 328 rmoveto
          -528 -132 528 hlineto
          -197 -50 rmoveto
          -131 -131 131 hlineto
          493 vmoveto
          -131 -131 131 hlineto
          endchar
        </CharString>
        <CharString name="dollar">
          -100 70 118 -117 182 26.1799926758 140.830001831 30.9900054932 168 -117 116 hstemhm
          69 185 -171 190 14.5 105.5 31 190 hintmask 0010110110000000
          397 756 rmoveto
          -113 hlineto
          7 -138 rlineto
          hintmask 1010101110000000
          -115 -10 -93 -46 -120 vvcurveto
          -208 341 72 -79 vvcurveto
          -37 -55 -2 -28 vhcurveto
          hintmask 1010110110000000
          -29 -57 10 51 -1 hvcurveto
          4 vlineto
          hintmask 0110110110000000
          -185 hlineto
          -116 107 -54 115 -12 vhcurveto
          hintmask 1010110110000000
          -7 -138 rlineto
          113 hlineto
          -8 137 rlineto
          124 9 101 48 129 vvcurveto
          hintmask 0010101110000000
          215 -341 -79 76 vvcurveto
          34 55 0 17 vhcurveto
          hintmask 0011010110000000
          27 43 -9 -42 1 hvcurveto
          185 hlineto
          111 -101 48 -111 9 vhcurveto
          endchar
        </CharString>
        <CharString name="dotaccent">
          -434 586 139 hstem
          91 152 vstem
          243 725 rmoveto
          -152 -139 152 hlineto
          endchar
        </CharString>
        <CharString name="dotlessi">
          -434 21 -21 528 -20 hstem
          67 199 vstem
          266 528 rmoveto
          -199 -528 199 hlineto
          endchar
        </CharString>
        <CharString name="e">
          -100 -12 127 115 94 89 127 hstemhm
          36 199 195 201 -193 193 hintmask 11111000
          333 540 rmoveto
          -180 -117 -91 -185 -190 119 -86 190 hvcurveto
          hintmask 11110100
          190 96 78 126 hvcurveto
          -193 hlineto
          -43 -26 -34 -71 -76 -30 42 73 vhcurveto
          hintmask 11111000
          396 34 hlineto
          190 -108 86 -190 vhcurveto
          8 -127 rmoveto
          56 33 -34 -55 hvcurveto
          -194 hlineto
          55 7 31 34 67 hhcurveto
          endchar
        </CharString>
        <CharString name="eacute">
          -100 -12 127 115 94 89 127 52 133 hstemhm
          36 199 195 201 -193 193 hintmask 11111100
          333 540 rmoveto
          -180 -117 -91 -185 -190 119 -86 190 hvcurveto
          hintmask 11111010
          190 96 78 126 hvcurveto
          -193 hlineto
          -43 -26 -34 -71 -76 -30 42 73 vhcurveto
          hintmask 11111100
          396 34 hlineto
          190 -108 86 -190 vhcurveto
          8 -127 rmoveto
          56 33 -34 -55 hvcurveto
          -194 hlineto
          55 7 31 34 67 hhcurveto
          183 308 rmoveto
          -2 4 rlineto
          -192 hlineto
          -93 -133 rlineto
          128 hlineto
          endchar
        </CharString>
        <CharString name="ebreve">
          -100 -12 127 115 94 89 127 41 94 -94 144 hstemhm
          36 199 195 201 -193 193 hintmask 11101110
          333 540 rmoveto
          -180 -117 -91 -185 -190 119 -86 190 hvcurveto
          hintmask 11101101
          190 96 78 126 hvcurveto
          -193 hlineto
          -43 -26 -34 -71 -76 -30 42 73 vhcurveto
          hintmask 11101110
          396 34 hlineto
          190 -108 86 -190 vhcurveto
          8 -127 rmoveto
          56 33 -34 -55 hvcurveto
          -194 hlineto
          55 7 31 34 67 hhcurveto
          82 312 rmoveto
          hintmask 11110110
          -21 -4 -36 -29 -50 hhcurveto
          -24 -21 7 10 -16 hvcurveto
          hintmask 11101110
          -15 10 -10 13 -2 10 rrcurveto
          -96 hlineto
          -67 69 -77 115 114 71 77 67 vhcurveto
          endchar
        </CharString>
        <CharString name="ecaron">
          -100 -12 127 115 94 89 127 40 145 hstemhm
          36 199 195 201 -193 193 hintmask 11111100
          333 540 rmoveto
          -180 -117 -91 -185 -190 119 -86 190 hvcurveto
          hintmask 11111010
          190 96 78 126 hvcurveto
          -193 hlineto
          -43 -26 -34 -71 -76 -30 42 73 vhcurveto
          hintmask 11111100
          396 34 hlineto
          190 -108 86 -190 vhcurveto
          8 -127 rmoveto
          56 33 -34 -55 hvcurveto
          -194 hlineto
          55 7 31 34 67 hhcurveto
          196 312 rmoveto
          -130 hlineto
          -74 -77 -75 77 rlineto
          -128 hlineto
          140 -145 rlineto
          127 hlineto
          endchar
        </CharString>
        <CharString name="ecircumflex">
          -100 -12 127 115 94 89 127 40 145 -68 68 hstemhm
          36 199 195 201 -193 193 hintmask 11110110
          333 540 rmoveto
          -180 -117 -91 -185 -190 119 -86 190 hvcurveto
          hintmask 11110101
          190 96 78 126 hvcurveto
          -193 hlineto
          -43 -26 -34 -71 -76 -30 42 73 vhcurveto
          hintmask 11110110
          396 34 hlineto
          190 -108 86 -190 vhcurveto
          8 -127 rmoveto
          56 33 -34 -55 hvcurveto
          -194 hlineto
          55 7 31 34 67 hhcurveto
          56 312 rmoveto
          -127 hlineto
          -140 -145 rlineto
          128 hlineto
          hintmask 11101110
          75 77 rlineto
          hintmask 11110110
          74 -77 rlineto
          130 hlineto
          endchar
        </CharString>
        <CharString name="edieresis">
          -100 -12 127 115 94 89 127 46 139 hstemhm
          36 199 -88 152 69 152 -90 201 -193 193 hintmask 1111100100000000
          333 540 rmoveto
          -180 -117 -91 -185 -190 119 -86 190 hvcurveto
          hintmask 1111100010000000
          190 96 78 126 hvcurveto
          -193 hlineto
          -43 -26 -34 -71 -76 -30 42 73 vhcurveto
          hintmask 1111100100000000
          396 34 hlineto
          190 -108 86 -190 vhcurveto
          8 -127 rmoveto
          56 33 -34 -55 hvcurveto
          -194 hlineto
          55 7 31 34 67 hhcurveto
          hintmask 1111011000000000
          179 312 rmoveto
          -152 -139 152 hlineto
          -221 139 rmoveto
          -152 -139 152 hlineto
          endchar
        </CharString>
        <CharString name="edotaccent">
          -100 -12 127 115 94 89 127 46 139 hstemhm
          36 199 22 153 20 201 -193 193 hintmask 11111010
          333 540 rmoveto
          -180 -117 -91 -185 -190 119 -86 190 hvcurveto
          hintmask 11111001
          190 96 78 126 hvcurveto
          -193 hlineto
          -43 -26 -34 -71 -76 -30 42 73 vhcurveto
          hintmask 11111010
          396 34 hlineto
          190 -108 86 -190 vhcurveto
          8 -127 rmoveto
          56 33 -34 -55 hvcurveto
          -194 hlineto
          55 7 31 34 67 hhcurveto
          hintmask 11111110
          69 312 rmoveto
          -153 -139 153 hlineto
          endchar
        </CharString>
        <CharString name="egrave">
          -100 -12 127 115 94 89 127 52 133 hstemhm
          36 199 195 201 -193 193 hintmask 11111100
          333 540 rmoveto
          -180 -117 -91 -185 -190 119 -86 190 hvcurveto
          hintmask 11111010
          190 96 78 126 hvcurveto
          -193 hlineto
          -43 -26 -34 -71 -76 -30 42 73 vhcurveto
          hintmask 11111100
          396 34 hlineto
          190 -108 86 -190 vhcurveto
          8 -127 rmoveto
          56 33 -34 -55 hvcurveto
          -194 hlineto
          55 7 31 34 67 hhcurveto
          89 179 rmoveto
          -93 133 rlineto
          -192 hlineto
          -2 -4 160 -129 rlineto
          endchar
        </CharString>
        <CharString name="eight">
          -100 -12 135 164 127 151 135 hstem
          41 199 187 199 vstem
          332 700 rmoveto
          -148 -118 -72 -131 -77 36 -34 48 -34 hvcurveto
          -4 vlineto
          -66 -37 -43 -40 -82 vvcurveto
          -131 113 -70 178 178 116 70 131 82 -44 40 -66 37 vhcurveto
          4 vlineto
          48 34 36 34 77 vvcurveto
          131 -120 72 -148 vhcurveto
          -413 vmoveto
          50 45 -28 -54 -54 -41 -28 -54 -54 -38 28 54 54 42 28 50 hvcurveto
          278 vmoveto
          54 41 -22 -54 -54 -45 -21 -50 -50 -42 21 54 54 38 22 54 hvcurveto
          endchar
        </CharString>
        <CharString name="ellipsis">
          233 0 199 hstem
          61 212 121 212 122 212 vstem
          273 199 rmoveto
          -212 -199 212 hlineto
          333 199 rmoveto
          -212 -199 212 hlineto
          334 199 rmoveto
          -212 -199 212 hlineto
          endchar
        </CharString>
        <CharString name="emacron">
          -100 -12 127 115 94 89 127 65 100 hstemhm
          36 199 -60 317 -62 201 -193 193 hintmask 11111010
          333 540 rmoveto
          -180 -117 -91 -185 -190 119 -86 190 hvcurveto
          hintmask 11111001
          190 96 78 126 hvcurveto
          -193 hlineto
          -43 -26 -34 -71 -76 -30 42 73 vhcurveto
          hintmask 11111010
          396 34 hlineto
          190 -108 86 -190 vhcurveto
          8 -127 rmoveto
          56 33 -34 -55 hvcurveto
          -194 hlineto
          55 7 31 34 67 hhcurveto
          hintmask 11110100
          151 292 rmoveto
          -317 -100 317 hlineto
          endchar
        </CharString>
        <CharString name="emdash">
          233 196 138 hstem
          0 1002 vstem
          1002 334 rmoveto
          -1002 -138 1002 hlineto
          endchar
        </CharString>
        <CharString name="endash">
          -267 196 138 hstem
          0 500 vstem
          500 334 rmoveto
          -500 -138 500 hlineto
          endchar
        </CharString>
        <CharString name="eng">
          -86 -210 137 94 -21 393 147 -12 -20 hstemhm
          67 199 150 199 hintmask 11101100
          431 540 rmoveto
          -75 -72 -36 -56 -41 hvcurveto
          hintmask 11011100
          -13 80 rlineto
          -163 -528 199 hlineto
          hintmask 11101100
          310 vlineto
          45 33 38 50 44 23 -31 -44 vhcurveto
          -327 vlineto
          -41 -16 -23 -40 vhcurveto
          -52 -119 hlineto
          -11 31 61 -7 32 hhcurveto
          128 55 53 128 hvcurveto
          371 vlineto
          125 -59 73 -125 vhcurveto
          endchar
        </CharString>
        <CharString name="eogonek">
          -100 -211 91 108 127 115 94 89 127 hstemhm
          36 199 108 222 -135 201 hintmask 11111010
          333 540 rmoveto
          -180 -117 -91 -185 -190 119 -86 190 hvcurveto
          hintmask 11111100
          30 hlineto
          -17 -22 -15 -27 -36 vvcurveto
          -82 62 -32 65 32 33 5 10 30 vhcurveto
          76 -42 vlineto
          -44 -16 25 26 28 11 32 8 14 hvcurveto
          hintmask 11111010
          99 30 50 66 91 vvcurveto
          -193 hlineto
          -43 -26 -34 -71 -76 -30 42 73 vhcurveto
          396 34 hlineto
          190 -108 86 -190 vhcurveto
          8 -127 rmoveto
          56 33 -34 -55 hvcurveto
          -194 hlineto
          55 7 31 34 67 hhcurveto
          endchar
        </CharString>
        <CharString name="equal">
          -107 85 132 94 132 hstem
          66 528 vstem
          594 443 rmoveto
          -528 -132 528 hlineto
          -94 vmoveto
          -528 -132 528 hlineto
          endchar
        </CharString>
        <CharString name="equivalence">
          -167 22 112 74 112 74 112 hstem
          62 475 vstem
          537 506 rmoveto
          -475 -112 475 hlineto
          -260 vmoveto
          -475 -112 475 hlineto
          298 vmoveto
          -475 -112 475 hlineto
          endchar
        </CharString>
        <CharString name="estimated">
          -167 -12 42 219 42 207 42 hstem
          44 109 299 109 vstem
          302 540 rmoveto
          -160 -98 -116 -160 -160 98 -116 160 105 79 50 80 42 hvcurveto
          -34 22 rlineto
          -68 -35 -68 -42 -89 hhcurveto
          -62 -50 19 34 -37 hvcurveto
          166 408 5 vlineto
          166 -99 120 -160 vhcurveto
          -42 vmoveto
          62 50 -20 -35 38 hvcurveto
          -152 -299 153 vlineto
          34 37 50 20 62 hhcurveto
          endchar
        </CharString>
        <CharString name="eth">
          -100 -12 135 282 119 132 69 -31 -20 hstemhm
          36 199 197 199 hintmask 11101100
          165 725 rmoveto
          -1 -4 19 -12 30 -22 34 -31 rlinecurve
          -98 -11 rlineto
          -78 vlineto
          165 19 17 -22 17 -23 16 -25 rlinecurve
          6 -21 -25 2 -20 hhcurveto
          -162 -100 -106 -154 -185 117 -91 180 180 118 91 185 hvcurveto
          hintmask 11011100
          155 -64 113 -65 76 vhcurveto
          68 8 rlineto
          78 vlineto
          hintmask 11101100
          -139 -16 rlineto
          -39 32 -29 15 0 vvcurveto
          -30 -320 rmoveto
          70 29 -43 -70 hvcurveto
          -57 vlineto
          -70 -29 -42 -70 -70 -28 42 70 vhcurveto
          57 vlineto
          70 28 43 70 vhcurveto
          endchar
        </CharString>
        <CharString name="exclam">
          -434 0 185 503 -20 hstem
          67 198 vstem
          286 688 rmoveto
          -239 hlineto
          55 -442 rlineto
          127 hlineto
          36 -61 rmoveto
          -198 -185 198 hlineto
          endchar
        </CharString>
        <CharString name="exclamdbl">
          -163 0 185 503 -20 hstem
          67 198 77 198 vstem
          561 688 rmoveto
          -239 hlineto
          55 -442 rlineto
          127 hlineto
          -239 -61 rmoveto
          -198 -185 198 hlineto
          275 185 rmoveto
          -198 -185 198 hlineto
          -254 688 rmoveto
          -239 hlineto
          55 -442 rlineto
          127 hlineto
          endchar
        </CharString>
        <CharString name="exclamdown">
          -434 343 185 hstem
          67 198 vstem
          229 282 rmoveto
          -127 hlineto
          -55 -442 rlineto
          239 hlineto
          -21 688 rmoveto
          -198 -185 198 hlineto
          endchar
        </CharString>
        <CharString name="f">
          -378 21 -21 393 135 74 135 hstem
          82 199 vstem
          275 737 rmoveto
          -114 -79 -43 -144 hvcurveto
          -22 -74 -135 74 -393 199 393 102 135 -102 21 vlineto
          37 12 16 44 vhcurveto
          46 117 hlineto
          10 -27 -52 8 -29 hhcurveto
          endchar
        </CharString>
        <CharString name="five">
          -100 -12 138 205 128 59 170 hstem
          39 176 213 197 vstem
          574 688 rmoveto
          -476 hlineto
          -29 -385 158 -22 rlineto
          13 11 18 37 67 hhcurveto
          68 37 -44 -59 -58 -36 -44 -70 -71 -36 44 52 hvcurveto
          -176 hlineto
          -140 104 -94 200 173 109 106 131 146 -93 88 -146 -93 -54 -45 0 vhcurveto
          8 104 rlineto
          327 hlineto
          endchar
        </CharString>
        <CharString name="fiveeighths">
          233 -12 81 98 76 25 83 -18 81 60 76 36 102 12 -20 hstemhm
          38 115 140 129 173 130 -114 114 123 113 -113 130 hintmask 1110110111001000
          786 167 rmoveto
          32 30 -17 -32 -33 -27 -16 -35 -36 -25 16 33 32 28 17 33 hvcurveto
          hintmask 1001110110110000
          247 vmoveto
          -98 -77 -43 -78 -47 24 -19 31 -20 hvcurveto
          -5 vlineto
          hintmask 1010110111001000
          -43 -22 -28 -23 -49 vvcurveto
          -78 74 -42 117 116 76 42 78 49 -28 23 -44 22 vhcurveto
          5 vlineto
          hintmask 1010110110110000
          32 20 23 19 47 vvcurveto
          hintmask 1001110110110000
          78 -78 43 -97 vhcurveto
          -81 vmoveto
          35 27 -13 -32 hvcurveto
          hintmask 1110110110110000
          -33 -30 -12 -32 -33 -28 12 33 vhcurveto
          hintmask 1001110110110000
          32 25 13 36 vhcurveto
          hintmask 1010101110110000
          -18 367 rmoveto
          -96 hlineto
          -410 -712 rlineto
          95 hlineto
          hintmask 1010110110110000
          32 700 rmoveto
          -313 hlineto
          -19 -231 104 -13 rlineto
          8 7 12 22 44 hhcurveto
          45 24 -27 -35 -35 -24 -26 -46 -46 -24 26 32 hvcurveto
          -115 hlineto
          -84 68 -57 131 114 71 64 78 88 -61 52 -96 -61 -35 -27 0 vhcurveto
          5 63 rlineto
          215 hlineto
          endchar
        </CharString>
        <CharString name="florin">
          -100 -210 135 -114 -21 564 135 113 135 0 -20 hstemhm
          36 597 hintmask 01110100
          529 737 rmoveto
          -114 -88 -43 -144 -31 hvcurveto
          -13 -61 rlineto
          -74 hlineto
          -29 -135 rlineto
          74 hlineto
          hintmask 10110100
          -80 -376 rlineto
          -37 -8 -15 -16 -44 hhcurveto
          -46 hlineto
          hintmask 01110100
          -25 -117 rlineto
          hintmask 10110100
          -10 25 50 -8 29 hhcurveto
          114 88 43 144 31 hvcurveto
          80 377 rlineto
          102 hlineto
          29 135 rlineto
          -102 hlineto
          13 60 rlineto
          37 8 15 16 44 hhcurveto
          46 hlineto
          hintmask 01101100
          25 117 rlineto
          hintmask 01110100
          10 -25 -50 8 -29 hhcurveto
          endchar
        </CharString>
        <CharString name="four">
          -100 21 -21 141 147 412 -20 hstem
          358 190 vstem
          215 700 rmoveto
          -45 -157 -82 -158 -65 -95 rrcurveto
          -149 335 -141 190 141 96 147 -96 346 -85 vlineto
          -14 -57 -57 -97 -34 -49 rrcurveto
          -143 -198 vlineto
          95 97 141 206 15 109 rrcurveto
          endchar
        </CharString>
        <CharString name="fraction">
          -600 9 -21 712 -20 hstem
          -178 506 vstem
          328 700 rmoveto
          -96 hlineto
          -410 -712 rlineto
          95 hlineto
          endchar
        </CharString>
        <CharString name="franc">
          66 21 -21 247 158 -128 179 67 165 hstemhm
          74 221 153 199 hintmask 10111100
          828 444 rmoveto
          0 -22 12 -37 -63 -57 -30 -63 -25 vhcurveto
          -13 80 rlineto
          -163 hlineto
          hintmask 11011100
          -38 -153 118 317 165 -538 -688 221 247 153 -247 199 150 vlineto
          hintmask 10111100
          80 31 47 86 vhcurveto
          64 hlineto
          endchar
        </CharString>
        <CharString name="g">
          -100 -210 111 99 140 60 104 132 104 -6 -20 hstemhm
          5 189 -141 195 152 194 -139 199 hintmask 1110101010000000
          490 627 rmoveto
          0 1 -44 -79 -49 vhcurveto
          hintmask 1111001010000000
          4 -22 -25 2 -40 hhcurveto
          -148 -124 -40 -131 -51 37 -44 48 -31 hvcurveto
          hintmask 1111010010000000
          -56 -14 -45 -46 -53 vvcurveto
          -38 20 -33 32 -22 vhcurveto
          -44 -20 -40 -43 -55 vvcurveto
          -73 60 -56 73 vhcurveto
          294 hlineto
          118 104 63 118 98 -56 71 -122 hvcurveto
          -180 hlineto
          -51 -12 14 17 17 17 12 46 hvcurveto
          76 hlineto
          hintmask 1110101100000000
          118 104 52 118 44 -23 41 -39 29 hvcurveto
          hintmask 1110110010000000
          76 20 46 37 86 vvcurveto
          -252 -627 rmoveto
          29 24 -18 -31 -31 -24 -19 -29 hvcurveto
          -156 hlineto
          -29 -23 20 31 31 23 17 29 hvcurveto
          hintmask 1111001100000000
          77 436 rmoveto
          47 30 -21 -45 -45 -30 -21 -47 -47 -28 21 45 45 33 21 42 hvcurveto
          endchar
        </CharString>
        <CharString name="gbreve">
          -100 -210 111 99 140 60 104 132 104 -6 -20 67 94 -94 144 hstemhm
          5 189 -141 195 152 194 -139 199 hintmask 1110101010100000
          521 627 rmoveto
          0 -12 -93 -97 vhcurveto
          hintmask 1111001010100000
          4 -22 -25 2 -40 hhcurveto
          -148 -124 -40 -131 -51 37 -44 48 -31 hvcurveto
          hintmask 1111001100100000
          -56 -14 -45 -46 -53 vvcurveto
          -38 20 -33 32 -22 vhcurveto
          -44 -20 -40 -43 -55 vvcurveto
          -73 60 -56 73 vhcurveto
          294 hlineto
          118 104 63 118 98 -56 71 -122 hvcurveto
          -180 hlineto
          -51 -12 14 17 17 17 12 46 hvcurveto
          76 hlineto
          hintmask 1110101011000000
          118 104 52 118 44 -23 41 -39 29 hvcurveto
          hintmask 1110101100100000
          76 20 46 37 86 vvcurveto
          -252 -627 rmoveto
          29 24 -18 -31 -31 -24 -19 -29 hvcurveto
          -156 hlineto
          -29 -23 20 31 31 23 17 29 hvcurveto
          hintmask 1111001011000000
          77 436 rmoveto
          47 30 -21 -45 -45 -30 -21 -47 -47 -28 21 45 45 33 21 42 hvcurveto
          96 289 rmoveto
          hintmask 1111010011000000
          -21 -3 -37 -29 -49 hhcurveto
          -24 -21 7 10 -16 hvcurveto
          hintmask 1111001010100000
          -15 10 -10 13 -2 10 rrcurveto
          -96 hlineto
          -67 68 -77 116 113 72 77 67 vhcurveto
          endchar
        </CharString>
        <CharString name="gcircumflex">
          -100 -210 111 99 140 60 104 132 104 -6 -20 66 47 -47 145 -68 68 hstemhm
          5 189 -141 195 152 194 -139 199 hintmask 1110110001010000
          521 627 rmoveto
          0 13 -93 -122 vhcurveto
          hintmask 1111001001010000
          4 -22 -25 2 -40 hhcurveto
          -148 -124 -40 -131 -51 37 -44 48 -31 hvcurveto
          hintmask 1111001010010000
          -56 -14 -45 -46 -53 vvcurveto
          -38 20 -33 32 -22 vhcurveto
          -44 -20 -40 -43 -55 vvcurveto
          -73 60 -56 73 vhcurveto
          294 hlineto
          118 104 63 118 98 -56 71 -122 hvcurveto
          -180 hlineto
          -51 -12 14 17 17 17 12 46 hvcurveto
          76 hlineto
          hintmask 1111001001100000
          118 104 52 118 44 -23 41 -39 29 hvcurveto
          hintmask 1111010010010000
          76 20 46 37 86 vvcurveto
          -252 -627 rmoveto
          29 24 -18 -31 -31 -24 -19 -29 hvcurveto
          -156 hlineto
          -29 -23 20 31 31 23 17 29 hvcurveto
          hintmask 1111001001100000
          77 436 rmoveto
          47 30 -21 -45 -45 -30 -21 -47 -47 -28 21 45 45 33 21 42 hvcurveto
          47 289 rmoveto
          -128 hlineto
          -120 -145 rlineto
          128 hlineto
          hintmask 1111000101010000
          55 77 rlineto
          hintmask 1111001001010000
          54 -77 rlineto
          130 hlineto
          endchar
        </CharString>
        <CharString name="gcommaaccent">
          -100 -210 111 99 140 60 104 132 104 -6 -20 58 55 -55 116 hstemhm
          5 189 -141 195 10 130 12 194 -139 199 hintmask 1110110001010000
          490 627 rmoveto
          0 1 -44 -79 -49 vhcurveto
          hintmask 1111001011010000
          4 -22 -25 2 -40 hhcurveto
          -148 -124 -40 -131 -51 37 -44 48 -31 hvcurveto
          hintmask 1111001101010000
          -56 -14 -45 -46 -53 vvcurveto
          -38 20 -33 32 -22 vhcurveto
          -44 -20 -40 -43 -55 vvcurveto
          -73 60 -56 73 vhcurveto
          294 hlineto
          118 104 63 118 98 -56 71 -122 hvcurveto
          -180 hlineto
          -51 -12 14 17 17 17 12 46 hvcurveto
          76 hlineto
          hintmask 1111001001100000
          118 104 52 118 44 -23 41 -39 29 hvcurveto
          hintmask 1111010001010000
          76 20 46 37 86 vvcurveto
          hintmask 1111001101010000
          -396 -55 rmoveto
          130 116 -50 hlineto
          41 92 rlineto
          -67 hlineto
          -54 -99 rlineto
          144 -681 rmoveto
          29 24 -18 -31 -31 -24 -19 -29 hvcurveto
          -156 hlineto
          -29 -23 20 31 31 23 17 29 hvcurveto
          hintmask 1111001011100000
          77 436 rmoveto
          47 30 -21 -45 -45 -30 -21 -47 -47 -28 21 45 45 33 21 42 hvcurveto
          endchar
        </CharString>
        <CharString name="gdotaccent">
          -100 -210 111 99 140 60 104 132 104 -6 -20 72 41 -41 139 hstemhm
          5 189 -141 195 -21 152 21 194 -139 199 hintmask 1110110001010000
          490 627 rmoveto
          0 1 -44 -79 -49 vhcurveto
          hintmask 1111001010010000
          4 -22 -25 2 -40 hhcurveto
          -148 -124 -40 -131 -51 37 -44 48 -31 hvcurveto
          hintmask 1111001101010000
          -56 -14 -45 -46 -53 vvcurveto
          -38 20 -33 32 -22 vhcurveto
          -44 -20 -40 -43 -55 vvcurveto
          -73 60 -56 73 vhcurveto
          294 hlineto
          118 104 63 118 98 -56 71 -122 hvcurveto
          -180 hlineto
          -51 -12 14 17 17 17 12 46 hvcurveto
          76 hlineto
          hintmask 1111001001100000
          118 104 52 118 44 -23 41 -39 29 hvcurveto
          hintmask 1111010101010000
          76 20 46 37 86 vvcurveto
          -252 -627 rmoveto
          29 24 -18 -31 -31 -24 -19 -29 hvcurveto
          -156 hlineto
          -29 -23 20 31 31 23 17 29 hvcurveto
          hintmask 1111001010100000
          77 436 rmoveto
          47 30 -21 -45 -45 -30 -21 -47 -47 -28 21 45 45 33 21 42 hvcurveto
          hintmask 1111001001010000
          56 289 rmoveto
          -152 -139 152 hlineto
          endchar
        </CharString>
        <CharString name="germandbls">
          -100 0 136 189 141 137 134 hstemhm
          67 199 48 189 -97 191 -172 199 hintmask 11110100
          336 737 rmoveto
          -130 -139 -62 -158 hvcurveto
          -517 199 534 vlineto
          39 27 30 43 44 26 -30 -39 -38 -28 -30 -37 vhcurveto
          hintmask 11111000
          -27 -141 hlineto
          hintmask 11110010
          28 hlineto
          45 38 -43 -53 -50 -37 -43 -46 hvcurveto
          -28 -136 64 hlineto
          142 104 70 144 hvcurveto
          hintmask 11111000
          80 -50 75 -71 26 vhcurveto
          5 vlineto
          hintmask 11110100
          58 24 36 60 64 vvcurveto
          146 -139 43 -122 vhcurveto
          endchar
        </CharString>
        <CharString name="grave">
          -434 592 133 hstem
          23 287 vstem
          218 725 rmoveto
          -193 hlineto
          -2 -4 160 -129 rlineto
          127 hlineto
          endchar
        </CharString>
        <CharString name="greater">
          -107 8 -21 548 -20 hstem
          68 525 vstem
          68 535 rmoveto
          -143 vlineto
          359 -132 -359 -131 rlineto
          -142 vlineto
          525 202 rlineto
          143 vlineto
          endchar
        </CharString>
        <CharString name="greaterequal">
          -107 0 132 hstem
          66 528 vstem
          66 675 rmoveto
          -143 vlineto
          372 -114 -372 -113 rlineto
          -142 vlineto
          528 184 rlineto
          143 vlineto
          -358 vmoveto
          -528 -132 528 hlineto
          endchar
        </CharString>
        <CharString name="guillemotleft">
          -100 324 204 0 -20 hstemhm
          60 546 hintmask 01100000
          606 528 rmoveto
          -143 hlineto
          hintmask 10100000
          -167 -204 167 -205 rlineto
          143 hlineto
          -138 205 rlineto
          -98 204 rmoveto
          -143 hlineto
          -167 -204 167 -205 rlineto
          143 hlineto
          -138 205 rlineto
          endchar
        </CharString>
        <CharString name="guillemotright">
          -100 324 204 hstemhm
          61 546 hintmask 11000000
          199 324 rmoveto
          -138 -205 rlineto
          143 hlineto
          167 205 -167 204 rlineto
          -143 hlineto
          374 -204 rmoveto
          -138 -205 rlineto
          143 hlineto
          167 205 -167 204 rlineto
          -143 hlineto
          endchar
        </CharString>
        <CharString name="guilsinglleft">
          -434 528 -20 hstem
          11 310 vstem
          321 528 rmoveto
          -143 hlineto
          -167 -204 167 -205 rlineto
          143 hlineto
          -138 205 rlineto
          endchar
        </CharString>
        <CharString name="guilsinglright">
          -434 528 -20 hstem
          12 310 vstem
          150 324 rmoveto
          -138 -205 rlineto
          143 hlineto
          167 205 -167 204 rlineto
          -143 hlineto
          endchar
        </CharString>
        <CharString name="h">
          -100 21 -21 393 147 185 -20 hstem
          60 199 150 199 vstem
          259 725 rmoveto
          -199 -725 199 310 hlineto
          45 33 38 50 44 23 -31 -44 vhcurveto
          -318 199 342 vlineto
          125 -59 73 -125 -63 -60 -25 -42 -42 vhcurveto
          endchar
        </CharString>
        <CharString name="hbar">
          -100 21 -21 393 147 35 93 -93 150 hstemhm
          60 199 150 199 hintmask 11011100
          259 725 rmoveto
          -199 hlineto
          hintmask 11101100
          -57 -62 vlineto
          hintmask 11011100
          -93 62 -575 199 310 vlineto
          45 33 38 50 44 23 -31 -44 vhcurveto
          -318 199 342 vlineto
          125 -59 73 -125 -63 -60 -25 -42 -42 vhcurveto
          102 70 vlineto
          hintmask 11101100
          93 -70 vlineto
          endchar
        </CharString>
        <CharString name="hcircumflex">
          -100 21 -21 393 147 185 -20 35 145 hstemhm
          60 199 150 199 hintmask 11101100
          259 725 rmoveto
          -199 -725 199 310 hlineto
          45 33 38 50 44 23 -31 -44 vhcurveto
          -318 199 342 vlineto
          125 -59 73 -125 -63 -60 -25 -42 -42 vhcurveto
          hintmask 11111100
          -35 412 rmoveto
          -128 hlineto
          -139 -145 rlineto
          127 hlineto
          75 77 74 -77 rlineto
          130 hlineto
          endchar
        </CharString>
        <CharString name="house">
          -167 0 79 hstem
          75 97 255 98 vstem
          300 563 rmoveto
          -225 -253 rlineto
          -310 450 310 vlineto
          -225 116 rmoveto
          127 -142 rlineto
          -205 -255 205 vlineto
          endchar
        </CharString>
        <CharString name="hungarumlaut">
          -434 591 134 hstem
          -13 467 vstem
          241 725 rmoveto
          -178 hlineto
          -76 -134 rlineto
          117 hlineto
          139 130 rlineto
          209 4 rmoveto
          -178 hlineto
          -76 -134 rlineto
          117 hlineto
          139 130 rlineto
          endchar
        </CharString>
        <CharString name="hyphen">
          -434 196 158 hstem
          39 255 vstem
          294 354 rmoveto
          -255 -158 255 hlineto
          endchar
        </CharString>
        <CharString name="i">
          -434 21 -21 528 -20 82 135 hstem
          67 199 vstem
          266 528 rmoveto
          -199 -528 199 hlineto
          725 vmoveto
          -199 -135 199 hlineto
          endchar
        </CharString>
        <CharString name="iacute">
          -434 21 -21 528 -20 84 133 hstem
          67 199 vstem
          266 hmoveto
          528 -199 -528 vlineto
          290 721 rmoveto
          -2 4 rlineto
          -192 hlineto
          -93 -133 rlineto
          128 hlineto
          endchar
        </CharString>
        <CharString name="ibreve">
          -434 21 -21 528 -20 73 94 -94 144 hstemhm
          67 199 hintmask 11011000
          266 528 rmoveto
          -199 -528 199 hlineto
          -10 725 rmoveto
          hintmask 11101000
          -21 -4 -36 -29 -50 hhcurveto
          -24 -21 7 10 -16 hvcurveto
          hintmask 11011000
          -15 10 -10 13 -2 10 rrcurveto
          -96 hlineto
          -67 69 -77 115 114 71 77 67 vhcurveto
          endchar
        </CharString>
        <CharString name="icircumflex">
          -434 21 -21 528 -20 72 145 -68 68 hstemhm
          67 199 hintmask 11101000
          266 528 rmoveto
          -199 -528 199 hlineto
          -36 725 rmoveto
          -127 hlineto
          -140 -145 rlineto
          128 hlineto
          hintmask 11011000
          75 77 rlineto
          hintmask 11101000
          74 -77 rlineto
          130 hlineto
          endchar
        </CharString>
        <CharString name="idieresis">
          -434 21 -21 528 -20 78 139 hstemhm
          -20 152 -65 199 -65 152 hintmask 11101000
          266 528 rmoveto
          -199 -528 199 hlineto
          hintmask 11100100
          87 725 rmoveto
          hintmask 11101000
          -152 -139 hlineto
          hintmask 11100100
          152 hlineto
          hintmask 11101000
          -221 139 rmoveto
          hintmask 11110000
          -152 -139 hlineto
          hintmask 11101000
          152 hlineto
          endchar
        </CharString>
        <CharString name="igrave">
          -434 21 -21 528 -20 84 133 hstem
          67 199 vstem
          266 hmoveto
          528 -199 -528 vlineto
          196 592 rmoveto
          -93 133 rlineto
          -192 hlineto
          -2 -4 160 -129 rlineto
          endchar
        </CharString>
        <CharString name="ij">
          -99 -210 137 94 -21 528 -20 82 135 hstem
          67 199 136 199 vstem
          601 528 rmoveto
          -199 -537 hlineto
          -41 -16 -23 -40 vhcurveto
          -52 -119 hlineto
          -11 31 61 -7 32 hhcurveto
          128 55 53 128 hvcurveto
          754 vmoveto
          -199 -135 199 hlineto
          -335 -62 rmoveto
          -199 -528 199 hlineto
          725 vmoveto
          -199 -135 199 hlineto
          endchar
        </CharString>
        <CharString name="imacron">
          -434 21 -21 528 -20 97 100 hstem
          67 199 vstem
          266 528 rmoveto
          -199 -528 199 hlineto
          59 705 rmoveto
          -317 -100 317 hlineto
          endchar
        </CharString>
        <CharString name="infinity">
          -184 214 83 155 82 hstem
          9 86 393 86 vstem
          435 534 rmoveto
          -72 -39 -58 -32 -27 hvcurveto
          59 -39 -44 31 -61 hhcurveto
          -82 -62 -65 -97 -97 65 -61 71 63 41 38 56 41 hvcurveto
          -83 53 54 -11 38 hhcurveto
          71 68 60 105 97 -64 58 -75 hvcurveto
          -280 -82 rmoveto
          44 20 -32 -45 27 hvcurveto
          3 -6 rlineto
          -35 -22 -31 -37 -39 hhcurveto
          -35 -27 35 41 52 28 27 32 hvcurveto
          272 hmoveto
          37 24 -34 -46 -32 -20 -43 -37 -30 -23 12 66 -43 hvcurveto
          3 4 rlineto
          38 27 25 35 37 hhcurveto
          endchar
        </CharString>
        <CharString name="integral">
          -496 -98 68 865 68 hstem
          54 163 vstem
          272 903 rmoveto
          -77 hlineto
          -68 -73 -35 -77 -157 26 -623 0 hvcurveto
          -39 -54 -2 -27 vhcurveto
          -68 77 vlineto
          68 73 35 77 157 -26 623 0 hvcurveto
          40 54 1 27 vhcurveto
          endchar
        </CharString>
        <CharString name="integralbt">
          -167 -244 68 hstem
          246 137 vstem
          232 848 rmoveto
          8 -492 6 -491 0 vvcurveto
          -40 -54 -1 -27 vhcurveto
          -68 77 vlineto
          68 73 35 77 75 -6 453 -6 452 hvcurveto
          endchar
        </CharString>
        <CharString name="integraltp">
          -167 774 68 hstem
          217 137 vstem
          435 842 rmoveto
          -77 hlineto
          -68 -73 -35 -77 -75 6 -453 6 -452 hvcurveto
          139 hlineto
          -8 492 -6 491 0 vvcurveto
          40 54 1 27 vhcurveto
          endchar
        </CharString>
        <CharString name="intersection">
          -48 21 -21 22 -21 575 112 hstemhm
          69 140 298 141 hintmask 01111000
          69 1 rmoveto
          140 447 hlineto
          53 37 75 112 133 16 -78 -50 vhcurveto
          hintmask 10111000
          -448 141 444 vlineto
          139 -69 105 -221 -220 -69 -105 -139 vhcurveto
          endchar
        </CharString>
        <CharString name="iogonek">
          -434 -211 91 141 -21 528 -20 78 139 hstemhm
          67 199 -176 153 -137 223 hintmask 11111000
          266 528 rmoveto
          -199 -528 79 hlineto
          -20 -25 -20 -30 -42 vvcurveto
          -82 62 -32 65 vhcurveto
          hintmask 11110010
          33 32 5 10 31 hvcurveto
          76 vlineto
          hintmask 11111000
          -42 hlineto
          -45 -15 25 26 26 8 27 8 16 hvcurveto
          23 hlineto
          hintmask 11110100
          -23 725 rmoveto
          -153 -139 153 hlineto
          endchar
        </CharString>
        <CharString name="itilde">
          -434 21 -21 528 -20 74 103 -103 143 -103 103 hstemhm
          67 199 hintmask 11010100
          266 528 rmoveto
          -199 -528 199 hlineto
          42 725 rmoveto
          hintmask 11100100
          -23 -8 -17 -17 -26 hhcurveto
          hintmask 11010100
          -53 -56 40 -64 hhcurveto
          -84 -56 -71 -72 hvcurveto
          81 hlineto
          hintmask 11001100
          23 8 17 17 26 hhcurveto
          hintmask 11100100
          53 56 -40 64 hhcurveto
          hintmask 11010100
          84 56 71 72 hvcurveto
          endchar
        </CharString>
        <CharString name="j">
          -434 -210 137 601 -20 82 135 hstem
          67 199 vstem
          266 528 rmoveto
          -199 -537 hlineto
          -41 -16 -23 -40 vhcurveto
          -52 -119 hlineto
          -11 31 61 -7 32 hhcurveto
          128 55 53 128 hvcurveto
          754 vmoveto
          -199 -135 199 hlineto
          endchar
        </CharString>
        <CharString name="jcircumflex">
          -434 -210 137 601 -20 72 145 -68 68 hstemhm
          67 199 hintmask 11101000
          266 528 rmoveto
          -199 -537 hlineto
          -41 -16 -23 -40 vhcurveto
          -52 -119 hlineto
          -11 31 61 -7 32 hhcurveto
          128 55 53 128 hvcurveto
          -34 754 rmoveto
          -128 hlineto
          -139 -145 rlineto
          128 hlineto
          hintmask 11011000
          74 77 rlineto
          hintmask 11101000
          74 -77 rlineto
          130 hlineto
          endchar
        </CharString>
        <CharString name="k">
          -100 21 -21 528 -20 218 -20 hstem
          60 199 vstem
          259 726 rmoveto
          -199 -726 199 114 hlineto
          69 67 111 -181 rlineto
          226 hlineto
          -200 315 195 213 rlineto
          -232 hlineto
          -169 -202 rlineto
          endchar
        </CharString>
        <CharString name="kcommaaccent">
          -100 -175 116 80 -21 528 -20 218 -20 hstemhm
          60 199 10 129 hintmask 11111000
          259 726 rmoveto
          -199 -726 199 114 hlineto
          69 67 111 -181 rlineto
          226 hlineto
          -200 315 195 213 rlineto
          -232 hlineto
          -169 -202 rlineto
          hintmask 11111100
          139 -385 rmoveto
          -129 -116 49 hlineto
          -41 -92 rlineto
          67 hlineto
          54 99 rlineto
          endchar
        </CharString>
        <CharString name="kgreenlandic">
          -100 21 -21 528 -20 hstem
          60 199 vstem
          660 528 rmoveto
          -232 hlineto
          -169 -202 rlineto
          202 -199 -528 199 114 vlineto
          69 67 111 -181 rlineto
          226 hlineto
          -200 315 rlineto
          endchar
        </CharString>
        <CharString name="l">
          -434 21 -21 725 -20 hstem
          67 199 vstem
          266 725 rmoveto
          -199 -725 199 hlineto
          endchar
        </CharString>
        <CharString name="lacute">
          -434 21 -21 725 -20 47 133 hstemhm
          67 199 hintmask 11010000
          266 hmoveto
          725 -199 -725 vlineto
          hintmask 11110000
          290 881 rmoveto
          -2 4 rlineto
          -192 hlineto
          -93 -133 rlineto
          128 hlineto
          endchar
        </CharString>
        <CharString name="lcaron">
          -267 21 -21 513 175 -175 212 hstemhm
          67 199 37 186 hintmask 10111000
          266 725 rmoveto
          -199 -725 199 hlineto
          hintmask 11011000
          223 688 rmoveto
          -186 -175 71 hlineto
          -71 -182 rlineto
          95 hlineto
          91 192 rlineto
          endchar
        </CharString>
        <CharString name="lcommaaccent">
          -434 -175 116 80 -21 725 -20 hstem
          67 199 vstem
          266 725 rmoveto
          -199 -725 199 hlineto
          -35 -59 rmoveto
          -129 -116 49 hlineto
          -41 -92 rlineto
          67 hlineto
          54 99 rlineto
          endchar
        </CharString>
        <CharString name="ldot">
          -233 21 -21 389 139 197 -20 hstem
          67 199 93 153 vstem
          266 725 rmoveto
          -199 -725 199 hlineto
          246 528 rmoveto
          -153 -139 153 hlineto
          endchar
        </CharString>
        <CharString name="less">
          -107 8 -21 548 -20 hstem
          67 525 vstem
          592 535 rmoveto
          -525 -203 rlineto
          -143 vlineto
          525 -202 rlineto
          142 vlineto
          -359 131 359 132 rlineto
          endchar
        </CharString>
        <CharString name="lessequal">
          -107 0 132 hstem
          66 528 vstem
          594 675 rmoveto
          -528 -185 rlineto
          -143 vlineto
          528 -184 rlineto
          142 vlineto
          -372 113 372 114 rlineto
          -400 vmoveto
          -528 -132 528 hlineto
          endchar
        </CharString>
        <CharString name="lira">
          -100 0 147 68 83 43 84 127 148 hstemhm
          125 174.5 -174.5 197 117 199 hintmask 11110110
          381 700 rmoveto
          -178 -78 -92 -115 hvcurveto
          -68 -94 -83 94 -44 vlineto
          hintmask 11111010
          -94 -83 94 -68 -64 -147 523 147 -289 hlineto
          9 68 rlineto
          135 83 -123 hlineto
          6 43 rlineto
          117 84 hlineto
          hintmask 11110110
          -117 69 hlineto
          32 27 26 32 32 26 -26 -32 vhcurveto
          -24 199 24 vlineto
          114 -88 92 -169 vhcurveto
          endchar
        </CharString>
        <CharString name="logicalnot">
          -107 335 155 hstem
          450 154 vstem
          604 490 rmoveto
          -554 -155 400 -181 154 hlineto
          endchar
        </CharString>
        <CharString name="longs">
          -377 21 -21 393 135 74 135 hstem
          82 199 vstem
          275 737 rmoveto
          -114 -79 -43 -144 hvcurveto
          -22 -74 -135 74 -393 199 549 vlineto
          37 12 16 44 vhcurveto
          46 117 hlineto
          10 -27 -52 8 -29 hhcurveto
          endchar
        </CharString>
        <CharString name="lslash">
          -434 21 -21 725 -20 hstem
          67 199 vstem
          266 725 rmoveto
          -199 -392 hlineto
          -82 -50 rlineto
          -98 vlineto
          82 49 rlineto
          -234 199 351 vlineto
          96 58 rlineto
          100 vlineto
          -96 -59 rlineto
          endchar
        </CharString>
        <CharString name="m">
          233 21 -21 393 147 -12 -20 hstemhm
          60 199 142 199 142 199 cntrmask 00011100
          hintmask 11011100
          761 540 rmoveto
          -71 -69 -36 -55 -41 hvcurveto
          58 -26 -53 33 -81 hhcurveto
          -73 -71 -35 -56 -40 hvcurveto
          hintmask 10111100
          -13 79 rlineto
          -163 -528 199 hlineto
          hintmask 11011100
          310 vlineto
          45 31 38 48 41 22 -31 -44 vhcurveto
          -318 199 310 vlineto
          45 31 38 48 41 22 -31 -44 vhcurveto
          -318 199 342 vlineto
          125 -58 73 -122 vhcurveto
          endchar
        </CharString>
        <CharString name="macron">
          -434 605 100 hstem
          9 316 vstem
          325 705 rmoveto
          -316 -100 316 hlineto
          endchar
        </CharString>
        <CharString name="minus">
          -107 198 132 hstem
          66 528 vstem
          594 330 rmoveto
          -528 -132 528 hlineto
          endchar
        </CharString>
        <CharString name="minute">
          -463 511 214 hstem
          59 196 vstem
          253 725 rmoveto
          -178 hlineto
          -16 -214 rlineto
          117 hlineto
          79 210 rlineto
          endchar
        </CharString>
        <CharString name="mu">
          -100 -175 -21 196 135 -125 -21 32 -21 528 -20 hstemhm
          58 199 150 199 hintmask 10011110
          606 528 rmoveto
          -199 hlineto
          hintmask 11001110
          -310 vlineto
          -45 -33 -38 -50 -44 -23 31 44 vhcurveto
          318 -199 -724 199 vlineto
          hintmask 10101110
          185 vlineto
          69 4 65 34 39 53 rrcurveto
          hintmask 10011110
          13 -80 rlineto
          163 hlineto
          endchar
        </CharString>
        <CharString name="multiply">
          -107 2 524 hstem
          68 524 vstem
          498 526 rmoveto
          -168 -169 -168 169 -94 -94 169 -168 -169 -168 94 -94 168 169 168 -169 94 94 -169 168 169 168 rlineto
          endchar
        </CharString>
        <CharString name="n">
          -100 21 -21 393 147 -12 -20 hstemhm
          60 199 150 199 hintmask 11011000
          424 540 rmoveto
          -75 -72 -36 -56 -41 hvcurveto
          hintmask 10111000
          -13 80 rlineto
          -163 -528 199 hlineto
          hintmask 11011000
          310 vlineto
          45 33 38 50 44 23 -31 -44 vhcurveto
          -318 199 342 vlineto
          125 -59 73 -125 vhcurveto
          endchar
        </CharString>
        <CharString name="nacute">
          -100 21 -21 393 147 -12 -20 84 133 hstemhm
          60 199 150 199 hintmask 11011100
          424 540 rmoveto
          -75 -72 -36 -56 -41 hvcurveto
          hintmask 10111100
          -13 80 rlineto
          -163 -528 199 hlineto
          hintmask 11011100
          310 vlineto
          45 33 38 50 44 23 -31 -44 vhcurveto
          -318 199 342 vlineto
          125 -59 73 -125 vhcurveto
          hintmask 10111100
          100 181 rmoveto
          -2 4 rlineto
          -192 hlineto
          -93 -133 rlineto
          128 hlineto
          endchar
        </CharString>
        <CharString name="napostrophe">
          91 21 -21 393 147 -60 48 44 116 hstemhm
          81 129 41 199 150 199 hintmask 10111110
          210 688 rmoveto
          -129 -116 49 hlineto
          -41 -92 rlineto
          67 hlineto
          54 99 rlineto
          hintmask 11011110
          405 -39 rmoveto
          -75 -72 -36 -56 -41 hvcurveto
          hintmask 10111110
          -13 80 rlineto
          -163 -528 199 hlineto
          hintmask 11011110
          310 vlineto
          45 33 38 50 44 23 -31 -44 vhcurveto
          -318 199 342 vlineto
          125 -59 73 -125 vhcurveto
          endchar
        </CharString>
        <CharString name="ncaron">
          -100 21 -21 393 147 -12 -20 72 145 hstemhm
          60 199 150 199 hintmask 11011100
          424 540 rmoveto
          -75 -72 -36 -56 -41 hvcurveto
          hintmask 10111100
          -13 80 rlineto
          -163 -528 199 hlineto
          hintmask 11011100
          310 vlineto
          45 33 38 50 44 23 -31 -44 vhcurveto
          -318 199 342 vlineto
          125 -59 73 -125 vhcurveto
          hintmask 10111100
          113 185 rmoveto
          -130 hlineto
          -74 -77 -75 77 rlineto
          -128 hlineto
          140 -145 rlineto
          127 hlineto
          endchar
        </CharString>
        <CharString name="ncommaaccent">
          -100 -175 116 80 -21 393 147 -12 -20 hstemhm
          60 199 10 129 11 199 hintmask 11101010
          424 540 rmoveto
          -75 -72 -36 -56 -41 hvcurveto
          hintmask 11011010
          -13 80 rlineto
          -163 -528 199 hlineto
          hintmask 11101010
          310 vlineto
          45 33 38 50 44 23 -31 -44 vhcurveto
          -318 199 342 vlineto
          125 -59 73 -125 vhcurveto
          hintmask 11011110
          -26 -599 rmoveto
          -129 -116 49 hlineto
          -41 -92 rlineto
          67 hlineto
          54 99 rlineto
          endchar
        </CharString>
        <CharString name="nine">
          -100 -12 135 126 120 196 135 hstemhm
          36 193 -176 178 194 201 hintmask 11110100
          328 700 rmoveto
          -178 -114 -86 -154 -137 108 -74 136 43 61 15 37 41 hvcurveto
          -58 vlineto
          -72 -36 -48 -64 vhcurveto
          hintmask 11101100
          -64 -30 41 49 hvcurveto
          7 -178 vlineto
          -152 112 -80 163 200 98 106 267 vhcurveto
          hintmask 11110100
          233 -98 106 -200 vhcurveto
          -1 -135 rmoveto
          63 35 -37 -63 -63 -36 -33 -63 -63 -34 35 63 63 35 35 63 hvcurveto
          endchar
        </CharString>
        <CharString name="notequal">
          -107 0 217 -132 132 94 132 -132 217 hstemhm
          66 528 hintmask 01011000
          557 528 rmoveto
          -113 hlineto
          hintmask 01101000
          -55 -85 rlineto
          -323 -132 238 hlineto
          -61 -94 rlineto
          -177 -132 92 hlineto
          hintmask 10101000
          -55 -85 rlineto
          113 hlineto
          hintmask 01101000
          55 85 rlineto
          323 132 -238 hlineto
          61 94 rlineto
          177 132 -92 hlineto
          endchar
        </CharString>
        <CharString name="ntilde">
          -100 21 -21 393 147 -12 -20 74 103 -103 143 -103 103 hstemhm
          60 199 150 199 hintmask 11001011
          424 540 rmoveto
          -75 -72 -36 -56 -41 hvcurveto
          hintmask 10101011
          -13 80 rlineto
          -163 -528 199 hlineto
          hintmask 11001011
          310 vlineto
          45 33 38 50 44 23 -31 -44 vhcurveto
          -318 199 342 vlineto
          125 -59 73 -125 vhcurveto
          hintmask 10101011
          51 185 rmoveto
          hintmask 10110011
          -23 -8 -17 -17 -26 hhcurveto
          hintmask 10101011
          -53 -56 40 -64 hhcurveto
          -84 -56 -71 -72 hvcurveto
          81 hlineto
          hintmask 10100111
          23 8 17 17 26 hhcurveto
          hintmask 10110011
          53 56 -40 64 hhcurveto
          hintmask 10101011
          84 56 71 72 hvcurveto
          endchar
        </CharString>
        <CharString name="numbersign">
          -107 10 -21 170 109 123 111 198 -20 hstem
          20 619 vstem
          592 700 rmoveto
          -120 hlineto
          -44 -198 rlineto
          -111 hlineto
          45 198 rlineto
          -122 hlineto
          -44 -198 rlineto
          -130 -111 108 hlineto
          -28 -123 rlineto
          -126 -109 100 hlineto
          -36 -170 rlineto
          120 hlineto
          36 170 rlineto
          115 hlineto
          -37 -170 rlineto
          117 hlineto
          37 170 rlineto
          134 109 -106 hlineto
          26 123 rlineto
          113 111 -93 hlineto
          -138 -112 rmoveto
          -29 -123 rlineto
          -114 hlineto
          27 123 rlineto
          endchar
        </CharString>
        <CharString name="o">
          -100 -12 135 282 135 hstem
          36 199 197 199 vstem
          333 540 rmoveto
          -180 -117 -91 -185 -185 117 -91 180 180 118 91 185 185 -118 91 -180 hvcurveto
          -135 vmoveto
          70 29 -43 -70 hvcurveto
          -57 vlineto
          -70 -29 -42 -70 -70 -28 42 70 vhcurveto
          57 vlineto
          70 28 43 70 vhcurveto
          endchar
        </CharString>
        <CharString name="oacute">
          -100 -12 135 282 135 52 133 hstem
          36 199 197 199 vstem
          333 540 rmoveto
          -180 -117 -91 -185 -185 117 -91 180 180 118 91 185 185 -118 91 -180 hvcurveto
          -135 vmoveto
          70 29 -43 -70 hvcurveto
          -57 vlineto
          -70 -29 -42 -70 -70 -28 42 70 vhcurveto
          57 vlineto
          70 28 43 70 vhcurveto
          191 316 rmoveto
          -2 4 rlineto
          -192 hlineto
          -93 -133 rlineto
          128 hlineto
          endchar
        </CharString>
        <CharString name="obreve">
          -100 -12 135 282 135 41 94 -94 144 hstemhm
          36 199 197 199 hintmask 11011100
          333 540 rmoveto
          -180 -117 -91 -185 -185 117 -91 180 180 118 91 185 185 -118 91 -180 hvcurveto
          -135 vmoveto
          70 29 -43 -70 hvcurveto
          -57 vlineto
          -70 -29 -42 -70 -70 -28 42 70 vhcurveto
          57 vlineto
          70 28 43 70 vhcurveto
          90 320 rmoveto
          hintmask 11101100
          -21 -4 -36 -29 -50 hhcurveto
          -24 -21 7 10 -16 hvcurveto
          hintmask 11011100
          -15 10 -10 13 -2 10 rrcurveto
          -96 hlineto
          -67 69 -77 115 114 71 77 67 vhcurveto
          endchar
        </CharString>
        <CharString name="ocircumflex">
          -100 -12 135 282 135 40 145 -68 68 hstemhm
          36 199 197 199 hintmask 11101100
          333 540 rmoveto
          -180 -117 -91 -185 -185 117 -91 180 180 118 91 185 185 -118 91 -180 hvcurveto
          -135 vmoveto
          70 29 -43 -70 hvcurveto
          -57 vlineto
          -70 -29 -42 -70 -70 -28 42 70 vhcurveto
          57 vlineto
          70 28 43 70 vhcurveto
          64 320 rmoveto
          -127 hlineto
          -140 -145 rlineto
          128 hlineto
          hintmask 11011100
          75 77 rlineto
          hintmask 11101100
          74 -77 rlineto
          130 hlineto
          endchar
        </CharString>
        <CharString name="odieresis">
          -100 -12 135 282 135 46 139 hstemhm
          36 199 -88 152 69 152 -88 199 hintmask 11110010
          333 540 rmoveto
          -180 -117 -91 -185 -185 117 -91 180 180 118 91 185 185 -118 91 -180 hvcurveto
          -135 vmoveto
          70 29 -43 -70 hvcurveto
          -57 vlineto
          -70 -29 -42 -70 -70 -28 42 70 vhcurveto
          57 vlineto
          70 28 43 70 vhcurveto
          hintmask 11101100
          187 320 rmoveto
          -152 -139 152 hlineto
          -221 139 rmoveto
          -152 -139 152 hlineto
          endchar
        </CharString>
        <CharString name="oe">
          233 -12 127 -127 135 107 94 81 135 -127 127 hstemhm
          29 199 177 193 175 201 -193 193 hintmask 1010111100000000
          686 540 rmoveto
          -74 -62 -17 -33 -48 hvcurveto
          33 -48 -64 17 -74 hhcurveto
          -174 -113 -91 -185 -185 113 -91 174 74 63 16 34 49 hvcurveto
          -34 50 66 -16 80 hhcurveto
          hintmask 1010111010000000
          183 93 78 126 hvcurveto
          -193 hlineto
          -43 -23 -34 -64 -69 -27 42 73 vhcurveto
          hintmask 1010111100000000
          376 34 hlineto
          190 -104 86 -184 vhcurveto
          hintmask 0111011100000000
          -370 -135 rmoveto
          63 26 -43 -70 hvcurveto
          -57 vlineto
          -70 -26 -42 -63 -63 -25 42 70 vhcurveto
          57 vlineto
          70 25 43 63 vhcurveto
          hintmask 1010111100000000
          378 8 rmoveto
          50 29 -34 -55 hvcurveto
          -174 hlineto
          55 6 28 34 61 hhcurveto
          endchar
        </CharString>
        <CharString name="ogonek">
          -434 -211 91 hstem
          72 222 vstem
          212 12 rmoveto
          -90 hlineto
          -23 -28 -27 -32 -49 vvcurveto
          -82 62 -32 64 33 32 5 10 31 vhcurveto
          76 -42 vlineto
          -45 -15 25 26 30 12 33 8 14 hvcurveto
          endchar
        </CharString>
        <CharString name="ograve">
          -100 -12 135 282 135 52 133 hstem
          36 199 197 199 vstem
          333 540 rmoveto
          -180 -117 -91 -185 -185 117 -91 180 180 118 91 185 185 -118 91 -180 hvcurveto
          -135 vmoveto
          70 29 -43 -70 hvcurveto
          -57 vlineto
          -70 -29 -42 -70 -70 -28 42 70 vhcurveto
          57 vlineto
          70 28 43 70 vhcurveto
          97 187 rmoveto
          -93 133 rlineto
          -192 hlineto
          -2 -4 160 -129 rlineto
          endchar
        </CharString>
        <CharString name="ohungarumlaut">
          -100 -12 135 282 135 51 134 hstem
          36 199 197 199 vstem
          333 540 rmoveto
          -180 -117 -91 -185 -185 117 -91 180 180 118 91 185 185 -118 91 -180 hvcurveto
          -135 vmoveto
          70 29 -43 -70 hvcurveto
          -57 vlineto
          -70 -29 -42 -70 -70 -28 42 70 vhcurveto
          57 vlineto
          70 28 43 70 vhcurveto
          81 320 rmoveto
          -178 hlineto
          -76 -134 rlineto
          117 hlineto
          139 130 rlineto
          209 4 rmoveto
          -178 hlineto
          -76 -134 rlineto
          117 hlineto
          139 130 rlineto
          endchar
        </CharString>
        <CharString name="omacron">
          -100 -12 135 282 135 65 100 hstemhm
          36 199 -60 317 -60 199 hintmask 11110100
          333 540 rmoveto
          -180 -117 -91 -185 -185 117 -91 180 180 118 91 185 185 -118 91 -180 hvcurveto
          -135 vmoveto
          70 29 -43 -70 hvcurveto
          -57 vlineto
          -70 -29 -42 -70 -70 -28 42 70 vhcurveto
          57 vlineto
          70 28 43 70 vhcurveto
          hintmask 11101000
          159 300 rmoveto
          -317 -100 317 hlineto
          endchar
        </CharString>
        <CharString name="one">
          -100 0 154 311 116 108 -20 hstem
          268 199 vstem
          467 689 rmoveto
          -67 hlineto
          -78 -51 -124 -51 -93 -6 rrcurveto
          -116 163 -311 -163 -154 519 154 -157 vlineto
          endchar
        </CharString>
        <CharString name="oneeighth">
          233 -12 81 98 76 37 92 -39 81 145 69 65 -20 27 -20 hstemhm
          145 131 312 130 -114 114 123 113 -113 130 hintmask 1110101110010000
          779 167 rmoveto
          32 30 -17 -32 -33 -27 -16 -35 -36 -25 16 33 32 28 17 33 hvcurveto
          hintmask 1101101101100000
          247 vmoveto
          -98 -77 -43 -78 -47 24 -19 31 -20 hvcurveto
          -5 vlineto
          hintmask 1110101110010000
          -43 -22 -28 -23 -49 vvcurveto
          -78 74 -42 117 116 76 42 78 49 -28 23 -44 22 vhcurveto
          5 vlineto
          hintmask 1110101110100000
          32 20 23 19 47 vvcurveto
          hintmask 1101101101100000
          78 -78 43 -97 vhcurveto
          -81 vmoveto
          35 27 -13 -32 hvcurveto
          hintmask 1110101101100000
          -33 -30 -12 -32 -33 -28 12 33 vhcurveto
          hintmask 1101101101100000
          32 25 13 36 vhcurveto
          hintmask 1110101110010000
          -12 367 rmoveto
          -96 hlineto
          -410 -712 rlineto
          95 hlineto
          hintmask 1110110110010000
          -80 705 rmoveto
          -44 hlineto
          -51 -31 -82 -30 -61 -4 rrcurveto
          -69 107 -187 -107 -92 341 92 -103 vlineto
          endchar
        </CharString>
        <CharString name="onehalf">
          233 0 102 -93 -21 293 92 -38 85 140 69 65 -20 26 -20 hstemhm
          145 131 326 118 120 130 hintmask 1010101100000000
          766 700 rmoveto
          -96 hlineto
          hintmask 0110110100000000
          -410 -712 rlineto
          95 hlineto
          -79 706 rmoveto
          -44 hlineto
          -51 -31 -82 -30 -61 -4 rrcurveto
          -69 107 -187 -107 -92 341 92 -103 vlineto
          hintmask 1001101111000000
          520 47 rmoveto
          -129 -65 -56 -84 -4 0 -4 1 -5 hvcurveto
          117 12 hlineto
          32 23 24 40 40 17 -21 -23 -38 -74 -34 -102 -83 vhcurveto
          -37 -30 -26 -32 -45 vvcurveto
          -29 374 102 -197 vlineto
          93 61 99 43 90 vvcurveto
          74 -67 50 -107 vhcurveto
          endchar
        </CharString>
        <CharString name="onequarter">
          233 0 173 -164 -21 97 88 107 92 187 69 65 -20 27 -20 hstemhm
          145 131 515 124 hintmask 1001101110000000
          766 700 rmoveto
          -96 hlineto
          hintmask 0111110110000000
          -410 -712 rlineto
          95 hlineto
          -79 705 rmoveto
          -44 hlineto
          -51 -31 -82 -30 -61 -4 rrcurveto
          -69 107 -187 -107 -92 341 92 -103 vlineto
          421 48 rmoveto
          -30 -94 -54 -95 -42 -57 rrcurveto
          -89 220 vlineto
          hintmask 1001101110000000
          -85 124 vlineto
          hintmask 0011101110000000
          85 63 vlineto
          hintmask 1001101110000000
          88 -63 207 -56 vlineto
          -9 -34 -37 -58 -22 -30 rrcurveto
          -85 -130 vlineto
          62 58 93 123 9 66 rrcurveto
          endchar
        </CharString>
        <CharString name="onesuperior">
          -367 316 92 187 69 65 -20 hstem
          137 131 vstem
          268 729 rmoveto
          -44 hlineto
          -51 -31 -82 -30 -61 -4 rrcurveto
          -69 107 -187 -107 -92 341 92 -103 vlineto
          endchar
        </CharString>
        <CharString name="ordfeminine">
          -367 405 75 -75 81 65 56 23 107 -77 77 hstemhm
          12 131 -121 129 100 130 hintmask 10010101
          203 737 rmoveto
          hintmask 10010011
          -119 -62 -40 -58 -3 0 -3 1 -3 hvcurveto
          128 hlineto
          hintmask 10101011
          24 27 6 23 28 22 -12 -25 vhcurveto
          -16 vlineto
          hintmask 10110101
          -151 -88 -18 -95 -66 50 -23 72 60 39 19 21 29 hvcurveto
          hintmask 01010101
          -24 12 31 -16 53 hhcurveto
          43 25 15 0 hvcurveto
          69 vlineto
          0 -15 -3 -9 -14 -7 11 13 vhcurveto
          123 vlineto
          hintmask 10010101
          78 -84 26 -94 vhcurveto
          48 -213 rmoveto
          -26 -31 -18 -33 -22 -22 5 25 vhcurveto
          hintmask 10110101
          23 31 18 77 vhcurveto
          endchar
        </CharString>
        <CharString name="ordmasculine">
          -367 405 81 170 81 hstem
          12 130 129 130 vstem
          206 737 rmoveto
          -117 -77 -55 -111 -111 77 -55 117 118 77 55 111 111 -77 55 -118 hvcurveto
          -81 vmoveto
          46 19 -26 -42 hvcurveto
          -34 vlineto
          -42 -19 -26 -46 -46 -18 26 42 vhcurveto
          34 vlineto
          42 18 26 46 vhcurveto
          endchar
        </CharString>
        <CharString name="orthogonal">
          212 0 112 hstem
          177 122 vstem
          299 625 rmoveto
          -122 -625 625 112 -503 hlineto
          endchar
        </CharString>
        <CharString name="oslash">
          -100 -12 135 282 135 hstem
          36 199 197 199 vstem
          622 559 rmoveto
          -92 hlineto
          -40 -50 rlineto
          21 -44 -53 10 -60 hhcurveto
          -180 -117 -91 -185 -96 32 -71 55 -46 hvcurveto
          -77 -96 rlineto
          92 hlineto
          47 59 rlineto
          -17 42 50 -9 56 hhcurveto
          180 118 91 185 91 -29 69 -51 46 hvcurveto
          -121 -150 rmoveto
          1 -9 1 -9 -10 vvcurveto
          -57 vlineto
          -70 -29 -42 -70 -21 -17 4 7 -14 vhcurveto
          52 271 rmoveto
          25 20 -6 -10 15 hvcurveto
          -155 -194 rlineto
          -2 12 -1 13 15 vvcurveto
          57 vlineto
          70 28 43 70 vhcurveto
          endchar
        </CharString>
        <CharString name="oslashacute">
          -100 -12 135 282 135 52 133 hstem
          36 199 197 199 vstem
          622 559 rmoveto
          -92 hlineto
          -40 -50 rlineto
          21 -44 -53 10 -60 hhcurveto
          -180 -117 -91 -185 -96 32 -71 55 -46 hvcurveto
          -77 -96 rlineto
          92 hlineto
          47 59 rlineto
          -17 42 50 -9 56 hhcurveto
          180 118 91 185 91 -29 69 -51 46 hvcurveto
          -121 -150 rmoveto
          1 -9 1 -9 -10 vvcurveto
          -57 vlineto
          -70 -29 -42 -70 -21 -17 4 7 -14 vhcurveto
          52 271 rmoveto
          25 20 -6 -10 15 hvcurveto
          -155 -194 rlineto
          -2 12 -1 13 15 vvcurveto
          57 vlineto
          70 28 43 70 vhcurveto
          192 316 rmoveto
          -2 4 rlineto
          -193 hlineto
          -92 -133 rlineto
          127 hlineto
          endchar
        </CharString>
        <CharString name="otilde">
          -100 -12 135 282 135 42 103 -103 143 -103 103 hstemhm
          36 199 197 199 hintmask 11010110
          333 540 rmoveto
          -180 -117 -91 -185 -185 117 -91 180 180 118 91 185 185 -118 91 -180 hvcurveto
          -135 vmoveto
          70 29 -43 -70 hvcurveto
          -57 vlineto
          -70 -29 -42 -70 -70 -28 42 70 vhcurveto
          57 vlineto
          70 28 43 70 vhcurveto
          142 320 rmoveto
          hintmask 11100110
          -23 -8 -17 -17 -26 hhcurveto
          hintmask 11010110
          -53 -56 40 -64 hhcurveto
          -84 -56 -71 -72 hvcurveto
          81 hlineto
          hintmask 11001110
          23 8 17 17 26 hhcurveto
          hintmask 11100110
          53 56 -40 64 hhcurveto
          hintmask 11010110
          84 56 71 72 hvcurveto
          endchar
        </CharString>
        <CharString name="p">
          -100 -176 -21 185 147 258 147 -12 -20 hstemhm
          61 199 172 199 hintmask 11101100
          408 540 rmoveto
          -71 -58 -28 -59 -39 hvcurveto
          hintmask 11011100
          -17 75 rlineto
          -162 -725 199 245 hlineto
          -41 38 50 -19 60 hhcurveto
          140 83 91 184 hvcurveto
          hintmask 11101100
          186 -83 91 -140 vhcurveto
          -62 -147 rmoveto
          62 24 -40 -62 hvcurveto
          -53 vlineto
          -62 -24 -41 -62 -62 -26 51 62 vhcurveto
          33 vlineto
          62 26 50 62 vhcurveto
          endchar
        </CharString>
        <CharString name="paragraph">
          83 567 121 hstem
          316 128 106 128 vstem
          744 688 rmoveto
          -419 hlineto
          -120 -96 -97 -120 -117 91 -95 116 -4 hvcurveto
          -416 128 728 106 -728 128 728 66 vlineto
          endchar
        </CharString>
        <CharString name="parenleft">
          -378 737 -20 hstem
          55 167 vstem
          235 737 rmoveto
          -115 -123 -65 -162 -164 vvcurveto
          -163 65 -162 115 -123 vhcurveto
          120 hlineto
          -79 123 -54 183 142 vvcurveto
          141 54 185 79 123 vhcurveto
          endchar
        </CharString>
        <CharString name="parenright">
          -378 737 -20 hstem
          167 167 vstem
          34 737 rmoveto
          79 -123 54 -185 -141 vvcurveto
          -142 -54 -183 -79 -123 vhcurveto
          120 hlineto
          115 123 65 162 163 vvcurveto
          164 -65 162 -115 123 vhcurveto
          endchar
        </CharString>
        <CharString name="partialdiff">
          -267 -13 120 219 114 130 130 hstem
          9 149 177 146 vstem
          213 700 rmoveto
          -64 -47 -16 -17 -33 hvcurveto
          -128 vlineto
          11 20 41 20 57 hhcurveto
          95 53 -91 -94 -5 -1 -16 0 hvcurveto
          24 -15 -45 52 -74 hhcurveto
          -113 -78 -99 -135 -106 70 -113 147 164 91 153 213 215 -118 132 -150 hvcurveto
          28 -374 rmoveto
          45 30 -48 -26 5 hvcurveto
          -65 -7 -36 -80 -53 hhcurveto
          -39 -28 42 54 67 33 56 50 hvcurveto
          endchar
        </CharString>
        <CharString name="percent">
          233 -12 76 -43 -21 270 76 -4 76 206 76 -13 -20 hstemhm
          46 124 119 124 165 124 119 124 hintmask 1001101111000000
          230 700 rmoveto
          -130 -54 -72 -108 -106 54 -72 130 130 53 72 106 108 -53 72 -130 hvcurveto
          -76 vmoveto
          44 15 -37 -50 hvcurveto
          -32 vlineto
          -50 -15 -37 -44 -43 -17 37 50 vhcurveto
          32 vlineto
          50 17 37 43 vhcurveto
          hintmask 1010011111000000
          532 -278 rmoveto
          -130 -54 -72 -108 -106 54 -72 130 130 53 72 106 108 -53 72 -130 hvcurveto
          -76 vmoveto
          44 15 -37 -50 hvcurveto
          -32 vlineto
          -50 -15 -37 -44 -43 -17 37 50 vhcurveto
          32 vlineto
          50 17 37 43 vhcurveto
          -3 417 rmoveto
          -109 hlineto
          hintmask 0101101111000000
          -419 -687 rlineto
          111 hlineto
          endchar
        </CharString>
        <CharString name="period">
          -434 0 199 hstem
          61 212 vstem
          273 199 rmoveto
          -212 -199 212 hlineto
          endchar
        </CharString>
        <CharString name="periodcentered">
          -434 235 183 hstem
          71 191 vstem
          262 418 rmoveto
          -191 -183 191 hlineto
          endchar
        </CharString>
        <CharString name="perthousand">
          233 -12 68 -35 -21 278 68 -4 68 222 68 -12 -20 hstemhm
          0 99 95 100 81 99 95 100 37 99 95 100 hintmask 1010101111110000
          147 632 rmoveto
          35 12 -25 -61 hvcurveto
          hintmask 0001101100000000
          -50 vlineto
          -61 -12 -25 -35 -35 -13 25 61 vhcurveto
          50 vlineto
          hintmask 1010101111110000
          61 13 25 35 vhcurveto
          68 vmoveto
          -114 -33 -72 -107 hvcurveto
          hintmask 0001001100000000
          -107 33 -72 114 115 32 72 107 vhcurveto
          hintmask 1010101111110000
          107 -32 72 -115 vhcurveto
          375 -422 rmoveto
          35 12 -25 -61 hvcurveto
          -50 vlineto
          -61 -12 -25 -35 -35 -13 25 61 vhcurveto
          50 vlineto
          61 13 25 35 vhcurveto
          68 vmoveto
          -114 -33 -72 -107 -107 33 -72 114 115 32 72 107 107 -32 72 -115 hvcurveto
          331 -68 rmoveto
          35 12 -25 -61 hvcurveto
          -50 vlineto
          -61 -12 -25 -35 -35 -13 25 61 vhcurveto
          50 vlineto
          61 13 25 35 vhcurveto
          68 vmoveto
          -114 -33 -72 -107 -107 33 -72 114 115 32 72 107 107 -32 72 -115 hvcurveto
          hintmask 0100010010000000
          -349 342 rmoveto
          -87 hlineto
          -250 -688 rlineto
          86 hlineto
          endchar
        </CharString>
        <CharString name="peseta">
          955 -12 119 -119 135 -102 -21 198.179992676 140.830001831 -117.009994507 161 -13 170 -147 135 -107 119 -15 163 hstemhm
          60 220 161 225 118 199 176 185 -171 190 151 190 hintmask 1000100011110000
          372 525 rmoveto
          47 22 -26 -41 hvcurveto
          -8 vlineto
          -41 -23 -26 -46 vhcurveto
          -92 142 hlineto
          703 163 rmoveto
          -148 hlineto
          hintmask 1000101001110000
          -43 -160 rlineto
          -82 -135 74 -264 hlineto
          -108 75 -33 108 35 60 7 11 33 vhcurveto
          hintmask 0100101001110000
          117 -56 vlineto
          -45 -11 24 45 hvcurveto
          201 112 135 -112 vlineto
          hintmask 0010100011110000
          -923 160 rmoveto
          -688 220 222 165 vlineto
          130 91 97 130 hvcurveto
          13 vlineto
          130 -91 96 -130 vhcurveto
          hintmask 1001000101110110
          993 -148 rmoveto
          -139 -126 -40 -139 hvcurveto
          -208 341 72 -79 vvcurveto
          -37 -55 -2 -28 vhcurveto
          hintmask 1000100011111010
          -29 -57 10 51 -1 hvcurveto
          4 -185 vlineto
          -132 140 -52 132 145 128 42 145 vhcurveto
          hintmask 1001000101110110
          215 -341 -79 76 vvcurveto
          34 55 0 17 14 17 -2 -8 14 vhcurveto
          hintmask 1000010001110000
          15 -7 11 -13 -21 vvcurveto
          185 hlineto
          hintmask 1001000101110110
          125 -128 45 -125 vhcurveto
          endchar
        </CharString>
        <CharString name="pi">
          -60 21 -21 403 125 hstem
          143 177 92 181 vstem
          679 528 rmoveto
          -460 hlineto
          -108 -64 -13 -23 -25 hvcurveto
          15 -99 rlineto
          7 27 35 3 44 hhcurveto
          -108 -30 -192 -32 -103 vhcurveto
          176 hlineto
          34 80 25 206 4 117 rrcurveto
          92 -250 hlineto
          -71 5 -63 14 -19 vhcurveto
          175 hlineto
          -7 33 -6 57 75 vvcurveto
          238 73 vlineto
          endchar
        </CharString>
        <CharString name="plus">
          -107 21 -21 198 132 198 -20 hstem
          264 132 vstem
          396 528 rmoveto
          -132 -198 -198 -132 198 -198 132 198 198 132 -198 hlineto
          endchar
        </CharString>
        <CharString name="plusminus">
          -107 0 132 226 132 hstem
          264 132 vstem
          396 672 rmoveto
          -132 -182 -198 -132 198 -182 132 182 198 132 -198 hlineto
          198 -358 rmoveto
          -528 -132 528 hlineto
          endchar
        </CharString>
        <CharString name="product">
          56 579 146 hstem
          138 173 202 173 vstem
          803 725 rmoveto
          -782 -146 117 -717 173 717 202 -717 173 717 117 hlineto
          endchar
        </CharString>
        <CharString name="q">
          -100 -176 -21 185 147 258 147 -12 -20 hstemhm
          36 199 172 199 hintmask 11101100
          259 540 rmoveto
          -140 -83 -91 -186 -184 83 -91 140 59 51 19 41 38 hvcurveto
          -245 199 vlineto
          hintmask 11011100
          725 -162 vlineto
          hintmask 11101100
          -17 -75 rlineto
          59 -39 -58 28 -71 hhcurveto
          62 -147 rmoveto
          62 26 -50 -62 hvcurveto
          -33 vlineto
          -62 -26 -51 -62 -62 -24 41 62 vhcurveto
          53 vlineto
          62 24 40 62 vhcurveto
          endchar
        </CharString>
        <CharString name="question">
          -156 0 185 377 138 hstemhm
          37 186 -11 198 -186 171 -41 212 hintmask 11100100
          310 700 rmoveto
          -157 -116 -81 -130 -13 2 -12 1 -13 hvcurveto
          184 hlineto
          -1 9 0 9 9 vvcurveto
          42 11 42 54 42 24 -33 -37 vhcurveto
          hintmask 11010000
          -81 -130 -42 -73 vvcurveto
          -50 vlineto
          hintmask 11001000
          171 21 hlineto
          hintmask 11000100
          53 171 40 136 vvcurveto
          hintmask 11100100
          124 -103 80 -153 vhcurveto
          hintmask 11010000
          100 -515 rmoveto
          -198 -185 198 hlineto
          endchar
        </CharString>
        <CharString name="questiondown">
          -156 -173 138 377 185 hstemhm
          46 212 -56 198 -183 171 1 186 hintmask 11010000
          388 281 rmoveto
          hintmask 11001000
          -171 -21 hlineto
          hintmask 11100100
          -53 -171 -40 -136 vvcurveto
          -124 103 -80 153 157 116 81 130 13 -2 12 -1 13 vhcurveto
          -184 hlineto
          1 -9 0 -9 -9 vvcurveto
          -42 -11 -42 -54 -42 -24 33 37 vhcurveto
          hintmask 11010000
          81 130 42 73 vvcurveto
          12 296 rmoveto
          -198 -185 198 hlineto
          endchar
        </CharString>
</ttFont>
